<svg width="26" height="26" viewBox="0 0 26 26" fill="none" xmlns="http://www.w3.org/2000/svg">
<path d="M10.8626 20.6974V23.6878C10.4325 25.2792 9.71756 25.2688 8.02958 24.4748C-0.784294 19.5957 -1.88592 7.47646 8.02958 2.28248C11.9644 0.221344 16.2787 0.963469 18.5749 2.28248C25.9725 6.53198 27.2316 18.3365 18.2601 24.4748C16.5674 25.1373 15.7694 25.2297 15.2696 23.6878V20.6974C15.4225 19.4742 15.1761 18.859 14.0105 17.8643M10.8626 20.6974C10.8683 19.3284 11.1665 18.7436 11.9644 17.8643M10.8626 20.6974L8.50168 21.0122C7.46864 20.9347 7.01338 20.5819 6.45559 19.2809C6.24126 18.7298 5.91652 18.5104 5.19638 18.1791M11.9644 17.8643C13.0196 17.5904 13.4107 17.6524 14.0105 17.8643M11.9644 17.8643C8.46123 17.8056 7.15013 16.7626 6.45559 13.9295C6.10832 12.513 6.45559 10.6243 7.55733 9.83734C7.21252 8.73297 7.1881 8.11243 7.39994 7.00429C8.67157 7.29772 9.29138 7.574 10.233 8.26342C12.6145 7.75956 13.8848 7.82096 16.0565 8.42081C16.9161 7.7873 17.4721 7.46448 18.7322 7.00429C18.9242 8.14373 18.8514 8.75891 18.5749 9.83734C19.3617 10.6243 20.0748 12.513 19.6765 13.9295C18.8799 16.7626 17.3535 17.6801 14.0105 17.8643" stroke="url(#paint0_linear_146_2298)" stroke-linecap="round" stroke-linejoin="round"/>
<defs>
<linearGradient id="paint0_linear_146_2298" x1="24.561" y1="0.999997" x2="-2.82099" y2="11.0803" gradientUnits="userSpaceOnUse">
<stop stop-color="#6D0896"/>
<stop offset="1" stop-color="#AB40D6"/>
</linearGradient>
</defs>
</svg>
