<svg width="36" height="77" viewBox="0 0 36 77" fill="none" xmlns="http://www.w3.org/2000/svg">
<path d="M16.3046 63.4636C6.02785 55.5931 2 48.2053 2 33.4238C2 15.7815 15.3477 9.58278 17.2583 1C17.2583 8.15232 31.5595 11.0132 33.4702 33.4238C34.6898 47.7285 30.1875 53.9362 20.1192 63.4636M16.3046 63.4636C17.0846 66.7498 17.2529 68.6322 17.2583 72.0464L19.1623 73C19.3438 69.5998 19.4746 66.747 20.1192 63.4636M16.3046 63.4636C17.1078 59.7853 17.3146 57.678 17.7318 53.9272C19.6391 57.2649 17.7318 61.0795 20.1192 63.4636" stroke="url(#paint0_linear_489_29)" stroke-width="4"/>
<defs>
<linearGradient id="paint0_linear_489_29" x1="33.6643" y1="1.6501" x2="16.7188" y2="2.84741" gradientUnits="userSpaceOnUse">
<stop stop-color="#6D0896"/>
<stop offset="1" stop-color="#AB40D6"/>
</linearGradient>
</defs>
</svg>
