<svg width="85" height="91" viewBox="0 0 85 91" fill="none" xmlns="http://www.w3.org/2000/svg">
<g id="React">
<path id="Ellipse 239" d="M56.4428 37.6009C62.4069 47.4885 66.1619 57.3567 67.4489 65.2819C68.0931 69.2486 68.1069 72.6554 67.5235 75.3071C66.9409 77.9546 65.7978 79.7212 64.2237 80.6706C62.6496 81.6201 60.5538 81.8073 57.9402 81.0877C55.3225 80.3668 52.3154 78.7655 49.1072 76.3455C42.6973 71.5104 35.7199 63.5859 29.7558 53.6983C23.7916 43.8108 20.0366 33.9426 18.7496 26.0174C18.1055 22.0507 18.0916 18.6439 18.6751 15.9921C19.2576 13.3446 20.4008 11.5781 21.9748 10.6286C23.5489 9.67916 25.6447 9.49195 28.2583 10.2116C30.876 10.9324 33.8831 12.5338 37.0913 14.9538C43.5013 19.7889 50.4786 27.7133 56.4428 37.6009Z" stroke="url(#paint0_linear_144_2256)" stroke-width="2.79603"/>
<path id="Ellipse 240" d="M55.878 52.9284C50.0812 62.915 43.2383 70.9558 36.9107 75.8982C33.7436 78.3719 30.764 80.0236 28.1587 80.7884C25.5577 81.552 23.459 81.4001 21.8692 80.4772C20.2793 79.5544 19.1065 77.8074 18.4795 75.1701C17.8515 72.5285 17.808 69.1219 18.3853 65.145C19.5387 57.1992 23.127 47.2692 28.9238 37.2826C34.7206 27.296 41.5635 19.2552 47.8911 14.3129C51.0582 11.8392 54.0378 10.1874 56.6431 9.42262C59.2441 8.65906 61.3428 8.81096 62.9326 9.7338C64.5225 10.6566 65.6953 12.4037 66.3223 15.041C66.9503 17.6825 66.9938 21.0891 66.4165 25.066C65.2631 33.0118 61.6748 42.9418 55.878 52.9284Z" stroke="url(#paint1_linear_144_2256)" stroke-width="2.79603"/>
<path id="Ellipse 241" d="M42.4967 60.6881C30.9498 60.7592 20.549 58.9417 13.0797 55.9963C9.34126 54.5221 6.40619 52.7924 4.42541 50.9353C2.4478 49.0812 1.51398 47.1956 1.50265 45.3574C1.49133 43.5191 2.40184 41.6222 4.35645 39.7439C6.3142 37.8625 9.22773 36.0968 12.9477 34.5766C20.3802 31.5394 30.7578 29.5938 42.3047 29.5226C53.8515 29.4515 64.2523 31.269 71.7216 34.2144C75.4601 35.6886 78.3952 37.4184 80.3759 39.2754C82.3535 41.1295 83.2874 43.0151 83.2987 44.8533C83.31 46.6916 82.3995 48.5885 80.4449 50.4669C78.4871 52.3482 75.5736 54.114 71.8536 55.6341C64.4212 58.6714 54.0435 60.6169 42.4967 60.6881Z" stroke="url(#paint2_linear_144_2256)" stroke-width="2.79603"/>
<circle id="Ellipse 242" cx="42.3617" cy="44.6982" r="7.68908" fill="url(#paint3_linear_144_2256)"/>
</g>
<defs>
<linearGradient id="paint0_linear_144_2256" x1="35.7934" y1="0.660743" x2="1.67403" y2="28.9466" gradientUnits="userSpaceOnUse">
<stop stop-color="#6D0896"/>
<stop offset="1" stop-color="#AB40D6"/>
</linearGradient>
<linearGradient id="paint1_linear_144_2256" x1="78.3207" y1="17.0494" x2="37.1054" y2="0.75468" gradientUnits="userSpaceOnUse">
<stop stop-color="#6D0896"/>
<stop offset="1" stop-color="#AB40D6"/>
</linearGradient>
<linearGradient id="paint2_linear_144_2256" x1="84.8013" y1="61.8255" x2="77.9334" y2="18.0413" gradientUnits="userSpaceOnUse">
<stop stop-color="#6D0896"/>
<stop offset="1" stop-color="#AB40D6"/>
</linearGradient>
<linearGradient id="paint3_linear_144_2256" x1="50.0508" y1="37.0092" x2="32.2585" y2="43.6812" gradientUnits="userSpaceOnUse">
<stop stop-color="#6D0896"/>
<stop offset="1" stop-color="#AB40D6"/>
</linearGradient>
</defs>
</svg>
