<svg width="1643" height="688" viewBox="0 0 1643 688" fill="none" xmlns="http://www.w3.org/2000/svg">
<g id="starBackground" opacity="0.8">
<g id="stars" filter="url(#filter0_f_391_2317)">
<circle id="Ellipse 88" cx="499.5" cy="166.5" r="0.5" fill="#FCFAFC"/>
<circle id="Ellipse 89" cx="547.5" cy="49.5" r="0.5" fill="#FCFAFC"/>
<circle id="Ellipse 90" cx="603.5" cy="8.5" r="0.5" fill="#FCFAFC"/>
<circle id="Ellipse 91" cx="825.5" cy="229.5" r="0.5" fill="#FCFAFC"/>
<circle id="Ellipse 92" cx="576.5" cy="107.5" r="0.5" fill="#FCFAFC"/>
<circle id="Ellipse 93" cx="785.5" cy="40.5" r="0.5" fill="#FCFAFC"/>
<circle id="Ellipse 94" cx="763.5" cy="74.5" r="0.5" fill="#FCFAFC"/>
<circle id="Ellipse 95" cx="385.5" cy="41.5" r="0.5" fill="#FCFAFC"/>
<circle id="Ellipse 96" cx="777.5" cy="273.5" r="0.5" fill="#FCFAFC"/>
<circle id="Ellipse 97" cx="819.5" cy="160.5" r="0.5" fill="#FCFAFC"/>
<circle id="Ellipse 175" cx="450.972" cy="270.698" r="0.5" fill="#FCFAFC"/>
<circle id="Ellipse 180" cx="556.972" cy="319.698" r="0.5" fill="#FCFAFC"/>
<circle id="Ellipse 185" cx="435.972" cy="406.698" r="0.5" fill="#FCFAFC"/>
<circle id="Ellipse 190" cx="549.972" cy="438.698" r="0.5" fill="#FCFAFC"/>
<circle id="Ellipse 195" cx="360.972" cy="325.698" r="0.5" fill="#FCFAFC"/>
<circle id="Ellipse 200" cx="1042.97" cy="308.698" r="0.5" fill="#FCFAFC"/>
<circle id="Ellipse 205" cx="1003.97" cy="227.698" r="0.5" fill="#FCFAFC"/>
<circle id="Ellipse 210" cx="1226.97" cy="217.698" r="0.5" fill="#FCFAFC"/>
<circle id="Ellipse 215" cx="1305.97" cy="317.698" r="0.5" fill="#FCFAFC"/>
<circle id="Ellipse 220" cx="1209.97" cy="464.698" r="0.5" fill="#FCFAFC"/>
<circle id="Ellipse 225" cx="1050.97" cy="454.698" r="0.5" fill="#FCFAFC"/>
<circle id="Ellipse 230" cx="1169.97" cy="381.698" r="0.5" fill="#FCFAFC"/>
<circle id="Ellipse 235" cx="1445.97" cy="341.698" r="0.5" fill="#FCFAFC"/>
<circle id="Ellipse 240" cx="222.972" cy="507.698" r="0.5" fill="#FCFAFC"/>
<circle id="Ellipse 245" cx="986.972" cy="557.698" r="0.5" fill="#FCFAFC"/>
<circle id="Ellipse 98" cx="899.5" cy="315.5" r="0.5" fill="#FCFAFC"/>
<circle id="Ellipse 99" cx="880.5" cy="208.5" r="0.5" fill="#FCFAFC"/>
<circle id="Ellipse 176" cx="511.972" cy="318.698" r="0.5" fill="#FCFAFC"/>
<circle id="Ellipse 181" cx="617.972" cy="367.698" r="0.5" fill="#FCFAFC"/>
<circle id="Ellipse 186" cx="496.972" cy="454.698" r="0.5" fill="#FCFAFC"/>
<circle id="Ellipse 191" cx="610.972" cy="486.698" r="0.5" fill="#FCFAFC"/>
<circle id="Ellipse 196" cx="421.972" cy="373.698" r="0.5" fill="#FCFAFC"/>
<circle id="Ellipse 201" cx="1103.97" cy="356.698" r="0.5" fill="#FCFAFC"/>
<circle id="Ellipse 206" cx="1064.97" cy="275.698" r="0.5" fill="#FCFAFC"/>
<circle id="Ellipse 211" cx="1287.97" cy="265.698" r="0.5" fill="#FCFAFC"/>
<circle id="Ellipse 216" cx="1366.97" cy="365.698" r="0.5" fill="#FCFAFC"/>
<circle id="Ellipse 221" cx="1270.97" cy="512.698" r="0.5" fill="#FCFAFC"/>
<circle id="Ellipse 226" cx="1111.97" cy="502.698" r="0.5" fill="#FCFAFC"/>
<circle id="Ellipse 231" cx="1230.97" cy="429.698" r="0.5" fill="#FCFAFC"/>
<circle id="Ellipse 236" cx="1506.97" cy="389.698" r="0.5" fill="#FCFAFC"/>
<circle id="Ellipse 241" cx="283.972" cy="555.698" r="0.5" fill="#FCFAFC"/>
<circle id="Ellipse 246" cx="1047.97" cy="605.698" r="0.5" fill="#FCFAFC"/>
<circle id="Ellipse 100" cx="440.5" cy="81.5" r="0.5" fill="#FCFAFC"/>
<circle id="Ellipse 101" cx="597.5" cy="148.5" r="0.5" fill="#FCFAFC"/>
<circle id="Ellipse 102" cx="702.5" cy="142.5" r="0.5" fill="#FCFAFC"/>
<circle id="Ellipse 103" cx="406.5" cy="137.5" r="0.5" fill="#FCFAFC"/>
<circle id="Ellipse 104" cx="273.5" cy="272.5" r="0.5" fill="#FCFAFC"/>
<circle id="Ellipse 105" cx="390.5" cy="209.5" r="0.5" fill="#FCFAFC"/>
<circle id="Ellipse 106" cx="439.5" cy="142.5" r="0.5" fill="#FCFAFC"/>
<circle id="Ellipse 107" cx="565.5" cy="106.5" r="0.5" fill="#FCFAFC"/>
<circle id="Ellipse 108" cx="317.5" cy="278.5" r="0.5" fill="#FCFAFC"/>
<circle id="Ellipse 109" cx="267.5" cy="202.5" r="0.5" fill="#FCFAFC"/>
<circle id="Ellipse 110" cx="307.5" cy="165.5" r="0.5" fill="#FCFAFC"/>
<circle id="Ellipse 111" cx="217.5" cy="238.5" r="0.5" fill="#FCFAFC"/>
<circle id="Ellipse 112" cx="330.5" cy="203.5" r="0.5" fill="#FCFAFC"/>
<circle id="Ellipse 113" cx="229.5" cy="277.5" r="0.5" fill="#FCFAFC"/>
<circle id="Ellipse 114" cx="343.5" cy="119.5" r="0.5" fill="#FCFAFC"/>
<circle id="Ellipse 115" cx="324.5" cy="141.5" r="0.5" fill="#FCFAFC"/>
<circle id="Ellipse 116" cx="616.5" cy="511.5" r="0.5" transform="rotate(180 616.5 511.5)" fill="#FCFAFC"/>
<circle id="Ellipse 117" cx="568.5" cy="628.5" r="0.5" transform="rotate(180 568.5 628.5)" fill="#FCFAFC"/>
<circle id="Ellipse 118" cx="512.5" cy="669.5" r="0.5" transform="rotate(180 512.5 669.5)" fill="#FCFAFC"/>
<circle id="Ellipse 119" cx="290.5" cy="448.5" r="0.5" transform="rotate(180 290.5 448.5)" fill="#FCFAFC"/>
<circle id="Ellipse 120" cx="539.5" cy="570.5" r="0.5" transform="rotate(180 539.5 570.5)" fill="#FCFAFC"/>
<circle id="Ellipse 121" cx="330.5" cy="637.5" r="0.5" transform="rotate(180 330.5 637.5)" fill="#FCFAFC"/>
<circle id="Ellipse 122" cx="352.5" cy="603.5" r="0.5" transform="rotate(180 352.5 603.5)" fill="#FCFAFC"/>
<circle id="Ellipse 123" cx="730.5" cy="636.5" r="0.5" transform="rotate(180 730.5 636.5)" fill="#FCFAFC"/>
<circle id="Ellipse 124" cx="338.5" cy="404.5" r="0.5" transform="rotate(180 338.5 404.5)" fill="#FCFAFC"/>
<circle id="Ellipse 125" cx="296.5" cy="517.5" r="0.5" transform="rotate(180 296.5 517.5)" fill="#FCFAFC"/>
<circle id="Ellipse 126" cx="216.5" cy="362.5" r="0.5" transform="rotate(180 216.5 362.5)" fill="#FCFAFC"/>
<circle id="Ellipse 127" cx="235.5" cy="469.5" r="0.5" transform="rotate(180 235.5 469.5)" fill="#FCFAFC"/>
<circle id="Ellipse 128" cx="675.5" cy="596.5" r="0.5" transform="rotate(180 675.5 596.5)" fill="#FCFAFC"/>
<circle id="Ellipse 129" cx="518.5" cy="529.5" r="0.5" transform="rotate(180 518.5 529.5)" fill="#FCFAFC"/>
<circle id="Ellipse 130" cx="413.5" cy="535.5" r="0.5" transform="rotate(180 413.5 535.5)" fill="#FCFAFC"/>
<circle id="Ellipse 131" cx="709.5" cy="540.5" r="0.5" transform="rotate(180 709.5 540.5)" fill="#FCFAFC"/>
<circle id="Ellipse 132" cx="842.5" cy="405.5" r="0.5" transform="rotate(180 842.5 405.5)" fill="#FCFAFC"/>
<circle id="Ellipse 133" cx="725.5" cy="468.5" r="0.5" transform="rotate(180 725.5 468.5)" fill="#FCFAFC"/>
<circle id="Ellipse 134" cx="676.5" cy="535.5" r="0.5" transform="rotate(180 676.5 535.5)" fill="#FCFAFC"/>
<circle id="Ellipse 135" cx="550.5" cy="571.5" r="0.5" transform="rotate(180 550.5 571.5)" fill="#FCFAFC"/>
<circle id="Ellipse 136" cx="798.5" cy="399.5" r="0.5" transform="rotate(180 798.5 399.5)" fill="#FCFAFC"/>
<circle id="Ellipse 137" cx="848.5" cy="475.5" r="0.5" transform="rotate(180 848.5 475.5)" fill="#FCFAFC"/>
<circle id="Ellipse 138" cx="808.5" cy="512.5" r="0.5" transform="rotate(180 808.5 512.5)" fill="#FCFAFC"/>
<circle id="Ellipse 139" cx="898.5" cy="439.5" r="0.5" transform="rotate(180 898.5 439.5)" fill="#FCFAFC"/>
<circle id="Ellipse 140" cx="785.5" cy="474.5" r="0.5" transform="rotate(180 785.5 474.5)" fill="#FCFAFC"/>
<circle id="Ellipse 141" cx="886.5" cy="400.5" r="0.5" transform="rotate(180 886.5 400.5)" fill="#FCFAFC"/>
<circle id="Ellipse 142" cx="772.5" cy="558.5" r="0.5" transform="rotate(180 772.5 558.5)" fill="#FCFAFC"/>
<circle id="Ellipse 143" cx="791.5" cy="536.5" r="0.5" transform="rotate(180 791.5 536.5)" fill="#FCFAFC"/>
<circle id="Ellipse 14" opacity="0.4" cx="131.879" cy="342.166" r="1" transform="rotate(-49.0176 131.879 342.166)" fill="#FCFAFC"/>
<circle id="Ellipse 144" opacity="0.4" cx="881.335" cy="338.001" r="1" transform="rotate(123.938 881.335 338.001)" fill="#FCFAFC"/>
<circle id="Ellipse 32" cx="3.11611" cy="527.9" r="1.5" transform="rotate(-49.0176 3.11611 527.9)" fill="#FCFAFC"/>
<circle id="Ellipse 145" opacity="0.4" cx="968.47" cy="135.079" r="1" transform="rotate(123.938 968.47 135.079)" fill="#FCFAFC"/>
<circle id="Ellipse 177" opacity="0.4" cx="599.942" cy="245.277" r="1" transform="rotate(123.938 599.942 245.277)" fill="#FCFAFC"/>
<circle id="Ellipse 182" opacity="0.4" cx="705.942" cy="294.277" r="1" transform="rotate(123.938 705.942 294.277)" fill="#FCFAFC"/>
<circle id="Ellipse 187" opacity="0.4" cx="584.942" cy="381.277" r="1" transform="rotate(123.938 584.942 381.277)" fill="#FCFAFC"/>
<circle id="Ellipse 192" opacity="0.4" cx="698.942" cy="413.277" r="1" transform="rotate(123.938 698.942 413.277)" fill="#FCFAFC"/>
<circle id="Ellipse 197" opacity="0.4" cx="509.942" cy="300.277" r="1" transform="rotate(123.938 509.942 300.277)" fill="#FCFAFC"/>
<circle id="Ellipse 202" opacity="0.4" cx="1191.94" cy="283.277" r="1" transform="rotate(123.938 1191.94 283.277)" fill="#FCFAFC"/>
<circle id="Ellipse 207" opacity="0.4" cx="1152.94" cy="202.277" r="1" transform="rotate(123.938 1152.94 202.277)" fill="#FCFAFC"/>
<circle id="Ellipse 212" opacity="0.4" cx="1375.94" cy="192.277" r="1" transform="rotate(123.938 1375.94 192.277)" fill="#FCFAFC"/>
<circle id="Ellipse 217" opacity="0.4" cx="1454.94" cy="292.277" r="1" transform="rotate(123.938 1454.94 292.277)" fill="#FCFAFC"/>
<circle id="Ellipse 222" opacity="0.4" cx="1358.94" cy="439.277" r="1" transform="rotate(123.938 1358.94 439.277)" fill="#FCFAFC"/>
<circle id="Ellipse 227" opacity="0.4" cx="1199.94" cy="429.277" r="1" transform="rotate(123.938 1199.94 429.277)" fill="#FCFAFC"/>
<circle id="Ellipse 232" opacity="0.4" cx="1318.94" cy="356.277" r="1" transform="rotate(123.938 1318.94 356.277)" fill="#FCFAFC"/>
<circle id="Ellipse 237" opacity="0.4" cx="1594.94" cy="316.277" r="1" transform="rotate(123.938 1594.94 316.277)" fill="#FCFAFC"/>
<circle id="Ellipse 242" opacity="0.4" cx="371.942" cy="482.277" r="1" transform="rotate(123.938 371.942 482.277)" fill="#FCFAFC"/>
<circle id="Ellipse 247" opacity="0.4" cx="1135.94" cy="532.277" r="1" transform="rotate(123.938 1135.94 532.277)" fill="#FCFAFC"/>
<circle id="Ellipse 88_2" opacity="0.4" cx="430.882" cy="111.83" r="1" transform="rotate(-49.0176 430.882 111.83)" fill="#FCFAFC"/>
<circle id="Ellipse 146" opacity="0.64" cx="538.881" cy="576.427" r="1" transform="rotate(123.938 538.881 576.427)" fill="#FCFAFC"/>
<circle id="Ellipse 93_2" cx="111.881" cy="551.971" r="1.5" transform="rotate(-49.0176 111.881 551.971)" fill="#FCFAFC"/>
<circle id="Ellipse 147" opacity="0.4" cx="876.146" cy="127.19" r="1" transform="rotate(123.938 876.146 127.19)" fill="#FCFAFC"/>
<circle id="Ellipse 178" opacity="0.4" cx="507.618" cy="237.388" r="1" transform="rotate(123.938 507.618 237.388)" fill="#FCFAFC"/>
<circle id="Ellipse 183" opacity="0.4" cx="613.618" cy="286.388" r="1" transform="rotate(123.938 613.618 286.388)" fill="#FCFAFC"/>
<circle id="Ellipse 188" opacity="0.4" cx="492.618" cy="373.388" r="1" transform="rotate(123.938 492.618 373.388)" fill="#FCFAFC"/>
<circle id="Ellipse 193" opacity="0.4" cx="606.618" cy="405.388" r="1" transform="rotate(123.938 606.618 405.388)" fill="#FCFAFC"/>
<circle id="Ellipse 198" opacity="0.4" cx="417.618" cy="292.388" r="1" transform="rotate(123.938 417.618 292.388)" fill="#FCFAFC"/>
<circle id="Ellipse 203" opacity="0.4" cx="1099.62" cy="275.388" r="1" transform="rotate(123.938 1099.62 275.388)" fill="#FCFAFC"/>
<circle id="Ellipse 208" opacity="0.4" cx="1060.62" cy="194.388" r="1" transform="rotate(123.938 1060.62 194.388)" fill="#FCFAFC"/>
<circle id="Ellipse 213" opacity="0.4" cx="1283.62" cy="184.388" r="1" transform="rotate(123.938 1283.62 184.388)" fill="#FCFAFC"/>
<circle id="Ellipse 218" opacity="0.4" cx="1362.62" cy="284.388" r="1" transform="rotate(123.938 1362.62 284.388)" fill="#FCFAFC"/>
<circle id="Ellipse 223" opacity="0.4" cx="1266.62" cy="431.388" r="1" transform="rotate(123.938 1266.62 431.388)" fill="#FCFAFC"/>
<circle id="Ellipse 228" opacity="0.4" cx="1107.62" cy="421.388" r="1" transform="rotate(123.938 1107.62 421.388)" fill="#FCFAFC"/>
<circle id="Ellipse 233" opacity="0.4" cx="1226.62" cy="348.388" r="1" transform="rotate(123.938 1226.62 348.388)" fill="#FCFAFC"/>
<circle id="Ellipse 238" opacity="0.4" cx="1502.62" cy="308.388" r="1" transform="rotate(123.938 1502.62 308.388)" fill="#FCFAFC"/>
<circle id="Ellipse 243" opacity="0.4" cx="279.618" cy="474.388" r="1" transform="rotate(123.938 279.618 474.388)" fill="#FCFAFC"/>
<circle id="Ellipse 248" opacity="0.4" cx="1043.62" cy="524.388" r="1" transform="rotate(123.938 1043.62 524.388)" fill="#FCFAFC"/>
<circle id="Ellipse 89_2" cx="34.6669" cy="432.116" r="1.5" transform="rotate(-49.0176 34.6669 432.116)" fill="#FCFAFC"/>
<circle id="Ellipse 148" opacity="0.64" cx="948.905" cy="234.009" r="1" transform="rotate(123.938 948.905 234.009)" fill="#FCFAFC"/>
<circle id="Ellipse 94_2" cx="152.543" cy="505.167" r="1.5" transform="rotate(-49.0176 152.543 505.167)" fill="#FCFAFC"/>
<circle id="Ellipse 149" opacity="0.4" cx="841.532" cy="178.628" r="1" transform="rotate(123.938 841.532 178.628)" fill="#FCFAFC"/>
<circle id="Ellipse 179" opacity="0.4" cx="473.004" cy="288.826" r="1" transform="rotate(123.938 473.004 288.826)" fill="#FCFAFC"/>
<circle id="Ellipse 184" opacity="0.4" cx="579.004" cy="337.826" r="1" transform="rotate(123.938 579.004 337.826)" fill="#FCFAFC"/>
<circle id="Ellipse 189" opacity="0.4" cx="458.004" cy="424.826" r="1" transform="rotate(123.938 458.004 424.826)" fill="#FCFAFC"/>
<circle id="Ellipse 194" opacity="0.4" cx="572.004" cy="456.826" r="1" transform="rotate(123.938 572.004 456.826)" fill="#FCFAFC"/>
<circle id="Ellipse 199" opacity="0.4" cx="383.004" cy="343.826" r="1" transform="rotate(123.938 383.004 343.826)" fill="#FCFAFC"/>
<circle id="Ellipse 204" opacity="0.4" cx="1065" cy="326.826" r="1" transform="rotate(123.938 1065 326.826)" fill="#FCFAFC"/>
<circle id="Ellipse 209" opacity="0.4" cx="1026" cy="245.826" r="1" transform="rotate(123.938 1026 245.826)" fill="#FCFAFC"/>
<circle id="Ellipse 214" opacity="0.4" cx="1249" cy="235.826" r="1" transform="rotate(123.938 1249 235.826)" fill="#FCFAFC"/>
<circle id="Ellipse 219" opacity="0.4" cx="1328" cy="335.826" r="1" transform="rotate(123.938 1328 335.826)" fill="#FCFAFC"/>
<circle id="Ellipse 224" opacity="0.4" cx="1232" cy="482.826" r="1" transform="rotate(123.938 1232 482.826)" fill="#FCFAFC"/>
<circle id="Ellipse 229" opacity="0.4" cx="1073" cy="472.826" r="1" transform="rotate(123.938 1073 472.826)" fill="#FCFAFC"/>
<circle id="Ellipse 234" opacity="0.4" cx="1192" cy="399.826" r="1" transform="rotate(123.938 1192 399.826)" fill="#FCFAFC"/>
<circle id="Ellipse 239" opacity="0.4" cx="1468" cy="359.826" r="1" transform="rotate(123.938 1468 359.826)" fill="#FCFAFC"/>
<circle id="Ellipse 244" opacity="0.4" cx="245.004" cy="525.826" r="1" transform="rotate(123.938 245.004 525.826)" fill="#FCFAFC"/>
<circle id="Ellipse 249" opacity="0.4" cx="1009" cy="575.826" r="1" transform="rotate(123.938 1009 575.826)" fill="#FCFAFC"/>
<circle id="Ellipse 150" opacity="0.4" cx="426.776" cy="588.977" r="1" transform="rotate(123.938 426.776 588.977)" fill="#FCFAFC"/>
<circle id="Ellipse 151" opacity="0.64" cx="784.908" cy="124.853" r="1" transform="rotate(123.938 784.908 124.853)" fill="#FCFAFC"/>
<circle id="Ellipse 30" cx="115.631" cy="134.681" r="1" transform="rotate(-49.0176 115.631 134.681)" fill="#FCFAFC"/>
<circle id="Ellipse 152" cx="848.949" cy="515.089" r="1" transform="rotate(123.938 848.949 515.089)" fill="#FCFAFC"/>
<g id="Ellipse 91_2" opacity="0.4" filter="url(#filter1_di_391_2317)">
<circle cx="282.471" cy="148.481" r="1" transform="rotate(-49.0176 282.471 148.481)" fill="#FCFAFC"/>
</g>
<circle id="Ellipse 153" opacity="0.64" cx="681.677" cy="521.853" r="1" transform="rotate(123.938 681.677 521.853)" fill="#FCFAFC"/>
<circle id="Ellipse 29" cx="145.794" cy="631.107" r="1" transform="rotate(-49.0176 145.794 631.107)" fill="#FCFAFC"/>
<circle id="Ellipse 154" opacity="0.64" cx="832.092" cy="52.9461" r="1" transform="rotate(123.938 832.092 52.9461)" fill="#FCFAFC"/>
<circle id="Ellipse 92_2" cx="155.234" cy="402.195" r="1" transform="rotate(-49.0176 155.234 402.195)" fill="#FCFAFC"/>
<circle id="Ellipse 155" opacity="0.64" cx="850.795" cy="281.288" r="1" transform="rotate(123.938 850.795 281.288)" fill="#FCFAFC"/>
<circle id="Ellipse 97_2" cx="98.9176" cy="438.049" r="1" transform="rotate(-49.0176 98.9176 438.049)" fill="#FCFAFC"/>
<circle id="Ellipse 156" opacity="0.64" cx="902.289" cy="238.799" r="1" transform="rotate(123.938 902.289 238.799)" fill="#FCFAFC"/>
<circle id="Ellipse 16" cx="110.888" cy="497.46" r="1" transform="rotate(-49.0176 110.888 497.46)" fill="#FCFAFC"/>
<circle id="Ellipse 157" opacity="0.64" cx="883.123" cy="181.305" r="1" transform="rotate(123.938 883.123 181.305)" fill="#FCFAFC"/>
<circle id="Ellipse 22" cx="172.661" cy="219.99" r="1" transform="rotate(-49.0176 172.661 219.99)" fill="#FCFAFC"/>
<circle id="Ellipse 158" opacity="0.64" cx="781.889" cy="437.417" r="1" transform="rotate(123.938 781.889 437.417)" fill="#FCFAFC"/>
<circle id="Ellipse 21" opacity="0.4" cx="375.056" cy="73.9292" r="1" transform="rotate(-49.0176 375.056 73.9292)" fill="#FCFAFC"/>
<circle id="Ellipse 159" cx="598.932" cy="607.196" r="1" transform="rotate(123.938 598.932 607.196)" fill="#FCFAFC"/>
<circle id="Ellipse 20" cx="196.317" cy="153.115" r="1" transform="rotate(-49.0176 196.317 153.115)" fill="#FCFAFC"/>
<circle id="Ellipse 160" opacity="0.64" cx="766.612" cy="506.689" r="1" transform="rotate(123.938 766.612 506.689)" fill="#FCFAFC"/>
<circle id="Ellipse 19" cx="169.92" cy="322.257" r="1" transform="rotate(-49.0176 169.92 322.257)" fill="#FCFAFC"/>
<circle id="Ellipse 161" opacity="0.64" cx="772.068" cy="335.586" r="1" transform="rotate(123.938 772.068 335.586)" fill="#FCFAFC"/>
<circle id="Ellipse 18" cx="109.039" cy="612.423" r="1" transform="rotate(-49.0176 109.039 612.423)" fill="#FCFAFC"/>
<circle id="Ellipse 162" opacity="0.64" cx="870.86" cy="66.9818" r="1" transform="rotate(123.938 870.86 66.9818)" fill="#FCFAFC"/>
<circle id="Ellipse 163" opacity="0.64" cx="735.607" cy="429.173" r="1" transform="rotate(123.938 735.607 429.173)" fill="#FCFAFC"/>
<circle id="Ellipse 27" cx="212.992" cy="239.132" r="1" transform="rotate(-49.0176 212.992 239.132)" fill="#FCFAFC"/>
<circle id="Ellipse 164" opacity="0.64" cx="739.515" cy="423.366" r="1" transform="rotate(123.938 739.515 423.366)" fill="#FCFAFC"/>
<circle id="Ellipse 26" opacity="0.4" cx="422.427" cy="62.0957" r="1" transform="rotate(-49.0176 422.427 62.0957)" fill="#FCFAFC"/>
<circle id="Ellipse 165" cx="553.371" cy="624.749" r="1" transform="rotate(123.938 553.371 624.749)" fill="#FCFAFC"/>
<circle id="Ellipse 99_2" cx="523.208" cy="43.6758" r="1" transform="rotate(-49.0176 523.208 43.6758)" fill="#FCFAFC"/>
<circle id="Ellipse 166" cx="455.61" cy="655.39" r="1" transform="rotate(123.938 455.61 655.39)" fill="#FCFAFC"/>
<circle id="Ellipse 100_2" cx="183.701" cy="44.1294" r="1" transform="rotate(-49.0176 183.701 44.1294)" fill="#FCFAFC"/>
<circle id="Ellipse 167" opacity="0.64" cx="792.499" cy="613.305" r="1" transform="rotate(123.938 792.499 613.305)" fill="#FCFAFC"/>
<circle id="Ellipse 101_2" cx="4.10312" cy="252.386" r="1" transform="rotate(-49.0176 4.10312 252.386)" fill="#FCFAFC"/>
<circle id="Ellipse 168" opacity="0.64" cx="945.202" cy="384.596" r="1" transform="rotate(123.938 945.202 384.596)" fill="#FCFAFC"/>
<circle id="Ellipse 25" cx="194.405" cy="465.367" r="1" transform="rotate(-49.0176 194.405 465.367)" fill="#FCFAFC"/>
<circle id="Ellipse 169" opacity="0.64" cx="804.173" cy="223.397" r="1" transform="rotate(123.938 804.173 223.397)" fill="#FCFAFC"/>
<circle id="Ellipse 24" cx="267.567" cy="57.378" r="1" transform="rotate(-49.0176 267.567 57.378)" fill="#FCFAFC"/>
<circle id="Ellipse 170" opacity="0.64" cx="707.641" cy="610.441" r="1" transform="rotate(123.938 707.641 610.441)" fill="#FCFAFC"/>
<circle id="Ellipse 23" cx="342.024" cy="17.4146" r="1" transform="rotate(-49.0176 342.024 17.4146)" fill="#FCFAFC"/>
<circle id="Ellipse 171" cx="638.646" cy="659.233" r="1" transform="rotate(123.938 638.646 659.233)" fill="#FCFAFC"/>
<circle id="Ellipse 98_2" cx="434.539" cy="2.41068" r="1" transform="rotate(-49.0176 434.539 2.41068)" fill="#FCFAFC"/>
<circle id="Ellipse 172" cx="548.671" cy="685.469" r="1" transform="rotate(123.938 548.671 685.469)" fill="#FCFAFC"/>
<circle id="Ellipse 17" cx="431.208" cy="177.022" r="1" transform="rotate(-49.0176 431.208 177.022)" fill="#FCFAFC"/>
<g id="Ellipse 173" filter="url(#filter2_di_391_2317)">
<circle cx="530.563" cy="511.768" r="1" transform="rotate(123.938 530.563 511.768)" fill="#FCFAFC"/>
</g>
<circle id="Ellipse 15" opacity="0.4" cx="53.4107" cy="365.398" r="1" transform="rotate(-49.0176 53.4107 365.398)" fill="#FCFAFC"/>
<circle id="Ellipse 174" opacity="0.4" cx="956.362" cy="305.321" r="1" transform="rotate(123.938 956.362 305.321)" fill="#FCFAFC"/>
</g>
<g id="stars_2" filter="url(#filter3_f_391_2317)">
<circle id="Ellipse 88_3" cx="1191.5" cy="166.5" r="0.5" fill="#FCFAFC"/>
<circle id="Ellipse 90_2" cx="1295.5" cy="8.5" r="0.5" fill="#FCFAFC"/>
<circle id="Ellipse 97_3" cx="1511.5" cy="160.5" r="0.5" fill="#FCFAFC"/>
<circle id="Ellipse 99_3" cx="1572.5" cy="208.5" r="0.5" fill="#FCFAFC"/>
<circle id="Ellipse 102_2" cx="1394.5" cy="142.5" r="0.5" fill="#FCFAFC"/>
<circle id="Ellipse 103_2" cx="1098.5" cy="137.5" r="0.5" fill="#FCFAFC"/>
<circle id="Ellipse 106_2" cx="1131.5" cy="142.5" r="0.5" fill="#FCFAFC"/>
<circle id="Ellipse 107_2" cx="1257.5" cy="106.5" r="0.5" fill="#FCFAFC"/>
<circle id="Ellipse 108_2" cx="1009.5" cy="278.5" r="0.5" fill="#FCFAFC"/>
<circle id="Ellipse 181_2" cx="575.972" cy="448.698" r="0.5" fill="#FCFAFC"/>
<circle id="Ellipse 184_2" cx="689.972" cy="480.698" r="0.5" fill="#FCFAFC"/>
<circle id="Ellipse 205_2" cx="1190.97" cy="496.698" r="0.5" fill="#FCFAFC"/>
<circle id="Ellipse 208_2" cx="1309.97" cy="423.698" r="0.5" fill="#FCFAFC"/>
<circle id="Ellipse 211_2" cx="1585.97" cy="383.698" r="0.5" fill="#FCFAFC"/>
<circle id="Ellipse 214_2" cx="362.972" cy="549.698" r="0.5" fill="#FCFAFC"/>
<circle id="Ellipse 217_2" cx="1126.97" cy="599.698" r="0.5" fill="#FCFAFC"/>
<circle id="Ellipse 115_2" cx="1016.5" cy="141.5" r="0.5" fill="#FCFAFC"/>
<circle id="Ellipse 116_2" cx="1308.5" cy="511.5" r="0.5" transform="rotate(180 1308.5 511.5)" fill="#FCFAFC"/>
<circle id="Ellipse 117_2" cx="1260.5" cy="628.5" r="0.5" transform="rotate(180 1260.5 628.5)" fill="#FCFAFC"/>
<circle id="Ellipse 122_2" cx="1044.5" cy="603.5" r="0.5" transform="rotate(180 1044.5 603.5)" fill="#FCFAFC"/>
<circle id="Ellipse 124_2" cx="1030.5" cy="404.5" r="0.5" transform="rotate(180 1030.5 404.5)" fill="#FCFAFC"/>
<circle id="Ellipse 126_2" cx="908.5" cy="362.5" r="0.5" transform="rotate(180 908.5 362.5)" fill="#FCFAFC"/>
<circle id="Ellipse 128_2" cx="1367.5" cy="596.5" r="0.5" transform="rotate(180 1367.5 596.5)" fill="#FCFAFC"/>
<circle id="Ellipse 130_2" cx="1105.5" cy="535.5" r="0.5" transform="rotate(180 1105.5 535.5)" fill="#FCFAFC"/>
<circle id="Ellipse 132_2" cx="1534.5" cy="405.5" r="0.5" transform="rotate(180 1534.5 405.5)" fill="#FCFAFC"/>
<circle id="Ellipse 134_2" cx="1368.5" cy="535.5" r="0.5" transform="rotate(180 1368.5 535.5)" fill="#FCFAFC"/>
<circle id="Ellipse 139_2" cx="1590.5" cy="439.5" r="0.5" transform="rotate(180 1590.5 439.5)" fill="#FCFAFC"/>
<circle id="Ellipse 141_2" cx="1578.5" cy="400.5" r="0.5" transform="rotate(180 1578.5 400.5)" fill="#FCFAFC"/>
<circle id="Ellipse 143_2" cx="1483.5" cy="536.5" r="0.5" transform="rotate(180 1483.5 536.5)" fill="#FCFAFC"/>
<circle id="Ellipse 14_2" opacity="0.4" cx="823.879" cy="342.166" r="1" transform="rotate(-49.0176 823.879 342.166)" fill="#FCFAFC"/>
<circle id="Ellipse 88_4" opacity="0.4" cx="1122.88" cy="111.83" r="1" transform="rotate(-49.0176 1122.88 111.83)" fill="#FCFAFC"/>
<circle id="Ellipse 146_2" opacity="0.4" cx="1230.88" cy="576.427" r="1" transform="rotate(123.938 1230.88 576.427)" fill="#FCFAFC"/>
<circle id="Ellipse 93_3" opacity="0.4" cx="803.175" cy="552.021" r="1" transform="rotate(-49.0176 803.175 552.021)" fill="#FCFAFC"/>
<circle id="Ellipse 148_2" cx="1640.21" cy="234.145" r="1.5" transform="rotate(123.938 1640.21 234.145)" fill="#FCFAFC"/>
<circle id="Ellipse 94_3" opacity="0.4" cx="843.837" cy="505.217" r="1" transform="rotate(-49.0176 843.837 505.217)" fill="#FCFAFC"/>
<circle id="Ellipse 149_2" cx="1532.84" cy="178.763" r="1.5" transform="rotate(123.938 1532.84 178.763)" fill="#FCFAFC"/>
<circle id="Ellipse 150_2" opacity="0.4" cx="1118.78" cy="588.977" r="1" transform="rotate(123.938 1118.78 588.977)" fill="#FCFAFC"/>
<circle id="Ellipse 151_2" opacity="0.4" cx="1476.91" cy="124.853" r="1" transform="rotate(123.938 1476.91 124.853)" fill="#FCFAFC"/>
<circle id="Ellipse 30_2" opacity="0.4" cx="807.631" cy="134.681" r="1" transform="rotate(-49.0176 807.631 134.681)" fill="#FCFAFC"/>
<circle id="Ellipse 194_2" opacity="0.4" cx="992.103" cy="201.878" r="1" transform="rotate(-49.0176 992.103 201.878)" fill="#FCFAFC"/>
<circle id="Ellipse 197_2" opacity="0.4" cx="1215.1" cy="191.878" r="1" transform="rotate(-49.0176 1215.1 191.878)" fill="#FCFAFC"/>
<circle id="Ellipse 215_2" opacity="0.4" cx="211.103" cy="481.878" r="1" transform="rotate(-49.0176 211.103 481.878)" fill="#FCFAFC"/>
<circle id="Ellipse 218_2" opacity="0.4" cx="975.103" cy="531.878" r="1" transform="rotate(-49.0176 975.103 531.878)" fill="#FCFAFC"/>
<circle id="Ellipse 152_2" cx="1540.26" cy="515.224" r="1.5" transform="rotate(123.938 1540.26 515.224)" fill="#FCFAFC"/>
<g id="Ellipse 180_2" opacity="0.4" filter="url(#filter4_di_391_2317)">
<circle cx="711.943" cy="307.679" r="1" transform="rotate(-49.0176 711.943 307.679)" fill="#FCFAFC"/>
</g>
<g id="Ellipse 183_2" opacity="0.4" filter="url(#filter5_di_391_2317)">
<circle cx="590.943" cy="394.679" r="1" transform="rotate(-49.0176 590.943 394.679)" fill="#FCFAFC"/>
</g>
<g id="Ellipse 186_2" opacity="0.4" filter="url(#filter6_di_391_2317)">
<circle cx="704.943" cy="426.679" r="1" transform="rotate(-49.0176 704.943 426.679)" fill="#FCFAFC"/>
</g>
<g id="Ellipse 192_2" opacity="0.4" filter="url(#filter7_di_391_2317)">
<circle cx="1197.94" cy="296.679" r="1" transform="rotate(-49.0176 1197.94 296.679)" fill="#FCFAFC"/>
</g>
<g id="Ellipse 195_2" opacity="0.4" filter="url(#filter8_di_391_2317)">
<circle cx="1158.94" cy="215.679" r="1" transform="rotate(-49.0176 1158.94 215.679)" fill="#FCFAFC"/>
</g>
<g id="Ellipse 204_2" opacity="0.4" filter="url(#filter9_di_391_2317)">
<circle cx="1364.94" cy="452.679" r="1" transform="rotate(-49.0176 1364.94 452.679)" fill="#FCFAFC"/>
</g>
<g id="Ellipse 207_2" opacity="0.4" filter="url(#filter10_di_391_2317)">
<circle cx="1205.94" cy="442.679" r="1" transform="rotate(-49.0176 1205.94 442.679)" fill="#FCFAFC"/>
</g>
<g id="Ellipse 213_2" opacity="0.4" filter="url(#filter11_di_391_2317)">
<circle cx="1600.94" cy="329.679" r="1" transform="rotate(-49.0176 1600.94 329.679)" fill="#FCFAFC"/>
</g>
<g id="Ellipse 219_2" opacity="0.4" filter="url(#filter12_di_391_2317)">
<circle cx="1141.94" cy="545.679" r="1" transform="rotate(-49.0176 1141.94 545.679)" fill="#FCFAFC"/>
</g>
<circle id="Ellipse 92_3" opacity="0.64" cx="847.234" cy="402.195" r="1" transform="rotate(-49.0176 847.234 402.195)" fill="#FCFAFC"/>
<circle id="Ellipse 157_2" cx="1575.12" cy="181.305" r="1" transform="rotate(123.938 1575.12 181.305)" fill="#FCFAFC"/>
<circle id="Ellipse 159_2" cx="1290.93" cy="607.196" r="1" transform="rotate(123.938 1290.93 607.196)" fill="#FCFAFC"/>
<circle id="Ellipse 20_2" opacity="0.64" cx="888.317" cy="153.115" r="1" transform="rotate(-49.0176 888.317 153.115)" fill="#FCFAFC"/>
<circle id="Ellipse 18_2" opacity="0.64" cx="801.039" cy="612.423" r="1" transform="rotate(-49.0176 801.039 612.423)" fill="#FCFAFC"/>
<circle id="Ellipse 162_2" cx="1562.86" cy="66.9818" r="1" transform="rotate(123.938 1562.86 66.9818)" fill="#FCFAFC"/>
<circle id="Ellipse 163_2" cx="1427.61" cy="429.173" r="1" transform="rotate(123.938 1427.61 429.173)" fill="#FCFAFC"/>
<circle id="Ellipse 101_3" opacity="0.64" cx="696.103" cy="252.386" r="1" transform="rotate(-49.0176 696.103 252.386)" fill="#FCFAFC"/>
<circle id="Ellipse 168_2" cx="1637.2" cy="384.596" r="1" transform="rotate(123.938 1637.2 384.596)" fill="#FCFAFC"/>
<circle id="Ellipse 169_2" cx="1496.17" cy="223.397" r="1" transform="rotate(123.938 1496.17 223.397)" fill="#FCFAFC"/>
<circle id="Ellipse 24_2" opacity="0.64" cx="959.566" cy="57.378" r="1" transform="rotate(-49.0176 959.566 57.378)" fill="#FCFAFC"/>
<circle id="Ellipse 172_2" cx="1240.67" cy="685.469" r="1" transform="rotate(123.938 1240.67 685.469)" fill="#FCFAFC"/>
<circle id="Ellipse 17_2" cx="1123.21" cy="177.022" r="1" transform="rotate(-49.0176 1123.21 177.022)" fill="#FCFAFC"/>
</g>
</g>
<defs>
<filter id="filter0_f_391_2317" x="0.616211" y="0.410645" width="1596.33" height="687.059" filterUnits="userSpaceOnUse" color-interpolation-filters="sRGB">
<feFlood flood-opacity="0" result="BackgroundImageFix"/>
<feBlend mode="normal" in="SourceGraphic" in2="BackgroundImageFix" result="shape"/>
<feGaussianBlur stdDeviation="0.5" result="effect1_foregroundBlur_391_2317"/>
</filter>
<filter id="filter1_di_391_2317" x="278.472" y="144.481" width="8" height="8" filterUnits="userSpaceOnUse" color-interpolation-filters="sRGB">
<feFlood flood-opacity="0" result="BackgroundImageFix"/>
<feColorMatrix in="SourceAlpha" type="matrix" values="0 0 0 0 0 0 0 0 0 0 0 0 0 0 0 0 0 0 127 0" result="hardAlpha"/>
<feOffset/>
<feGaussianBlur stdDeviation="1.5"/>
<feComposite in2="hardAlpha" operator="out"/>
<feColorMatrix type="matrix" values="0 0 0 0 0.988235 0 0 0 0 0.980392 0 0 0 0 0.988235 0 0 0 1 0"/>
<feBlend mode="normal" in2="BackgroundImageFix" result="effect1_dropShadow_391_2317"/>
<feBlend mode="normal" in="SourceGraphic" in2="effect1_dropShadow_391_2317" result="shape"/>
<feColorMatrix in="SourceAlpha" type="matrix" values="0 0 0 0 0 0 0 0 0 0 0 0 0 0 0 0 0 0 127 0" result="hardAlpha"/>
<feOffset dy="0.375"/>
<feGaussianBlur stdDeviation="0.75"/>
<feComposite in2="hardAlpha" operator="arithmetic" k2="-1" k3="1"/>
<feColorMatrix type="matrix" values="0 0 0 0 0.243137 0 0 0 0 0.0862745 0 0 0 0 0.321569 0 0 0 0.24 0"/>
<feBlend mode="normal" in2="shape" result="effect2_innerShadow_391_2317"/>
</filter>
<filter id="filter2_di_391_2317" x="527.563" y="508.768" width="6" height="6.00049" filterUnits="userSpaceOnUse" color-interpolation-filters="sRGB">
<feFlood flood-opacity="0" result="BackgroundImageFix"/>
<feColorMatrix in="SourceAlpha" type="matrix" values="0 0 0 0 0 0 0 0 0 0 0 0 0 0 0 0 0 0 127 0" result="hardAlpha"/>
<feOffset/>
<feGaussianBlur stdDeviation="1"/>
<feComposite in2="hardAlpha" operator="out"/>
<feColorMatrix type="matrix" values="0 0 0 0 0.988235 0 0 0 0 0.980392 0 0 0 0 0.988235 0 0 0 1 0"/>
<feBlend mode="normal" in2="BackgroundImageFix" result="effect1_dropShadow_391_2317"/>
<feBlend mode="normal" in="SourceGraphic" in2="effect1_dropShadow_391_2317" result="shape"/>
<feColorMatrix in="SourceAlpha" type="matrix" values="0 0 0 0 0 0 0 0 0 0 0 0 0 0 0 0 0 0 127 0" result="hardAlpha"/>
<feOffset dy="0.25"/>
<feGaussianBlur stdDeviation="0.5"/>
<feComposite in2="hardAlpha" operator="arithmetic" k2="-1" k3="1"/>
<feColorMatrix type="matrix" values="0 0 0 0 0.243137 0 0 0 0 0.0862745 0 0 0 0 0.321569 0 0 0 0.24 0"/>
<feBlend mode="normal" in2="shape" result="effect2_innerShadow_391_2317"/>
</filter>
<filter id="filter3_f_391_2317" x="209.104" y="7" width="1433.61" height="680.469" filterUnits="userSpaceOnUse" color-interpolation-filters="sRGB">
<feFlood flood-opacity="0" result="BackgroundImageFix"/>
<feBlend mode="normal" in="SourceGraphic" in2="BackgroundImageFix" result="shape"/>
<feGaussianBlur stdDeviation="0.5" result="effect1_foregroundBlur_391_2317"/>
</filter>
<filter id="filter4_di_391_2317" x="707.943" y="303.679" width="8" height="8" filterUnits="userSpaceOnUse" color-interpolation-filters="sRGB">
<feFlood flood-opacity="0" result="BackgroundImageFix"/>
<feColorMatrix in="SourceAlpha" type="matrix" values="0 0 0 0 0 0 0 0 0 0 0 0 0 0 0 0 0 0 127 0" result="hardAlpha"/>
<feOffset/>
<feGaussianBlur stdDeviation="1.5"/>
<feComposite in2="hardAlpha" operator="out"/>
<feColorMatrix type="matrix" values="0 0 0 0 0.988235 0 0 0 0 0.980392 0 0 0 0 0.988235 0 0 0 1 0"/>
<feBlend mode="normal" in2="BackgroundImageFix" result="effect1_dropShadow_391_2317"/>
<feBlend mode="normal" in="SourceGraphic" in2="effect1_dropShadow_391_2317" result="shape"/>
<feColorMatrix in="SourceAlpha" type="matrix" values="0 0 0 0 0 0 0 0 0 0 0 0 0 0 0 0 0 0 127 0" result="hardAlpha"/>
<feOffset dy="0.375"/>
<feGaussianBlur stdDeviation="0.75"/>
<feComposite in2="hardAlpha" operator="arithmetic" k2="-1" k3="1"/>
<feColorMatrix type="matrix" values="0 0 0 0 0.243137 0 0 0 0 0.0862745 0 0 0 0 0.321569 0 0 0 0.24 0"/>
<feBlend mode="normal" in2="shape" result="effect2_innerShadow_391_2317"/>
</filter>
<filter id="filter5_di_391_2317" x="586.943" y="390.679" width="8" height="8" filterUnits="userSpaceOnUse" color-interpolation-filters="sRGB">
<feFlood flood-opacity="0" result="BackgroundImageFix"/>
<feColorMatrix in="SourceAlpha" type="matrix" values="0 0 0 0 0 0 0 0 0 0 0 0 0 0 0 0 0 0 127 0" result="hardAlpha"/>
<feOffset/>
<feGaussianBlur stdDeviation="1.5"/>
<feComposite in2="hardAlpha" operator="out"/>
<feColorMatrix type="matrix" values="0 0 0 0 0.988235 0 0 0 0 0.980392 0 0 0 0 0.988235 0 0 0 1 0"/>
<feBlend mode="normal" in2="BackgroundImageFix" result="effect1_dropShadow_391_2317"/>
<feBlend mode="normal" in="SourceGraphic" in2="effect1_dropShadow_391_2317" result="shape"/>
<feColorMatrix in="SourceAlpha" type="matrix" values="0 0 0 0 0 0 0 0 0 0 0 0 0 0 0 0 0 0 127 0" result="hardAlpha"/>
<feOffset dy="0.375"/>
<feGaussianBlur stdDeviation="0.75"/>
<feComposite in2="hardAlpha" operator="arithmetic" k2="-1" k3="1"/>
<feColorMatrix type="matrix" values="0 0 0 0 0.243137 0 0 0 0 0.0862745 0 0 0 0 0.321569 0 0 0 0.24 0"/>
<feBlend mode="normal" in2="shape" result="effect2_innerShadow_391_2317"/>
</filter>
<filter id="filter6_di_391_2317" x="700.943" y="422.679" width="8" height="8" filterUnits="userSpaceOnUse" color-interpolation-filters="sRGB">
<feFlood flood-opacity="0" result="BackgroundImageFix"/>
<feColorMatrix in="SourceAlpha" type="matrix" values="0 0 0 0 0 0 0 0 0 0 0 0 0 0 0 0 0 0 127 0" result="hardAlpha"/>
<feOffset/>
<feGaussianBlur stdDeviation="1.5"/>
<feComposite in2="hardAlpha" operator="out"/>
<feColorMatrix type="matrix" values="0 0 0 0 0.988235 0 0 0 0 0.980392 0 0 0 0 0.988235 0 0 0 1 0"/>
<feBlend mode="normal" in2="BackgroundImageFix" result="effect1_dropShadow_391_2317"/>
<feBlend mode="normal" in="SourceGraphic" in2="effect1_dropShadow_391_2317" result="shape"/>
<feColorMatrix in="SourceAlpha" type="matrix" values="0 0 0 0 0 0 0 0 0 0 0 0 0 0 0 0 0 0 127 0" result="hardAlpha"/>
<feOffset dy="0.375"/>
<feGaussianBlur stdDeviation="0.75"/>
<feComposite in2="hardAlpha" operator="arithmetic" k2="-1" k3="1"/>
<feColorMatrix type="matrix" values="0 0 0 0 0.243137 0 0 0 0 0.0862745 0 0 0 0 0.321569 0 0 0 0.24 0"/>
<feBlend mode="normal" in2="shape" result="effect2_innerShadow_391_2317"/>
</filter>
<filter id="filter7_di_391_2317" x="1193.94" y="292.679" width="8" height="8" filterUnits="userSpaceOnUse" color-interpolation-filters="sRGB">
<feFlood flood-opacity="0" result="BackgroundImageFix"/>
<feColorMatrix in="SourceAlpha" type="matrix" values="0 0 0 0 0 0 0 0 0 0 0 0 0 0 0 0 0 0 127 0" result="hardAlpha"/>
<feOffset/>
<feGaussianBlur stdDeviation="1.5"/>
<feComposite in2="hardAlpha" operator="out"/>
<feColorMatrix type="matrix" values="0 0 0 0 0.988235 0 0 0 0 0.980392 0 0 0 0 0.988235 0 0 0 1 0"/>
<feBlend mode="normal" in2="BackgroundImageFix" result="effect1_dropShadow_391_2317"/>
<feBlend mode="normal" in="SourceGraphic" in2="effect1_dropShadow_391_2317" result="shape"/>
<feColorMatrix in="SourceAlpha" type="matrix" values="0 0 0 0 0 0 0 0 0 0 0 0 0 0 0 0 0 0 127 0" result="hardAlpha"/>
<feOffset dy="0.375"/>
<feGaussianBlur stdDeviation="0.75"/>
<feComposite in2="hardAlpha" operator="arithmetic" k2="-1" k3="1"/>
<feColorMatrix type="matrix" values="0 0 0 0 0.243137 0 0 0 0 0.0862745 0 0 0 0 0.321569 0 0 0 0.24 0"/>
<feBlend mode="normal" in2="shape" result="effect2_innerShadow_391_2317"/>
</filter>
<filter id="filter8_di_391_2317" x="1154.94" y="211.679" width="8" height="8" filterUnits="userSpaceOnUse" color-interpolation-filters="sRGB">
<feFlood flood-opacity="0" result="BackgroundImageFix"/>
<feColorMatrix in="SourceAlpha" type="matrix" values="0 0 0 0 0 0 0 0 0 0 0 0 0 0 0 0 0 0 127 0" result="hardAlpha"/>
<feOffset/>
<feGaussianBlur stdDeviation="1.5"/>
<feComposite in2="hardAlpha" operator="out"/>
<feColorMatrix type="matrix" values="0 0 0 0 0.988235 0 0 0 0 0.980392 0 0 0 0 0.988235 0 0 0 1 0"/>
<feBlend mode="normal" in2="BackgroundImageFix" result="effect1_dropShadow_391_2317"/>
<feBlend mode="normal" in="SourceGraphic" in2="effect1_dropShadow_391_2317" result="shape"/>
<feColorMatrix in="SourceAlpha" type="matrix" values="0 0 0 0 0 0 0 0 0 0 0 0 0 0 0 0 0 0 127 0" result="hardAlpha"/>
<feOffset dy="0.375"/>
<feGaussianBlur stdDeviation="0.75"/>
<feComposite in2="hardAlpha" operator="arithmetic" k2="-1" k3="1"/>
<feColorMatrix type="matrix" values="0 0 0 0 0.243137 0 0 0 0 0.0862745 0 0 0 0 0.321569 0 0 0 0.24 0"/>
<feBlend mode="normal" in2="shape" result="effect2_innerShadow_391_2317"/>
</filter>
<filter id="filter9_di_391_2317" x="1360.94" y="448.679" width="8" height="8" filterUnits="userSpaceOnUse" color-interpolation-filters="sRGB">
<feFlood flood-opacity="0" result="BackgroundImageFix"/>
<feColorMatrix in="SourceAlpha" type="matrix" values="0 0 0 0 0 0 0 0 0 0 0 0 0 0 0 0 0 0 127 0" result="hardAlpha"/>
<feOffset/>
<feGaussianBlur stdDeviation="1.5"/>
<feComposite in2="hardAlpha" operator="out"/>
<feColorMatrix type="matrix" values="0 0 0 0 0.988235 0 0 0 0 0.980392 0 0 0 0 0.988235 0 0 0 1 0"/>
<feBlend mode="normal" in2="BackgroundImageFix" result="effect1_dropShadow_391_2317"/>
<feBlend mode="normal" in="SourceGraphic" in2="effect1_dropShadow_391_2317" result="shape"/>
<feColorMatrix in="SourceAlpha" type="matrix" values="0 0 0 0 0 0 0 0 0 0 0 0 0 0 0 0 0 0 127 0" result="hardAlpha"/>
<feOffset dy="0.375"/>
<feGaussianBlur stdDeviation="0.75"/>
<feComposite in2="hardAlpha" operator="arithmetic" k2="-1" k3="1"/>
<feColorMatrix type="matrix" values="0 0 0 0 0.243137 0 0 0 0 0.0862745 0 0 0 0 0.321569 0 0 0 0.24 0"/>
<feBlend mode="normal" in2="shape" result="effect2_innerShadow_391_2317"/>
</filter>
<filter id="filter10_di_391_2317" x="1201.94" y="438.679" width="8" height="8" filterUnits="userSpaceOnUse" color-interpolation-filters="sRGB">
<feFlood flood-opacity="0" result="BackgroundImageFix"/>
<feColorMatrix in="SourceAlpha" type="matrix" values="0 0 0 0 0 0 0 0 0 0 0 0 0 0 0 0 0 0 127 0" result="hardAlpha"/>
<feOffset/>
<feGaussianBlur stdDeviation="1.5"/>
<feComposite in2="hardAlpha" operator="out"/>
<feColorMatrix type="matrix" values="0 0 0 0 0.988235 0 0 0 0 0.980392 0 0 0 0 0.988235 0 0 0 1 0"/>
<feBlend mode="normal" in2="BackgroundImageFix" result="effect1_dropShadow_391_2317"/>
<feBlend mode="normal" in="SourceGraphic" in2="effect1_dropShadow_391_2317" result="shape"/>
<feColorMatrix in="SourceAlpha" type="matrix" values="0 0 0 0 0 0 0 0 0 0 0 0 0 0 0 0 0 0 127 0" result="hardAlpha"/>
<feOffset dy="0.375"/>
<feGaussianBlur stdDeviation="0.75"/>
<feComposite in2="hardAlpha" operator="arithmetic" k2="-1" k3="1"/>
<feColorMatrix type="matrix" values="0 0 0 0 0.243137 0 0 0 0 0.0862745 0 0 0 0 0.321569 0 0 0 0.24 0"/>
<feBlend mode="normal" in2="shape" result="effect2_innerShadow_391_2317"/>
</filter>
<filter id="filter11_di_391_2317" x="1596.94" y="325.679" width="8" height="8" filterUnits="userSpaceOnUse" color-interpolation-filters="sRGB">
<feFlood flood-opacity="0" result="BackgroundImageFix"/>
<feColorMatrix in="SourceAlpha" type="matrix" values="0 0 0 0 0 0 0 0 0 0 0 0 0 0 0 0 0 0 127 0" result="hardAlpha"/>
<feOffset/>
<feGaussianBlur stdDeviation="1.5"/>
<feComposite in2="hardAlpha" operator="out"/>
<feColorMatrix type="matrix" values="0 0 0 0 0.988235 0 0 0 0 0.980392 0 0 0 0 0.988235 0 0 0 1 0"/>
<feBlend mode="normal" in2="BackgroundImageFix" result="effect1_dropShadow_391_2317"/>
<feBlend mode="normal" in="SourceGraphic" in2="effect1_dropShadow_391_2317" result="shape"/>
<feColorMatrix in="SourceAlpha" type="matrix" values="0 0 0 0 0 0 0 0 0 0 0 0 0 0 0 0 0 0 127 0" result="hardAlpha"/>
<feOffset dy="0.375"/>
<feGaussianBlur stdDeviation="0.75"/>
<feComposite in2="hardAlpha" operator="arithmetic" k2="-1" k3="1"/>
<feColorMatrix type="matrix" values="0 0 0 0 0.243137 0 0 0 0 0.0862745 0 0 0 0 0.321569 0 0 0 0.24 0"/>
<feBlend mode="normal" in2="shape" result="effect2_innerShadow_391_2317"/>
</filter>
<filter id="filter12_di_391_2317" x="1137.94" y="541.679" width="8" height="8" filterUnits="userSpaceOnUse" color-interpolation-filters="sRGB">
<feFlood flood-opacity="0" result="BackgroundImageFix"/>
<feColorMatrix in="SourceAlpha" type="matrix" values="0 0 0 0 0 0 0 0 0 0 0 0 0 0 0 0 0 0 127 0" result="hardAlpha"/>
<feOffset/>
<feGaussianBlur stdDeviation="1.5"/>
<feComposite in2="hardAlpha" operator="out"/>
<feColorMatrix type="matrix" values="0 0 0 0 0.988235 0 0 0 0 0.980392 0 0 0 0 0.988235 0 0 0 1 0"/>
<feBlend mode="normal" in2="BackgroundImageFix" result="effect1_dropShadow_391_2317"/>
<feBlend mode="normal" in="SourceGraphic" in2="effect1_dropShadow_391_2317" result="shape"/>
<feColorMatrix in="SourceAlpha" type="matrix" values="0 0 0 0 0 0 0 0 0 0 0 0 0 0 0 0 0 0 127 0" result="hardAlpha"/>
<feOffset dy="0.375"/>
<feGaussianBlur stdDeviation="0.75"/>
<feComposite in2="hardAlpha" operator="arithmetic" k2="-1" k3="1"/>
<feColorMatrix type="matrix" values="0 0 0 0 0.243137 0 0 0 0 0.0862745 0 0 0 0 0.321569 0 0 0 0.24 0"/>
<feBlend mode="normal" in2="shape" result="effect2_innerShadow_391_2317"/>
</filter>
</defs>
</svg>
