<svg width="2552" height="876" viewBox="0 0 2552 876" fill="none" className="SVGAbout border" xmlns="http://www.w3.org/2000/svg">
<g id="SVGAboutDown">
<mask id="mask0_346_1497" style={{maskType : "alpha"}} maskUnits="userSpaceOnUse" x="0" y="0" width="2552" height="876">
<path id="Rectangle 1010" d="M2552 876H0V-3.00407e-05H2552V876Z" fill="url(#paint0_linear_346_1497)"/>
</mask>
<g mask="url(#mask0_346_1497)">
<g id="SVGAbout">
<path className="Polygon3" d="M1263.5 516.485L170.143 646.296H2356.86L1263.5 516.485Z" fill="url(#paint1_radial_346_1497)"/>
<path className="Polygon4" d="M1264 526.025L294.052 641.525H2233.95L1264 526.025Z" fill="url(#paint2_radial_346_1497)"/>
<path className="Polygon5" d="M1262.5 547.025L557.122 631.025H1967.88L1262.5 547.025Z" fill="url(#paint3_radial_346_1497)"/>
<path className="Polygon6" d="M1262 565.025L780.49 622.025H1743.51L1262 565.025Z" fill="url(#paint4_radial_346_1497)"/>
<path className="Polygon7" d="M1264 587.025L1116.78 656.775H1411.22L1264 587.025Z" fill="url(#paint5_linear_346_1497)"/>
<path className="Polygon8" d="M1263.5 565.025L975.547 634.775H1551.45L1263.5 565.025Z" fill="url(#paint6_linear_346_1497)"/>
<path className="Polygon9" d="M1309.5 565.025L1021.55 634.775H1597.45L1309.5 565.025Z" fill="url(#paint7_linear_346_1497)"/>
<path className="Polygon13" d="M1485.5 557.025L1197.55 626.775H1773.45L1485.5 557.025Z" fill="url(#paint8_linear_346_1497)"/>
<path className="Polygon15" d="M1276.5 234.053L29.8564 774.013H2523.14L1276.5 234.053Z" fill="url(#paint9_radial_346_1497)"/>
<path className="Polygon14" d="M1038.5 557.025L1326.45 626.775H750.547L1038.5 557.025Z" fill="url(#paint10_linear_346_1497)"/>
<path className="Polygon10" d="M1113.5 566.025L1401.45 635.775H825.547L1113.5 566.025Z" fill="url(#paint11_linear_346_1497)"/>
<path className="Polygon17" d="M1153 507.025L1602.47 618.025H703.533L1153 507.025Z" fill="url(#paint12_linear_346_1497)"/>
<path className="Polygon11" d="M990.5 566.025L1278.45 635.775H702.547L990.5 566.025Z" fill="url(#paint13_linear_346_1497)"/>
<path className="Polygon12" d="M1546.5 565.025L1258.55 634.775H1834.45L1546.5 565.025Z" fill="url(#paint14_linear_346_1497)"/>
<path className="Polygon16" d="M1526 564.025L1010.71 633.775H2041.29L1526 564.025Z" fill="url(#paint15_linear_346_1497)"/>
<g id="Vector 50" filter="url(#filter0_f_346_1497)">
<path d="M2359 674.774L1676.29 496.715M2204.08 674.774L1617.06 496.715M2043.4 674.774L1569.58 504.196M1887.65 674.774L1492.87 496.715M1730.26 674.774L1424.09 496.715M1569.58 674.774L1349.58 496.715M1414.66 674.774L1297.35 494.72M1253.97 674.774V504.196M1094.11 674.774L1199.28 494.72M936.72 674.774L1157.88 488.734M779.329 674.774L1117.12 480.255M622.763 674.774L1070.63 480.255M465.373 674.774C469.328 674.774 905.492 513.874 1022.23 480.255M307.983 674.774L974.466 472.774M144 674.774L913.327 480.255M144 628.072C1008.32 660.815 1492.97 660.74 2359 628.072M279.014 594.785C995.328 628.231 1510.95 627.612 2231.63 594.785M465.373 563.485C1001.72 597.953 1480.78 596.622 2063.5 563.485M1941.22 528.137C1516.96 566.015 1045.79 573.026 647.12 528.137" stroke="url(#paint16_linear_346_1497)"/>
</g>
<circle id="Ellipse 175" cx="0.5" cy="0.5" r="0.5" transform="matrix(-1 0 0 1 1649.69 521.025)" fill="#FCFAFC"/>
<circle id="Ellipse 176" cx="0.5" cy="0.5" r="0.5" transform="matrix(-1 0 0 1 1601.69 404.025)" fill="#FCFAFC"/>
<circle id="Ellipse 177" cx="0.5" cy="0.5" r="0.5" transform="matrix(-1 0 0 1 1545.69 363.025)" fill="#FCFAFC"/>
<circle id="Ellipse 178" cx="0.5" cy="0.5" r="0.5" transform="matrix(-1 0 0 1 1763.69 396.025)" fill="#FCFAFC"/>
<circle id="Ellipse 179" cx="0.5" cy="0.5" r="0.5" transform="matrix(-1 0 0 1 1329.69 515.025)" fill="#FCFAFC"/>
<circle id="Ellipse 180" cx="0.5" cy="0.5" r="0.5" transform="matrix(-1 0 0 1 1268.69 563.025)" fill="#FCFAFC"/>
<circle id="Ellipse 181" cx="0.5" cy="0.5" r="0.5" transform="matrix(-1 0 0 1 1446.69 497.025)" fill="#FCFAFC"/>
<circle id="Ellipse 244" cx="504.292" cy="654.117" r="1.5" transform="rotate(-49.0176 504.292 654.117)" fill="#FCFAFC"/>
<circle id="Ellipse 249" cx="488.045" cy="446.631" r="1.5" transform="rotate(-49.0176 488.045 446.631)" fill="#FCFAFC"/>
<circle id="Ellipse 252" cx="568.025" cy="465.115" r="1" transform="rotate(-49.0176 568.025 465.115)" fill="#FCFAFC"/>
<circle id="Ellipse 254" cx="584.7" cy="551.132" r="1" transform="rotate(-49.0176 584.7 551.132)" fill="#FCFAFC"/>
<circle id="Ellipse 255" cx="375.811" cy="564.386" r="1" transform="rotate(-49.0176 375.811 564.386)" fill="#FCFAFC"/>
<circle id="Ellipse 182" cx="0.5" cy="0.5" r="0.5" transform="matrix(-1 0 0 1 1742.69 492.025)" fill="#FCFAFC"/>
<circle id="Ellipse 183" cx="0.5" cy="0.5" r="0.5" transform="matrix(-1 0 0 1 1709.69 497.025)" fill="#FCFAFC"/>
<circle id="Ellipse 184" cx="0.5" cy="0.5" r="0.5" transform="matrix(-1 0 0 1 1583.69 461.025)" fill="#FCFAFC"/>
<circle id="Ellipse 185" cx="0.5" cy="0.5" r="0.5" transform="matrix(-1 0 0 1 1831.69 633.025)" fill="#FCFAFC"/>
<circle id="Ellipse 186" cx="0.5" cy="0.5" r="0.5" transform="matrix(-1 0 0 1 1881.69 557.025)" fill="#FCFAFC"/>
<circle id="Ellipse 187" cx="0.5" cy="0.5" r="0.5" transform="matrix(-1 0 0 1 1824.69 496.025)" fill="#FCFAFC"/>
<circle id="Ellipse 188" cx="1.5" cy="1.5" r="1.5" transform="matrix(-0.655827 -0.754911 -0.754911 0.655827 2018.22 697.29)" fill="#FCFAFC"/>
<circle id="Ellipse 189" cx="1.5" cy="1.5" r="1.5" transform="matrix(-0.655827 -0.754911 -0.754911 0.655827 1719.22 466.955)" fill="#FCFAFC"/>
<circle id="Ellipse 190" cx="1.5" cy="1.5" r="1.5" transform="matrix(0.5583 0.829639 0.829639 -0.5583 1198.4 588.763)" fill="#FCFAFC"/>
<circle id="Ellipse 191" cx="1.5" cy="1.5" r="1.5" transform="matrix(0.5583 0.829639 0.829639 -0.5583 1305.77 533.382)" fill="#FCFAFC"/>
<circle id="Ellipse 192" cx="1.5" cy="1.5" r="1.5" transform="matrix(0.5583 0.829639 0.829639 -0.5583 1362.4 479.607)" fill="#FCFAFC"/>
<circle id="Ellipse 193" cx="1.5" cy="1.5" r="1.5" transform="matrix(-0.655827 -0.754911 -0.754911 0.655827 2034.47 489.805)" fill="#FCFAFC"/>
<circle id="Ellipse 194" cx="1.5" cy="1.5" r="1.5" transform="matrix(-0.655827 -0.754911 -0.754911 0.655827 1867.63 503.605)" fill="#FCFAFC"/>
<circle id="Ellipse 195" cx="1" cy="1" r="1" transform="matrix(0.5583 0.829639 0.829639 -0.5583 1264.18 536.059)" fill="#FCFAFC"/>
<circle id="Ellipse 196" cx="1" cy="1" r="1" transform="matrix(-0.655827 -0.754911 -0.754911 0.655827 1953.79 508.239)" fill="#FCFAFC"/>
<circle id="Ellipse 197" cx="1" cy="1" r="1" transform="matrix(0.5583 0.829639 0.829639 -0.5583 1276.44 421.736)" fill="#FCFAFC"/>
<circle id="Ellipse 198" cx="1" cy="1" r="1" transform="matrix(-0.655827 -0.754911 -0.754911 0.655827 1937.11 594.256)" fill="#FCFAFC"/>
<circle id="Ellipse 199" cx="1" cy="1" r="1" transform="matrix(-0.655827 -0.754911 -0.754911 0.655827 2146 607.51)" fill="#FCFAFC"/>
<circle id="Ellipse 200" cx="1" cy="1" r="1" transform="matrix(0.5583 0.829639 0.829639 -0.5583 1343.13 578.151)" fill="#FCFAFC"/>
<circle id="Ellipse 201" cx="1" cy="1" r="1" transform="matrix(-0.655827 -0.754911 -0.754911 0.655827 1882.54 412.502)" fill="#FCFAFC"/>
<circle id="Ellipse 202" cx="1" cy="1" r="1" transform="matrix(-0.655827 -0.754911 -0.754911 0.655827 1718.9 532.146)" fill="#FCFAFC"/>
<circle id="Ellipse 203" cx="1278.19" cy="605.758" r="0.5" transform="rotate(-180 1278.19 605.758)" fill="#FCFAFC"/>
<circle id="Ellipse 204" cx="1230.19" cy="722.758" r="0.5" transform="rotate(-180 1230.19 722.758)" fill="#FCFAFC"/>
<circle id="Ellipse 205" cx="1174.19" cy="763.758" r="0.5" transform="rotate(-180 1174.19 763.758)" fill="#FCFAFC"/>
<circle id="Ellipse 206" cx="1392.19" cy="730.758" r="0.5" transform="rotate(-180 1392.19 730.758)" fill="#FCFAFC"/>
<circle id="Ellipse 207" cx="958.192" cy="611.758" r="0.5" transform="rotate(-180 958.192 611.758)" fill="#FCFAFC"/>
<circle id="Ellipse 208" cx="897.192" cy="563.759" r="0.5" transform="rotate(-180 897.192 563.759)" fill="#FCFAFC"/>
<circle id="Ellipse 209" cx="1075.19" cy="629.758" r="0.5" transform="rotate(-180 1075.19 629.758)" fill="#FCFAFC"/>
<circle id="Ellipse 210" cx="1371.19" cy="634.758" r="0.5" transform="rotate(-180 1371.19 634.758)" fill="#FCFAFC"/>
<circle id="Ellipse 211" cx="1338.19" cy="629.758" r="0.5" transform="rotate(-180 1338.19 629.758)" fill="#FCFAFC"/>
<circle id="Ellipse 212" cx="1212.19" cy="665.758" r="0.5" transform="rotate(-180 1212.19 665.758)" fill="#FCFAFC"/>
<circle id="Ellipse 213" cx="1460.19" cy="493.759" r="0.5" transform="rotate(-180 1460.19 493.759)" fill="#FCFAFC"/>
<circle id="Ellipse 214" cx="1510.19" cy="569.758" r="0.5" transform="rotate(-180 1510.19 569.758)" fill="#FCFAFC"/>
<circle id="Ellipse 215" cx="1453.19" cy="630.758" r="0.5" transform="rotate(-180 1453.19 630.758)" fill="#FCFAFC"/>
<circle id="Ellipse 216" cx="1645.11" cy="430.142" r="1.5" transform="rotate(130.982 1645.11 430.142)" fill="#FCFAFC"/>
<circle id="Ellipse 217" cx="1346.11" cy="660.477" r="1.5" transform="rotate(130.982 1346.11 660.477)" fill="#FCFAFC"/>
<circle id="Ellipse 218" cx="829.482" cy="538.114" r="1.5" transform="rotate(-56.0617 829.482 538.114)" fill="#FCFAFC"/>
<circle id="Ellipse 219" cx="936.854" cy="593.495" r="1.5" transform="rotate(-56.0617 936.854 593.495)" fill="#FCFAFC"/>
<circle id="Ellipse 220" cx="993.478" cy="647.269" r="1.5" transform="rotate(-56.0617 993.478 647.269)" fill="#FCFAFC"/>
<circle id="Ellipse 221" cx="1661.36" cy="637.628" r="1.5" transform="rotate(130.982 1661.36 637.628)" fill="#FCFAFC"/>
<circle id="Ellipse 222" cx="1494.52" cy="623.827" r="1.5" transform="rotate(130.982 1494.52 623.827)" fill="#FCFAFC"/>
<circle id="Ellipse 223" cx="894.57" cy="590.954" r="1" transform="rotate(-56.0617 894.57 590.954)" fill="#FCFAFC"/>
<circle id="Ellipse 224" cx="1581.38" cy="619.143" r="1" transform="rotate(130.982 1581.38 619.143)" fill="#FCFAFC"/>
<circle id="Ellipse 225" cx="906.832" cy="705.276" r="1" transform="rotate(-56.0617 906.832 705.276)" fill="#FCFAFC"/>
<circle id="Ellipse 226" cx="1564.7" cy="533.126" r="1" transform="rotate(130.982 1564.7 533.126)" fill="#FCFAFC"/>
<circle id="Ellipse 227" cx="1773.59" cy="519.872" r="1" transform="rotate(130.982 1773.59 519.872)" fill="#FCFAFC"/>
<circle id="Ellipse 228" cx="973.52" cy="548.86" r="1" transform="rotate(-56.0617 973.52 548.86)" fill="#FCFAFC"/>
<circle id="Ellipse 229" cx="1510.13" cy="714.881" r="1" transform="rotate(130.982 1510.13 714.881)" fill="#FCFAFC"/>
<circle id="Ellipse 230" cx="1346.48" cy="595.236" r="1" transform="rotate(130.982 1346.48 595.236)" fill="#FCFAFC"/>
<circle id="Ellipse 231" cx="871.208" cy="599.525" r="0.5" fill="#FCFAFC"/>
<circle id="Ellipse 232" cx="919.208" cy="482.525" r="0.5" fill="#FCFAFC"/>
<circle id="Ellipse 233" cx="975.208" cy="441.525" r="0.5" fill="#FCFAFC"/>
<circle id="Ellipse 234" cx="757.208" cy="474.525" r="0.5" fill="#FCFAFC"/>
<circle id="Ellipse 235" cx="1191.21" cy="593.525" r="0.5" fill="#FCFAFC"/>
<circle id="Ellipse 236" cx="1252.21" cy="641.525" r="0.5" fill="#FCFAFC"/>
<circle id="Ellipse 237" cx="1074.21" cy="575.525" r="0.5" fill="#FCFAFC"/>
<circle id="Ellipse 238" cx="778.208" cy="570.525" r="0.5" fill="#FCFAFC"/>
<circle id="Ellipse 239" cx="811.208" cy="575.525" r="0.5" fill="#FCFAFC"/>
<circle id="Ellipse 240" cx="937.208" cy="539.525" r="0.5" fill="#FCFAFC"/>
<circle id="Ellipse 241" cx="689.208" cy="711.525" r="0.5" fill="#FCFAFC"/>
<circle id="Ellipse 242" cx="639.208" cy="635.525" r="0.5" fill="#FCFAFC"/>
<circle id="Ellipse 243" cx="696.208" cy="574.525" r="0.5" fill="#FCFAFC"/>
<circle id="Ellipse 245" cx="803.295" cy="544.806" r="1.5" transform="rotate(-49.0176 803.295 544.806)" fill="#FCFAFC"/>
<circle id="Ellipse 246" cx="1319.92" cy="667.17" r="1.5" transform="rotate(123.938 1319.92 667.17)" fill="#FCFAFC"/>
<circle id="Ellipse 247" cx="1212.55" cy="611.789" r="1.5" transform="rotate(123.938 1212.55 611.789)" fill="#FCFAFC"/>
<circle id="Ellipse 248" cx="1155.92" cy="558.014" r="1.5" transform="rotate(123.938 1155.92 558.014)" fill="#FCFAFC"/>
<circle id="Ellipse 250" cx="654.885" cy="581.457" r="1.5" transform="rotate(-49.0176 654.885 581.457)" fill="#FCFAFC"/>
<circle id="Ellipse 251" cx="1254.83" cy="614.33" r="1" transform="rotate(123.938 1254.83 614.33)" fill="#FCFAFC"/>
<circle id="Ellipse 253" cx="1242.57" cy="500.008" r="1" transform="rotate(123.938 1242.57 500.008)" fill="#FCFAFC"/>
<circle id="Ellipse 256" cx="1175.88" cy="656.423" r="1" transform="rotate(123.938 1175.88 656.423)" fill="#FCFAFC"/>
<circle id="Ellipse 257" cx="639.274" cy="490.403" r="1" transform="rotate(-49.0176 639.274 490.403)" fill="#FCFAFC"/>
<circle id="Ellipse 258" cx="802.916" cy="610.047" r="1" transform="rotate(-49.0176 802.916 610.047)" fill="#FCFAFC"/>
<g id="vectorAnimation">
<path className="vectorAnimation2" d="M1254 721V398" stroke="url(#paint17_linear_346_1497)" stroke-width="2"/>
<path className="vectorAnimation1" d="M1601.59 700.062L1325 476" stroke="url(#paint18_linear_346_1497)" stroke-width="2"/>
<path className="vectorAnimation3" d="M576.171 692.669L1053.97 489.073" stroke="url(#paint19_linear_346_1497)" stroke-width="2"/>
<path className="vectorAnimation4" d="M2130.01 654.49L1636.99 503.557" stroke="url(#paint20_linear_346_1497)" stroke-width="2"/>
<path className="vectorAnimation5" d="M850.596 741.544L1159.93 488.839" stroke="url(#paint21_linear_346_1497)" stroke-width="2"/>
</g>
</g>
</g>
</g>
<defs>
<filter id="filter0_f_346_1497" x="142.877" y="471.295" width="2217.25" height="204.979" filterUnits="userSpaceOnUse" color-interpolation-filters="sRGB">
<feFlood flood-opacity="0" result="BackgroundImageFix"/>
<feBlend mode="normal" in="SourceGraphic" in2="BackgroundImageFix" result="shape"/>
<feGaussianBlur stdDeviation="0.5" result="effect1_foregroundBlur_346_1497"/>
</filter>
<linearGradient id="paint0_linear_346_1497" x1="1276" y1="876" x2="1276" y2="0" gradientUnits="userSpaceOnUse">
<stop stop-color="#050305" stop-opacity="0"/>
<stop offset="0.214611" stop-color="white"/>
<stop offset="0.405908" stop-color="white"/>
<stop offset="0.770833" stop-color="white" stop-opacity="0.72"/>
<stop offset="1" stop-color="#050305" stop-opacity="0"/>
</linearGradient>
<radialGradient id="paint1_radial_346_1497" cx="0" cy="0" r="1" gradientUnits="userSpaceOnUse" gradientTransform="translate(1263.5 603.025) rotate(90) scale(86.5405 1262.5)">
<stop stop-color="#22B9F4" stop-opacity="0.32"/>
<stop offset="1" stop-color="#0490D6"/>
</radialGradient>
<radialGradient id="paint2_radial_346_1497" cx="0" cy="0" r="1" gradientUnits="userSpaceOnUse" gradientTransform="translate(1264 603.025) rotate(90.6993) scale(53.0112 770.978)">
<stop stop-color="#8F3FBC"/>
<stop offset="0.598958" stop-color="#27125E"/>
</radialGradient>
<radialGradient id="paint3_radial_346_1497" cx="0" cy="0" r="1" gradientUnits="userSpaceOnUse" gradientTransform="translate(1262.5 603.025) rotate(90.6993) scale(38.5536 560.68)">
<stop stop-color="#C679D4"/>
<stop offset="0.598958" stop-color="#6A34A7"/>
</radialGradient>
<radialGradient id="paint4_radial_346_1497" cx="0" cy="0" r="1" gradientUnits="userSpaceOnUse" gradientTransform="translate(1262 603.025) rotate(90.7035) scale(26.1614 382.735)">
<stop stop-color="#C977DB"/>
<stop offset="0.598958" stop-color="#7D35B2"/>
</radialGradient>
<linearGradient id="paint5_linear_346_1497" x1="1263.71" y1="558.95" x2="1266.07" y2="679.979" gradientUnits="userSpaceOnUse">
<stop stop-color="#FCFAFC"/>
<stop offset="1" stop-color="#FCFAFC" stop-opacity="0"/>
</linearGradient>
<linearGradient id="paint6_linear_346_1497" x1="1262.94" y1="536.95" x2="1264.15" y2="658.013" gradientUnits="userSpaceOnUse">
<stop stop-color="#FCFAFC"/>
<stop offset="1" stop-color="#FCFAFC" stop-opacity="0"/>
</linearGradient>
<linearGradient id="paint7_linear_346_1497" x1="1309.5" y1="542.525" x2="1134.9" y2="703.106" gradientUnits="userSpaceOnUse">
<stop stop-color="#841AB0"/>
<stop offset="1" stop-color="#FCFAFC" stop-opacity="0"/>
</linearGradient>
<linearGradient id="paint8_linear_346_1497" x1="1616.82" y1="531.525" x2="1307.47" y2="714.369" gradientUnits="userSpaceOnUse">
<stop stop-color="#3E1652" stop-opacity="0.32"/>
<stop offset="1" stop-color="#AB40D6" stop-opacity="0.64"/>
</linearGradient>
<radialGradient id="paint9_radial_346_1497" cx="0" cy="0" r="1" gradientUnits="userSpaceOnUse" gradientTransform="translate(1093.06 495.324) rotate(90.9012) scale(286.014 1140.84)">
<stop stop-color="#3E1652" stop-opacity="0"/>
<stop offset="1" stop-color="#3E1652"/>
</radialGradient>
<linearGradient id="paint10_linear_346_1497" x1="907.182" y1="531.525" x2="1216.53" y2="714.369" gradientUnits="userSpaceOnUse">
<stop stop-color="#3E1652" stop-opacity="0.32"/>
<stop offset="1" stop-color="#AB40D6" stop-opacity="0.64"/>
</linearGradient>
<linearGradient id="paint11_linear_346_1497" x1="1113.5" y1="543.525" x2="1288.1" y2="704.106" gradientUnits="userSpaceOnUse">
<stop stop-color="#841AB0"/>
<stop offset="1" stop-color="#FCFAFC" stop-opacity="0"/>
</linearGradient>
<linearGradient id="paint12_linear_346_1497" x1="1153" y1="471.219" x2="1430.36" y2="721.418" gradientUnits="userSpaceOnUse">
<stop stop-color="#841AB0"/>
<stop offset="1" stop-color="#FCFAFC" stop-opacity="0"/>
</linearGradient>
<linearGradient id="paint13_linear_346_1497" x1="990.5" y1="543.525" x2="1165.1" y2="704.106" gradientUnits="userSpaceOnUse">
<stop stop-color="#0490D6" stop-opacity="0.64"/>
<stop offset="1" stop-color="#FCFAFC" stop-opacity="0"/>
</linearGradient>
<linearGradient id="paint14_linear_346_1497" x1="1546.5" y1="542.525" x2="1371.9" y2="703.106" gradientUnits="userSpaceOnUse">
<stop stop-color="#0490D6" stop-opacity="0.64"/>
<stop offset="1" stop-color="#FCFAFC" stop-opacity="0"/>
</linearGradient>
<linearGradient id="paint15_linear_346_1497" x1="1526" y1="541.525" x2="1370.49" y2="797.46" gradientUnits="userSpaceOnUse">
<stop stop-color="#0490D6" stop-opacity="0.64"/>
<stop offset="1" stop-color="#FCFAFC" stop-opacity="0"/>
</linearGradient>
<linearGradient id="paint16_linear_346_1497" x1="1250.86" y1="506.69" x2="1250.86" y2="674.774" gradientUnits="userSpaceOnUse">
<stop stop-color="#FCFAFC" stop-opacity="0"/>
<stop offset="0.456354" stop-color="#FCFAFC"/>
<stop offset="1" stop-color="#FCFAFC" stop-opacity="0"/>
</linearGradient>
<linearGradient id="paint17_linear_346_1497" x1="1253.5" y1="632.757" x2="1253.45" y2="479.668" gradientUnits="userSpaceOnUse">
<stop stop-color="#FCFAFC" stop-opacity="0"/>
<stop offset="0.456354" stop-color="#FCFAFC"/>
<stop offset="1" stop-color="#FCFAFC" stop-opacity="0"/>
</linearGradient>
<linearGradient id="paint18_linear_346_1497" x1="1474.99" y1="673.477" x2="1445.52" y2="459.409" gradientUnits="userSpaceOnUse">
<stop stop-color="#FCFAFC" stop-opacity="0"/>
<stop offset="0.456354" stop-color="#FCFAFC"/>
<stop offset="1" stop-color="#FCFAFC" stop-opacity="0"/>
</linearGradient>
<linearGradient id="paint19_linear_346_1497" x1="812.216" y1="664.258" x2="819.029" y2="480.369" gradientUnits="userSpaceOnUse">
<stop stop-color="#FCFAFC" stop-opacity="0"/>
<stop offset="0.456354" stop-color="#FCFAFC"/>
<stop offset="1" stop-color="#FCFAFC" stop-opacity="0"/>
</linearGradient>
<linearGradient id="paint20_linear_346_1497" x1="1863.52" y1="644.107" x2="1860.04" y2="508.103" gradientUnits="userSpaceOnUse">
<stop stop-color="#FCFAFC" stop-opacity="0"/>
<stop offset="0.456354" stop-color="#FCFAFC"/>
<stop offset="1" stop-color="#FCFAFC" stop-opacity="0"/>
</linearGradient>
<linearGradient id="paint21_linear_346_1497" x1="1009.57" y1="693.068" x2="998.549" y2="497.956" gradientUnits="userSpaceOnUse">
<stop stop-color="#FCFAFC" stop-opacity="0"/>
<stop offset="0.456354" stop-color="#FCFAFC"/>
<stop offset="1" stop-color="#FCFAFC" stop-opacity="0"/>
</linearGradient>
</defs>
</svg>
