<svg width="2552" height="876" viewBox="0 0 2552 876" fill="none" className="SVGAbout" xmlns="http://www.w3.org/2000/svg">
<g id="SVGAboutUp">
<mask id="mask0_336_1496" style={{maskType : "alpha"}} maskUnits="userSpaceOnUse" x="0" y="0" width="2552" height="876">
<path id="Rectangle 1010" d="M0 0H2552V876H0V0Z" fill="url(#paint0_linear_336_1496)"/>
</mask>
<g mask="url(#mask0_336_1496)">
<g id="SVGAbout">
<path id="Polygon3" d="M1288.5 359.515L2381.86 229.704H195.143L1288.5 359.515Z" fill="url(#paint1_radial_336_1496)"/>
<path id="Polygon4" d="M1288 349.975L2257.95 234.475H318.052L1288 349.975Z" fill="url(#paint2_radial_336_1496)"/>
<path id="Polygon5" d="M1289.5 328.975L1994.88 244.975H584.122L1289.5 328.975Z" fill="url(#paint3_radial_336_1496)"/>
<path id="Polygon6" d="M1290 310.975L1771.51 253.975H808.49L1290 310.975Z" fill="url(#paint4_radial_336_1496)"/>
<path id="Polygon7" d="M1288 288.975L1435.22 219.225H1140.78L1288 288.975Z" fill="url(#paint5_linear_336_1496)"/>
<path id="Polygon8" d="M1288.5 310.975L1576.45 241.225H1000.55L1288.5 310.975Z" fill="url(#paint6_linear_336_1496)"/>
<path id="Polygon9" d="M1242.5 310.975L1530.45 241.225H954.547L1242.5 310.975Z" fill="url(#paint7_linear_336_1496)"/>
<path id="Polygon13" d="M1066.5 318.975L1354.45 249.225H778.547L1066.5 318.975Z" fill="url(#paint8_linear_336_1496)"/>
<path id="Polygon15" d="M1275.5 641.947L2522.14 101.987H28.8564L1275.5 641.947Z" fill="url(#paint9_radial_336_1496)"/>
<path id="Polygon14" d="M1513.5 318.975L1225.55 249.225H1801.45L1513.5 318.975Z" fill="url(#paint10_linear_336_1496)"/>
<path id="Polygon10" d="M1438.5 309.975L1150.55 240.225H1726.45L1438.5 309.975Z" fill="url(#paint11_linear_336_1496)"/>
<path id="Polygon17" d="M1399 368.975L949.533 257.975H1848.47L1399 368.975Z" fill="url(#paint12_linear_336_1496)"/>
<path id="Polygon11" d="M1561.5 309.975L1273.55 240.225H1849.45L1561.5 309.975Z" fill="url(#paint13_linear_336_1496)"/>
<path id="Polygon12" d="M1005.5 310.975L1293.45 241.225H717.547L1005.5 310.975Z" fill="url(#paint14_linear_336_1496)"/>
<path id="Polygon16" d="M1026 311.975L1541.29 242.225H510.715L1026 311.975Z" fill="url(#paint15_linear_336_1496)"/>
<g id="Vector 50" filter="url(#filter0_f_336_1496)">
<path d="M193 201.226L875.714 379.285M347.918 201.226L934.942 379.285M508.605 201.226L982.423 371.804M664.347 201.226L1059.13 379.285M821.737 201.226L1127.91 379.285M982.423 201.226L1202.42 379.285M1137.34 201.226L1254.65 381.28M1298.03 201.226V371.804M1457.89 201.226L1352.72 381.28M1615.28 201.226L1394.12 387.266M1772.67 201.226L1434.88 395.745M1929.24 201.226L1481.37 395.745M2086.63 201.226C2082.67 201.226 1646.51 362.126 1529.77 395.745M2244.02 201.226L1577.53 403.226M2408 201.226L1638.67 395.745M2408 247.928C1543.68 215.185 1059.03 215.26 193 247.928M2272.99 281.215C1556.67 247.769 1041.05 248.388 320.372 281.215M2086.63 312.515C1550.28 278.047 1071.22 279.378 488.503 312.515M610.78 347.863C1035.04 309.985 1506.21 302.974 1904.88 347.863" stroke="url(#paint16_linear_336_1496)"/>
</g>
<circle id="Ellipse 175" cx="0.5" cy="0.5" r="0.5" transform="matrix(1 0 0 -1 902.308 354.975)" fill="#FCFAFC"/>
<circle id="Ellipse 176" cx="0.5" cy="0.5" r="0.5" transform="matrix(1 0 0 -1 950.308 471.975)" fill="#FCFAFC"/>
<circle id="Ellipse 177" cx="0.5" cy="0.5" r="0.5" transform="matrix(1 0 0 -1 1006.31 512.975)" fill="#FCFAFC"/>
<circle id="Ellipse 178" cx="0.5" cy="0.5" r="0.5" transform="matrix(1 0 0 -1 788.308 479.975)" fill="#FCFAFC"/>
<circle id="Ellipse 179" cx="0.5" cy="0.5" r="0.5" transform="matrix(1 0 0 -1 1222.31 360.975)" fill="#FCFAFC"/>
<circle id="Ellipse 180" cx="0.5" cy="0.5" r="0.5" transform="matrix(1 0 0 -1 1283.31 312.975)" fill="#FCFAFC"/>
<circle id="Ellipse 181" cx="0.5" cy="0.5" r="0.5" transform="matrix(1 0 0 -1 1105.31 378.975)" fill="#FCFAFC"/>
<circle id="Ellipse 244" cx="2047.71" cy="221.883" r="1.5" transform="rotate(130.982 2047.71 221.883)" fill="#FCFAFC"/>
<circle id="Ellipse 249" cx="2063.96" cy="429.369" r="1.5" transform="rotate(130.982 2063.96 429.369)" fill="#FCFAFC"/>
<circle id="Ellipse 252" cx="1983.97" cy="410.885" r="1" transform="rotate(130.982 1983.97 410.885)" fill="#FCFAFC"/>
<circle id="Ellipse 254" cx="1967.3" cy="324.868" r="1" transform="rotate(130.982 1967.3 324.868)" fill="#FCFAFC"/>
<circle id="Ellipse 255" cx="2176.19" cy="311.614" r="1" transform="rotate(130.982 2176.19 311.614)" fill="#FCFAFC"/>
<circle id="Ellipse 182" cx="0.5" cy="0.5" r="0.5" transform="matrix(1 0 0 -1 809.308 383.975)" fill="#FCFAFC"/>
<circle id="Ellipse 183" cx="0.5" cy="0.5" r="0.5" transform="matrix(1 0 0 -1 842.308 378.975)" fill="#FCFAFC"/>
<circle id="Ellipse 184" cx="0.5" cy="0.5" r="0.5" transform="matrix(1 0 0 -1 968.308 414.975)" fill="#FCFAFC"/>
<circle id="Ellipse 185" cx="0.5" cy="0.5" r="0.5" transform="matrix(1 0 0 -1 720.308 242.975)" fill="#FCFAFC"/>
<circle id="Ellipse 186" cx="0.5" cy="0.5" r="0.5" transform="matrix(1 0 0 -1 670.308 318.975)" fill="#FCFAFC"/>
<circle id="Ellipse 187" cx="0.5" cy="0.5" r="0.5" transform="matrix(1 0 0 -1 727.308 379.975)" fill="#FCFAFC"/>
<circle id="Ellipse 188" cx="1.5" cy="1.5" r="1.5" transform="matrix(0.655827 0.754911 0.754911 -0.655827 533.775 178.71)" fill="#FCFAFC"/>
<circle id="Ellipse 189" cx="1.5" cy="1.5" r="1.5" transform="matrix(0.655827 0.754911 0.754911 -0.655827 832.778 409.045)" fill="#FCFAFC"/>
<circle id="Ellipse 190" cx="1.5" cy="1.5" r="1.5" transform="matrix(-0.5583 -0.829639 -0.829639 0.5583 1353.6 287.237)" fill="#FCFAFC"/>
<circle id="Ellipse 191" cx="1.5" cy="1.5" r="1.5" transform="matrix(-0.5583 -0.829639 -0.829639 0.5583 1246.23 342.618)" fill="#FCFAFC"/>
<circle id="Ellipse 192" cx="1.5" cy="1.5" r="1.5" transform="matrix(-0.5583 -0.829639 -0.829639 0.5583 1189.6 396.393)" fill="#FCFAFC"/>
<circle id="Ellipse 193" cx="1.5" cy="1.5" r="1.5" transform="matrix(0.655827 0.754911 0.754911 -0.655827 517.528 386.195)" fill="#FCFAFC"/>
<circle id="Ellipse 194" cx="1.5" cy="1.5" r="1.5" transform="matrix(0.655827 0.754911 0.754911 -0.655827 684.368 372.395)" fill="#FCFAFC"/>
<circle id="Ellipse 195" cx="1" cy="1" r="1" transform="matrix(-0.5583 -0.829639 -0.829639 0.5583 1287.82 339.941)" fill="#FCFAFC"/>
<circle id="Ellipse 196" cx="1" cy="1" r="1" transform="matrix(0.655827 0.754911 0.754911 -0.655827 598.214 367.761)" fill="#FCFAFC"/>
<circle id="Ellipse 197" cx="1" cy="1" r="1" transform="matrix(-0.5583 -0.829639 -0.829639 0.5583 1275.56 454.264)" fill="#FCFAFC"/>
<circle id="Ellipse 198" cx="1" cy="1" r="1" transform="matrix(0.655827 0.754911 0.754911 -0.655827 614.889 281.744)" fill="#FCFAFC"/>
<circle id="Ellipse 199" cx="1" cy="1" r="1" transform="matrix(0.655827 0.754911 0.754911 -0.655827 406 268.49)" fill="#FCFAFC"/>
<circle id="Ellipse 200" cx="1" cy="1" r="1" transform="matrix(-0.5583 -0.829639 -0.829639 0.5583 1208.87 297.849)" fill="#FCFAFC"/>
<circle id="Ellipse 201" cx="1" cy="1" r="1" transform="matrix(0.655827 0.754911 0.754911 -0.655827 669.463 463.498)" fill="#FCFAFC"/>
<circle id="Ellipse 202" cx="1" cy="1" r="1" transform="matrix(0.655827 0.754911 0.754911 -0.655827 833.104 343.854)" fill="#FCFAFC"/>
<circle id="Ellipse 203" cx="1273.81" cy="270.242" r="0.5" fill="#FCFAFC"/>
<circle id="Ellipse 204" cx="1321.81" cy="153.242" r="0.5" fill="#FCFAFC"/>
<circle id="Ellipse 205" cx="1377.81" cy="112.242" r="0.5" fill="#FCFAFC"/>
<circle id="Ellipse 206" cx="1159.81" cy="145.242" r="0.5" fill="#FCFAFC"/>
<circle id="Ellipse 207" cx="1593.81" cy="264.242" r="0.5" fill="#FCFAFC"/>
<circle id="Ellipse 208" cx="1654.81" cy="312.241" r="0.5" fill="#FCFAFC"/>
<circle id="Ellipse 209" cx="1476.81" cy="246.242" r="0.5" fill="#FCFAFC"/>
<circle id="Ellipse 210" cx="1180.81" cy="241.242" r="0.5" fill="#FCFAFC"/>
<circle id="Ellipse 211" cx="1213.81" cy="246.242" r="0.5" fill="#FCFAFC"/>
<circle id="Ellipse 212" cx="1339.81" cy="210.242" r="0.5" fill="#FCFAFC"/>
<circle id="Ellipse 213" cx="1091.81" cy="382.241" r="0.5" fill="#FCFAFC"/>
<circle id="Ellipse 214" cx="1041.81" cy="306.242" r="0.5" fill="#FCFAFC"/>
<circle id="Ellipse 215" cx="1098.81" cy="245.242" r="0.5" fill="#FCFAFC"/>
<circle id="Ellipse 216" cx="906.891" cy="445.858" r="1.5" transform="rotate(-49.0176 906.891 445.858)" fill="#FCFAFC"/>
<circle id="Ellipse 217" cx="1205.89" cy="215.523" r="1.5" transform="rotate(-49.0176 1205.89 215.523)" fill="#FCFAFC"/>
<circle id="Ellipse 218" cx="1722.52" cy="337.887" r="1.5" transform="rotate(123.938 1722.52 337.887)" fill="#FCFAFC"/>
<circle id="Ellipse 219" cx="1615.15" cy="282.505" r="1.5" transform="rotate(123.938 1615.15 282.505)" fill="#FCFAFC"/>
<circle id="Ellipse 220" cx="1558.52" cy="228.731" r="1.5" transform="rotate(123.938 1558.52 228.731)" fill="#FCFAFC"/>
<circle id="Ellipse 221" cx="890.644" cy="238.372" r="1.5" transform="rotate(-49.0176 890.644 238.372)" fill="#FCFAFC"/>
<circle id="Ellipse 222" cx="1057.48" cy="252.173" r="1.5" transform="rotate(-49.0176 1057.48 252.173)" fill="#FCFAFC"/>
<circle id="Ellipse 223" cx="1657.43" cy="285.046" r="1" transform="rotate(123.938 1657.43 285.046)" fill="#FCFAFC"/>
<circle id="Ellipse 224" cx="970.625" cy="256.856" r="1" transform="rotate(-49.0176 970.625 256.856)" fill="#FCFAFC"/>
<circle id="Ellipse 225" cx="1645.17" cy="170.724" r="1" transform="rotate(123.938 1645.17 170.724)" fill="#FCFAFC"/>
<circle id="Ellipse 226" cx="987.299" cy="342.874" r="1" transform="rotate(-49.0176 987.299 342.874)" fill="#FCFAFC"/>
<circle id="Ellipse 227" cx="778.411" cy="356.127" r="1" transform="rotate(-49.0176 778.411 356.127)" fill="#FCFAFC"/>
<circle id="Ellipse 228" cx="1578.48" cy="327.139" r="1" transform="rotate(123.938 1578.48 327.139)" fill="#FCFAFC"/>
<circle id="Ellipse 229" cx="1041.87" cy="161.119" r="1" transform="rotate(-49.0176 1041.87 161.119)" fill="#FCFAFC"/>
<circle id="Ellipse 230" cx="1205.52" cy="280.764" r="1" transform="rotate(-49.0176 1205.52 280.764)" fill="#FCFAFC"/>
<circle id="Ellipse 231" cx="1680.79" cy="276.475" r="0.5" transform="rotate(180 1680.79 276.475)" fill="#FCFAFC"/>
<circle id="Ellipse 232" cx="1632.79" cy="393.475" r="0.5" transform="rotate(180 1632.79 393.475)" fill="#FCFAFC"/>
<circle id="Ellipse 233" cx="1576.79" cy="434.475" r="0.5" transform="rotate(180 1576.79 434.475)" fill="#FCFAFC"/>
<circle id="Ellipse 234" cx="1794.79" cy="401.475" r="0.5" transform="rotate(180 1794.79 401.475)" fill="#FCFAFC"/>
<circle id="Ellipse 235" cx="1360.79" cy="282.475" r="0.5" transform="rotate(180 1360.79 282.475)" fill="#FCFAFC"/>
<circle id="Ellipse 236" cx="1299.79" cy="234.475" r="0.5" transform="rotate(180 1299.79 234.475)" fill="#FCFAFC"/>
<circle id="Ellipse 237" cx="1477.79" cy="300.475" r="0.5" transform="rotate(180 1477.79 300.475)" fill="#FCFAFC"/>
<circle id="Ellipse 238" cx="1773.79" cy="305.475" r="0.5" transform="rotate(180 1773.79 305.475)" fill="#FCFAFC"/>
<circle id="Ellipse 239" cx="1740.79" cy="300.475" r="0.5" transform="rotate(180 1740.79 300.475)" fill="#FCFAFC"/>
<circle id="Ellipse 240" cx="1614.79" cy="336.475" r="0.5" transform="rotate(180 1614.79 336.475)" fill="#FCFAFC"/>
<circle id="Ellipse 241" cx="1862.79" cy="164.475" r="0.5" transform="rotate(180 1862.79 164.475)" fill="#FCFAFC"/>
<circle id="Ellipse 242" cx="1912.79" cy="240.475" r="0.5" transform="rotate(180 1912.79 240.475)" fill="#FCFAFC"/>
<circle id="Ellipse 243" cx="1855.79" cy="301.475" r="0.5" transform="rotate(180 1855.79 301.475)" fill="#FCFAFC"/>
<circle id="Ellipse 245" cx="1748.71" cy="331.194" r="1.5" transform="rotate(130.982 1748.71 331.194)" fill="#FCFAFC"/>
<circle id="Ellipse 246" cx="1232.08" cy="208.83" r="1.5" transform="rotate(-56.0617 1232.08 208.83)" fill="#FCFAFC"/>
<circle id="Ellipse 247" cx="1339.45" cy="264.211" r="1.5" transform="rotate(-56.0617 1339.45 264.211)" fill="#FCFAFC"/>
<circle id="Ellipse 248" cx="1396.08" cy="317.986" r="1.5" transform="rotate(-56.0617 1396.08 317.986)" fill="#FCFAFC"/>
<circle id="Ellipse 250" cx="1897.12" cy="294.543" r="1.5" transform="rotate(130.982 1897.12 294.543)" fill="#FCFAFC"/>
<circle id="Ellipse 251" cx="1297.17" cy="261.67" r="1" transform="rotate(-56.0617 1297.17 261.67)" fill="#FCFAFC"/>
<circle id="Ellipse 253" cx="1309.43" cy="375.992" r="1" transform="rotate(-56.0617 1309.43 375.992)" fill="#FCFAFC"/>
<circle id="Ellipse 256" cx="1376.12" cy="219.577" r="1" transform="rotate(-56.0617 1376.12 219.577)" fill="#FCFAFC"/>
<circle id="Ellipse 257" cx="1912.73" cy="385.597" r="1" transform="rotate(130.982 1912.73 385.597)" fill="#FCFAFC"/>
<circle id="Ellipse 258" cx="1749.08" cy="265.953" r="1" transform="rotate(130.982 1749.08 265.953)" fill="#FCFAFC"/>
<g id="vectorAnimation">
<path id="vectorAnimation2" d="M1298 155V478" stroke="url(#paint17_linear_336_1496)" stroke-width="2"/>
<path id="vectorAnimation1" d="M950.412 175.938L1227 400" stroke="url(#paint18_linear_336_1496)" stroke-width="2"/>
<path id="vectorAnimation3" d="M1975.83 183.331L1498.03 386.927" stroke="url(#paint19_linear_336_1496)" stroke-width="2"/>
<path id="vectorAnimation4" d="M421.988 221.51L915.012 372.443" stroke="url(#paint20_linear_336_1496)" stroke-width="2"/>
<path id="vectorAnimation5" d="M1701.4 134.456L1392.07 387.161" stroke="url(#paint21_linear_336_1496)" stroke-width="2"/>
</g>
</g>
</g>
</g>
<defs>
<filter id="filter0_f_336_1496" x="191.874" y="199.726" width="2217.25" height="204.979" filterUnits="userSpaceOnUse" color-interpolation-filters="sRGB">
<feFlood flood-opacity="0" result="BackgroundImageFix"/>
<feBlend mode="normal" in="SourceGraphic" in2="BackgroundImageFix" result="shape"/>
<feGaussianBlur stdDeviation="0.5" result="effect1_foregroundBlur_336_1496"/>
</filter>
<linearGradient id="paint0_linear_336_1496" x1="1276" y1="0" x2="1276" y2="876" gradientUnits="userSpaceOnUse">
<stop stop-color="#050305" stop-opacity="0"/>
<stop offset="0.214611" stop-color="white"/>
<stop offset="0.405908" stop-color="white"/>
<stop offset="0.770833" stop-color="white" stop-opacity="0.72"/>
<stop offset="1" stop-color="#050305" stop-opacity="0"/>
</linearGradient>
<radialGradient id="paint1_radial_336_1496" cx="0" cy="0" r="1" gradientUnits="userSpaceOnUse" gradientTransform="translate(1288.5 272.975) rotate(-90) scale(86.5405 1262.5)">
<stop stop-color="#22B9F4" stop-opacity="0.32"/>
<stop offset="1" stop-color="#0490D6"/>
</radialGradient>
<radialGradient id="paint2_radial_336_1496" cx="0" cy="0" r="1" gradientUnits="userSpaceOnUse" gradientTransform="translate(1288 272.975) rotate(-89.3007) scale(53.0112 770.978)">
<stop stop-color="#8F3FBC"/>
<stop offset="0.598958" stop-color="#27125E"/>
</radialGradient>
<radialGradient id="paint3_radial_336_1496" cx="0" cy="0" r="1" gradientUnits="userSpaceOnUse" gradientTransform="translate(1289.5 272.975) rotate(-89.3007) scale(38.5536 560.68)">
<stop stop-color="#C679D4"/>
<stop offset="0.598958" stop-color="#6A34A7"/>
</radialGradient>
<radialGradient id="paint4_radial_336_1496" cx="0" cy="0" r="1" gradientUnits="userSpaceOnUse" gradientTransform="translate(1290 272.975) rotate(-89.2965) scale(26.1614 382.735)">
<stop stop-color="#C977DB"/>
<stop offset="0.598958" stop-color="#7D35B2"/>
</radialGradient>
<linearGradient id="paint5_linear_336_1496" x1="1288.29" y1="317.05" x2="1285.93" y2="196.021" gradientUnits="userSpaceOnUse">
<stop stop-color="#FCFAFC"/>
<stop offset="1" stop-color="#FCFAFC" stop-opacity="0"/>
</linearGradient>
<linearGradient id="paint6_linear_336_1496" x1="1289.06" y1="339.05" x2="1287.85" y2="217.987" gradientUnits="userSpaceOnUse">
<stop stop-color="#FCFAFC"/>
<stop offset="1" stop-color="#FCFAFC" stop-opacity="0"/>
</linearGradient>
<linearGradient id="paint7_linear_336_1496" x1="1242.5" y1="333.475" x2="1417.1" y2="172.894" gradientUnits="userSpaceOnUse">
<stop stop-color="#841AB0"/>
<stop offset="1" stop-color="#FCFAFC" stop-opacity="0"/>
</linearGradient>
<linearGradient id="paint8_linear_336_1496" x1="935.182" y1="344.475" x2="1244.53" y2="161.631" gradientUnits="userSpaceOnUse">
<stop stop-color="#3E1652" stop-opacity="0.32"/>
<stop offset="1" stop-color="#AB40D6" stop-opacity="0.64"/>
</linearGradient>
<radialGradient id="paint9_radial_336_1496" cx="0" cy="0" r="1" gradientUnits="userSpaceOnUse" gradientTransform="translate(1458.94 380.676) rotate(-89.0988) scale(286.014 1140.84)">
<stop stop-color="#3E1652" stop-opacity="0"/>
<stop offset="1" stop-color="#3E1652"/>
</radialGradient>
<linearGradient id="paint10_linear_336_1496" x1="1644.82" y1="344.475" x2="1335.47" y2="161.631" gradientUnits="userSpaceOnUse">
<stop stop-color="#3E1652" stop-opacity="0.32"/>
<stop offset="1" stop-color="#AB40D6" stop-opacity="0.64"/>
</linearGradient>
<linearGradient id="paint11_linear_336_1496" x1="1438.5" y1="332.475" x2="1263.9" y2="171.894" gradientUnits="userSpaceOnUse">
<stop stop-color="#841AB0"/>
<stop offset="1" stop-color="#FCFAFC" stop-opacity="0"/>
</linearGradient>
<linearGradient id="paint12_linear_336_1496" x1="1399" y1="404.781" x2="1121.64" y2="154.582" gradientUnits="userSpaceOnUse">
<stop stop-color="#841AB0"/>
<stop offset="1" stop-color="#FCFAFC" stop-opacity="0"/>
</linearGradient>
<linearGradient id="paint13_linear_336_1496" x1="1561.5" y1="332.475" x2="1386.9" y2="171.894" gradientUnits="userSpaceOnUse">
<stop stop-color="#0490D6" stop-opacity="0.64"/>
<stop offset="1" stop-color="#FCFAFC" stop-opacity="0"/>
</linearGradient>
<linearGradient id="paint14_linear_336_1496" x1="1005.5" y1="333.475" x2="1180.1" y2="172.894" gradientUnits="userSpaceOnUse">
<stop stop-color="#0490D6" stop-opacity="0.64"/>
<stop offset="1" stop-color="#FCFAFC" stop-opacity="0"/>
</linearGradient>
<linearGradient id="paint15_linear_336_1496" x1="1026" y1="334.475" x2="1181.51" y2="78.5401" gradientUnits="userSpaceOnUse">
<stop stop-color="#0490D6" stop-opacity="0.64"/>
<stop offset="1" stop-color="#FCFAFC" stop-opacity="0"/>
</linearGradient>
<linearGradient id="paint16_linear_336_1496" x1="1301.14" y1="369.31" x2="1301.14" y2="201.226" gradientUnits="userSpaceOnUse">
<stop stop-color="#FCFAFC" stop-opacity="0"/>
<stop offset="0.456354" stop-color="#FCFAFC"/>
<stop offset="1" stop-color="#FCFAFC" stop-opacity="0"/>
</linearGradient>
<linearGradient id="paint17_linear_336_1496" x1="1298.5" y1="243.243" x2="1298.55" y2="396.332" gradientUnits="userSpaceOnUse">
<stop stop-color="#FCFAFC" stop-opacity="0"/>
<stop offset="0.456354" stop-color="#FCFAFC"/>
<stop offset="1" stop-color="#FCFAFC" stop-opacity="0"/>
</linearGradient>
<linearGradient id="paint18_linear_336_1496" x1="1077.01" y1="202.523" x2="1106.48" y2="416.591" gradientUnits="userSpaceOnUse">
<stop stop-color="#FCFAFC" stop-opacity="0"/>
<stop offset="0.456354" stop-color="#FCFAFC"/>
<stop offset="1" stop-color="#FCFAFC" stop-opacity="0"/>
</linearGradient>
<linearGradient id="paint19_linear_336_1496" x1="1739.78" y1="211.742" x2="1732.97" y2="395.631" gradientUnits="userSpaceOnUse">
<stop stop-color="#FCFAFC" stop-opacity="0"/>
<stop offset="0.456354" stop-color="#FCFAFC"/>
<stop offset="1" stop-color="#FCFAFC" stop-opacity="0"/>
</linearGradient>
<linearGradient id="paint20_linear_336_1496" x1="688.482" y1="231.893" x2="691.963" y2="367.897" gradientUnits="userSpaceOnUse">
<stop stop-color="#FCFAFC" stop-opacity="0"/>
<stop offset="0.456354" stop-color="#FCFAFC"/>
<stop offset="1" stop-color="#FCFAFC" stop-opacity="0"/>
</linearGradient>
<linearGradient id="paint21_linear_336_1496" x1="1542.43" y1="182.932" x2="1553.45" y2="378.044" gradientUnits="userSpaceOnUse">
<stop stop-color="#FCFAFC" stop-opacity="0"/>
<stop offset="0.456354" stop-color="#FCFAFC"/>
<stop offset="1" stop-color="#FCFAFC" stop-opacity="0"/>
</linearGradient>
</defs>
</svg>
