<svg width="2552" height="876" viewBox="0 0 2552 876" className="SVGAboutDown desktop-none" fill="none" xmlns="http://www.w3.org/2000/svg">
<g id="SVGAboutDownMobile">
<mask id="mask0_397_2521" style={{maskType : "alpha"}} maskUnits="userSpaceOnUse" x="0" y="0" width="2552" height="876">
<path id="Rectangle 1010" d="M2552 876H0V-3.00407e-05H2552V876Z" fill="url(#paint0_linear_397_2521)"/>
</mask>
<g mask="url(#mask0_397_2521)">
<g id="SVGAbout">
<path id="Polygon3" d="M1263.5 384L170.143 724.5H2356.86L1263.5 384Z" fill="url(#paint1_radial_397_2521)"/>
<path id="Polygon4" d="M1264 409L294.052 712H2233.95L1264 409Z" fill="url(#paint2_radial_397_2521)"/>
<path id="Polygon5" d="M1262.5 464L557.122 684.5H1967.88L1262.5 464Z" fill="url(#paint3_radial_397_2521)"/>
<path id="Polygon6" d="M1262 511L780.49 660.25H1743.51L1262 511Z" fill="url(#paint4_radial_397_2521)"/>
<path id="Polygon7" d="M1264 569L1116.78 752H1411.22L1264 569Z" fill="url(#paint5_linear_397_2521)"/>
<path id="Polygon8" d="M1263.5 511L975.547 694H1551.45L1263.5 511Z" fill="url(#paint6_linear_397_2521)"/>
<path id="Polygon9" d="M1309.5 511L1021.55 694H1597.45L1309.5 511Z" fill="url(#paint7_linear_397_2521)"/>
<path id="Polygon13" d="M1485.5 490L1197.55 673H1773.45L1485.5 490Z" fill="url(#paint8_linear_397_2521)"/>
<path id="Polygon15" d="M1276.5 -27L29.8564 904.5H2523.14L1276.5 -27Z" fill="url(#paint9_radial_397_2521)"/>
<path id="Polygon14" d="M1038.5 490L1326.45 673H750.547L1038.5 490Z" fill="url(#paint10_linear_397_2521)"/>
<path id="Polygon10" d="M1113.5 514L1401.45 697H825.547L1113.5 514Z" fill="url(#paint11_linear_397_2521)"/>
<path id="Polygon17" d="M1153 359L1602.47 650H703.533L1153 359Z" fill="url(#paint12_linear_397_2521)"/>
<path id="Polygon11" d="M990.5 514L1278.45 697H702.547L990.5 514Z" fill="url(#paint13_linear_397_2521)"/>
<path id="Polygon12" d="M1546.5 511L1258.55 694H1834.45L1546.5 511Z" fill="url(#paint14_linear_397_2521)"/>
<path id="Polygon16" d="M1526 564.025L1010.71 633.775H2041.29L1526 564.025Z" fill="url(#paint15_linear_397_2521)"/>
<g id="Vector 50" filter="url(#filter0_f_397_2521)">
<path d="M2486 675L1725 389.4M2313.32 675L1658.98 389.4M2134.2 675L1606.05 401.4M1960.6 675L1520.55 389.4M1785.16 675L1443.88 389.4M1606.05 675L1360.82 389.4M1433.37 675L1302.61 386.2M1254.26 675V401.4M1076.06 675L1193.29 386.2M900.623 675L1147.15 376.6M725.184 675L1101.71 363M550.664 675L1049.89 363M375.226 675C379.634 675 865.815 416.923 995.939 363M199.787 675L942.698 351M17.0001 675L874.548 363M17.0001 600.093C980.432 652.611 1520.66 652.49 2486 600.093M167.497 546.701C965.952 600.347 1540.7 599.353 2344.02 546.701M375.226 496.497C973.073 551.783 1507.07 549.648 2156.61 496.497M2020.31 439.8C1547.41 500.555 1022.21 511.8 577.814 439.8" stroke="url(#paint16_linear_397_2521)"/>
</g>
<circle id="Ellipse 175" cx="0.5" cy="0.5" r="0.5" transform="matrix(-1 0 0 1 1649.69 521.025)" fill="#FCFAFC"/>
<circle id="Ellipse 176" cx="0.5" cy="0.5" r="0.5" transform="matrix(-1 0 0 1 1601.69 404.025)" fill="#FCFAFC"/>
<circle id="Ellipse 177" cx="0.5" cy="0.5" r="0.5" transform="matrix(-1 0 0 1 1545.69 363.025)" fill="#FCFAFC"/>
<circle id="Ellipse 178" cx="0.5" cy="0.5" r="0.5" transform="matrix(-1 0 0 1 1763.69 396.025)" fill="#FCFAFC"/>
<circle id="Ellipse 179" cx="0.5" cy="0.5" r="0.5" transform="matrix(-1 0 0 1 1329.69 515.025)" fill="#FCFAFC"/>
<circle id="Ellipse 180" cx="0.5" cy="0.5" r="0.5" transform="matrix(-1 0 0 1 1268.69 563.025)" fill="#FCFAFC"/>
<circle id="Ellipse 181" cx="0.5" cy="0.5" r="0.5" transform="matrix(-1 0 0 1 1446.69 497.025)" fill="#FCFAFC"/>
<circle id="Ellipse 244" cx="504.292" cy="654.116" r="1.5" transform="rotate(-49.0176 504.292 654.116)" fill="#FCFAFC"/>
<circle id="Ellipse 249" cx="488.045" cy="446.631" r="1.5" transform="rotate(-49.0176 488.045 446.631)" fill="#FCFAFC"/>
<circle id="Ellipse 252" cx="568.025" cy="465.115" r="1" transform="rotate(-49.0176 568.025 465.115)" fill="#FCFAFC"/>
<circle id="Ellipse 254" cx="584.7" cy="551.131" r="1" transform="rotate(-49.0176 584.7 551.131)" fill="#FCFAFC"/>
<circle id="Ellipse 255" cx="375.811" cy="564.385" r="1" transform="rotate(-49.0176 375.811 564.385)" fill="#FCFAFC"/>
<circle id="Ellipse 182" cx="0.5" cy="0.5" r="0.5" transform="matrix(-1 0 0 1 1742.69 492.025)" fill="#FCFAFC"/>
<circle id="Ellipse 183" cx="0.5" cy="0.5" r="0.5" transform="matrix(-1 0 0 1 1709.69 497.025)" fill="#FCFAFC"/>
<circle id="Ellipse 184" cx="0.5" cy="0.5" r="0.5" transform="matrix(-1 0 0 1 1583.69 461.025)" fill="#FCFAFC"/>
<circle id="Ellipse 185" cx="0.5" cy="0.5" r="0.5" transform="matrix(-1 0 0 1 1831.69 633.025)" fill="#FCFAFC"/>
<circle id="Ellipse 186" cx="0.5" cy="0.5" r="0.5" transform="matrix(-1 0 0 1 1881.69 557.025)" fill="#FCFAFC"/>
<circle id="Ellipse 187" cx="0.5" cy="0.5" r="0.5" transform="matrix(-1 0 0 1 1824.69 496.025)" fill="#FCFAFC"/>
<circle id="Ellipse 188" cx="1.5" cy="1.5" r="1.5" transform="matrix(-0.655827 -0.754911 -0.754911 0.655827 2018.22 697.29)" fill="#FCFAFC"/>
<circle id="Ellipse 189" cx="1.5" cy="1.5" r="1.5" transform="matrix(-0.655827 -0.754911 -0.754911 0.655827 1719.22 466.955)" fill="#FCFAFC"/>
<circle id="Ellipse 190" cx="1.5" cy="1.5" r="1.5" transform="matrix(0.5583 0.829639 0.829639 -0.5583 1198.4 588.764)" fill="#FCFAFC"/>
<circle id="Ellipse 191" cx="1.5" cy="1.5" r="1.5" transform="matrix(0.5583 0.829639 0.829639 -0.5583 1305.77 533.382)" fill="#FCFAFC"/>
<circle id="Ellipse 192" cx="1.5" cy="1.5" r="1.5" transform="matrix(0.5583 0.829639 0.829639 -0.5583 1362.4 479.607)" fill="#FCFAFC"/>
<circle id="Ellipse 193" cx="1.5" cy="1.5" r="1.5" transform="matrix(-0.655827 -0.754911 -0.754911 0.655827 2034.47 489.805)" fill="#FCFAFC"/>
<circle id="Ellipse 194" cx="1.5" cy="1.5" r="1.5" transform="matrix(-0.655827 -0.754911 -0.754911 0.655827 1867.63 503.605)" fill="#FCFAFC"/>
<circle id="Ellipse 195" cx="1" cy="1" r="1" transform="matrix(0.5583 0.829639 0.829639 -0.5583 1264.18 536.059)" fill="#FCFAFC"/>
<circle id="Ellipse 196" cx="1" cy="1" r="1" transform="matrix(-0.655827 -0.754911 -0.754911 0.655827 1953.79 508.239)" fill="#FCFAFC"/>
<circle id="Ellipse 197" cx="1" cy="1" r="1" transform="matrix(0.5583 0.829639 0.829639 -0.5583 1276.44 421.736)" fill="#FCFAFC"/>
<circle id="Ellipse 198" cx="1" cy="1" r="1" transform="matrix(-0.655827 -0.754911 -0.754911 0.655827 1937.11 594.257)" fill="#FCFAFC"/>
<circle id="Ellipse 199" cx="1" cy="1" r="1" transform="matrix(-0.655827 -0.754911 -0.754911 0.655827 2146 607.511)" fill="#FCFAFC"/>
<circle id="Ellipse 200" cx="1" cy="1" r="1" transform="matrix(0.5583 0.829639 0.829639 -0.5583 1343.13 578.151)" fill="#FCFAFC"/>
<circle id="Ellipse 201" cx="1" cy="1" r="1" transform="matrix(-0.655827 -0.754911 -0.754911 0.655827 1882.54 412.502)" fill="#FCFAFC"/>
<circle id="Ellipse 202" cx="1" cy="1" r="1" transform="matrix(-0.655827 -0.754911 -0.754911 0.655827 1718.9 532.146)" fill="#FCFAFC"/>
<circle id="Ellipse 203" cx="1278.19" cy="605.759" r="0.5" transform="rotate(-180 1278.19 605.759)" fill="#FCFAFC"/>
<circle id="Ellipse 204" cx="1230.19" cy="722.759" r="0.5" transform="rotate(-180 1230.19 722.759)" fill="#FCFAFC"/>
<circle id="Ellipse 205" cx="1174.19" cy="763.759" r="0.5" transform="rotate(-180 1174.19 763.759)" fill="#FCFAFC"/>
<circle id="Ellipse 206" cx="1392.19" cy="730.759" r="0.5" transform="rotate(-180 1392.19 730.759)" fill="#FCFAFC"/>
<circle id="Ellipse 207" cx="958.192" cy="611.759" r="0.5" transform="rotate(-180 958.192 611.759)" fill="#FCFAFC"/>
<circle id="Ellipse 208" cx="897.192" cy="563.759" r="0.5" transform="rotate(-180 897.192 563.759)" fill="#FCFAFC"/>
<circle id="Ellipse 209" cx="1075.19" cy="629.759" r="0.5" transform="rotate(-180 1075.19 629.759)" fill="#FCFAFC"/>
<circle id="Ellipse 210" cx="1371.19" cy="634.759" r="0.5" transform="rotate(-180 1371.19 634.759)" fill="#FCFAFC"/>
<circle id="Ellipse 211" cx="1338.19" cy="629.759" r="0.5" transform="rotate(-180 1338.19 629.759)" fill="#FCFAFC"/>
<circle id="Ellipse 212" cx="1212.19" cy="665.759" r="0.5" transform="rotate(-180 1212.19 665.759)" fill="#FCFAFC"/>
<circle id="Ellipse 213" cx="1460.19" cy="493.759" r="0.5" transform="rotate(-180 1460.19 493.759)" fill="#FCFAFC"/>
<circle id="Ellipse 214" cx="1510.19" cy="569.759" r="0.5" transform="rotate(-180 1510.19 569.759)" fill="#FCFAFC"/>
<circle id="Ellipse 215" cx="1453.19" cy="630.759" r="0.5" transform="rotate(-180 1453.19 630.759)" fill="#FCFAFC"/>
<circle id="Ellipse 216" cx="1645.11" cy="430.142" r="1.5" transform="rotate(130.982 1645.11 430.142)" fill="#FCFAFC"/>
<circle id="Ellipse 217" cx="1346.11" cy="660.478" r="1.5" transform="rotate(130.982 1346.11 660.478)" fill="#FCFAFC"/>
<circle id="Ellipse 218" cx="829.482" cy="538.114" r="1.5" transform="rotate(-56.0617 829.482 538.114)" fill="#FCFAFC"/>
<circle id="Ellipse 219" cx="936.854" cy="593.495" r="1.5" transform="rotate(-56.0617 936.854 593.495)" fill="#FCFAFC"/>
<circle id="Ellipse 220" cx="993.478" cy="647.27" r="1.5" transform="rotate(-56.0617 993.478 647.27)" fill="#FCFAFC"/>
<circle id="Ellipse 221" cx="1661.36" cy="637.628" r="1.5" transform="rotate(130.982 1661.36 637.628)" fill="#FCFAFC"/>
<circle id="Ellipse 222" cx="1494.52" cy="623.827" r="1.5" transform="rotate(130.982 1494.52 623.827)" fill="#FCFAFC"/>
<circle id="Ellipse 223" cx="894.57" cy="590.954" r="1" transform="rotate(-56.0617 894.57 590.954)" fill="#FCFAFC"/>
<circle id="Ellipse 224" cx="1581.38" cy="619.144" r="1" transform="rotate(130.982 1581.38 619.144)" fill="#FCFAFC"/>
<circle id="Ellipse 225" cx="906.832" cy="705.276" r="1" transform="rotate(-56.0617 906.832 705.276)" fill="#FCFAFC"/>
<circle id="Ellipse 226" cx="1564.7" cy="533.126" r="1" transform="rotate(130.982 1564.7 533.126)" fill="#FCFAFC"/>
<circle id="Ellipse 227" cx="1773.59" cy="519.872" r="1" transform="rotate(130.982 1773.59 519.872)" fill="#FCFAFC"/>
<circle id="Ellipse 228" cx="973.52" cy="548.86" r="1" transform="rotate(-56.0617 973.52 548.86)" fill="#FCFAFC"/>
<circle id="Ellipse 229" cx="1510.13" cy="714.881" r="1" transform="rotate(130.982 1510.13 714.881)" fill="#FCFAFC"/>
<circle id="Ellipse 230" cx="1346.48" cy="595.237" r="1" transform="rotate(130.982 1346.48 595.237)" fill="#FCFAFC"/>
<circle id="Ellipse 231" cx="871.208" cy="599.525" r="0.5" fill="#FCFAFC"/>
<circle id="Ellipse 232" cx="919.208" cy="482.525" r="0.5" fill="#FCFAFC"/>
<circle id="Ellipse 233" cx="975.208" cy="441.525" r="0.5" fill="#FCFAFC"/>
<circle id="Ellipse 234" cx="757.208" cy="474.525" r="0.5" fill="#FCFAFC"/>
<circle id="Ellipse 235" cx="1191.21" cy="593.525" r="0.5" fill="#FCFAFC"/>
<circle id="Ellipse 236" cx="1252.21" cy="641.525" r="0.5" fill="#FCFAFC"/>
<circle id="Ellipse 237" cx="1074.21" cy="575.525" r="0.5" fill="#FCFAFC"/>
<circle id="Ellipse 238" cx="778.208" cy="570.525" r="0.5" fill="#FCFAFC"/>
<circle id="Ellipse 239" cx="811.208" cy="575.525" r="0.5" fill="#FCFAFC"/>
<circle id="Ellipse 240" cx="937.208" cy="539.525" r="0.5" fill="#FCFAFC"/>
<circle id="Ellipse 241" cx="689.208" cy="711.525" r="0.5" fill="#FCFAFC"/>
<circle id="Ellipse 242" cx="639.208" cy="635.525" r="0.5" fill="#FCFAFC"/>
<circle id="Ellipse 243" cx="696.208" cy="574.525" r="0.5" fill="#FCFAFC"/>
<circle id="Ellipse 245" cx="803.295" cy="544.806" r="1.5" transform="rotate(-49.0176 803.295 544.806)" fill="#FCFAFC"/>
<circle id="Ellipse 246" cx="1319.92" cy="667.171" r="1.5" transform="rotate(123.938 1319.92 667.171)" fill="#FCFAFC"/>
<circle id="Ellipse 247" cx="1212.55" cy="611.789" r="1.5" transform="rotate(123.938 1212.55 611.789)" fill="#FCFAFC"/>
<circle id="Ellipse 248" cx="1155.92" cy="558.014" r="1.5" transform="rotate(123.938 1155.92 558.014)" fill="#FCFAFC"/>
<circle id="Ellipse 250" cx="654.885" cy="581.457" r="1.5" transform="rotate(-49.0176 654.885 581.457)" fill="#FCFAFC"/>
<circle id="Ellipse 251" cx="1254.83" cy="614.33" r="1" transform="rotate(123.938 1254.83 614.33)" fill="#FCFAFC"/>
<circle id="Ellipse 253" cx="1242.57" cy="500.008" r="1" transform="rotate(123.938 1242.57 500.008)" fill="#FCFAFC"/>
<circle id="Ellipse 256" cx="1175.88" cy="656.424" r="1" transform="rotate(123.938 1175.88 656.424)" fill="#FCFAFC"/>
<circle id="Ellipse 257" cx="639.274" cy="490.403" r="1" transform="rotate(-49.0176 639.274 490.403)" fill="#FCFAFC"/>
<circle id="Ellipse 258" cx="802.916" cy="610.047" r="1" transform="rotate(-49.0176 802.916 610.047)" fill="#FCFAFC"/>
<g id="vectorAnimation">
<path className="vectorAnimation2" d="M1254 721L1254 314" stroke="url(#paint17_linear_397_2521)" stroke-width="2"/>
<path className="vectorAnimation1" d="M1627.4 693.837L1288.15 438.496" stroke="url(#paint18_linear_397_2521)" stroke-width="2"/>
<path className="vectorAnimation3" d="M502.966 693.558L1192.19 424.736" stroke="url(#paint19_linear_397_2521)" stroke-width="2"/>
<path className="vectorAnimation4" d="M2135 673L1470.65 464.777" stroke="url(#paint20_linear_397_2521)" stroke-width="2"/>
<path className="vectorAnimation5" d="M831.159 729.991L1206 445" stroke="url(#paint21_linear_397_2521)" stroke-width="2"/>
</g>
</g>
</g>
</g>
<defs>
<filter id="filter0_f_397_2521" x="15.8291" y="349.542" width="2471.35" height="326.958" filterUnits="userSpaceOnUse" color-interpolation-filters="sRGB">
<feFlood flood-opacity="0" result="BackgroundImageFix"/>
<feBlend mode="normal" in="SourceGraphic" in2="BackgroundImageFix" result="shape"/>
<feGaussianBlur stdDeviation="0.5" result="effect1_foregroundBlur_397_2521"/>
</filter>
<linearGradient id="paint0_linear_397_2521" x1="1276" y1="876" x2="1276" y2="0" gradientUnits="userSpaceOnUse">
<stop stop-color="#050305" stop-opacity="0"/>
<stop offset="0.214611" stop-color="white"/>
<stop offset="0.405908" stop-color="white"/>
<stop offset="0.770833" stop-color="white" stop-opacity="0.72"/>
<stop offset="1" stop-color="#050305" stop-opacity="0"/>
</linearGradient>
<radialGradient id="paint1_radial_397_2521" cx="0" cy="0" r="1" gradientUnits="userSpaceOnUse" gradientTransform="translate(1263.5 611) rotate(90) scale(227 1262.5)">
<stop stop-color="#22B9F4" stop-opacity="0.32"/>
<stop offset="1" stop-color="#0490D6"/>
</radialGradient>
<radialGradient id="paint2_radial_397_2521" cx="0" cy="0" r="1" gradientUnits="userSpaceOnUse" gradientTransform="translate(1264 611) rotate(90.2666) scale(139.059 771.028)">
<stop stop-color="#8F3FBC"/>
<stop offset="0.598958" stop-color="#27125E"/>
</radialGradient>
<radialGradient id="paint3_radial_397_2521" cx="0" cy="0" r="1" gradientUnits="userSpaceOnUse" gradientTransform="translate(1262.5 611) rotate(90.2664) scale(101.197 560.716)">
<stop stop-color="#C679D4"/>
<stop offset="0.598958" stop-color="#6A34A7"/>
</radialGradient>
<radialGradient id="paint4_radial_397_2521" cx="0" cy="0" r="1" gradientUnits="userSpaceOnUse" gradientTransform="translate(1262 610.5) rotate(90.2687) scale(68.4971 382.76)">
<stop stop-color="#C977DB"/>
<stop offset="0.598958" stop-color="#7D35B2"/>
</radialGradient>
<linearGradient id="paint5_linear_397_2521" x1="1263.71" y1="495.34" x2="1279.93" y2="812.17" gradientUnits="userSpaceOnUse">
<stop stop-color="#FCFAFC"/>
<stop offset="1" stop-color="#FCFAFC" stop-opacity="0"/>
</linearGradient>
<linearGradient id="paint6_linear_397_2521" x1="1262.94" y1="437.34" x2="1271.25" y2="754.783" gradientUnits="userSpaceOnUse">
<stop stop-color="#FCFAFC"/>
<stop offset="1" stop-color="#FCFAFC" stop-opacity="0"/>
</linearGradient>
<linearGradient id="paint7_linear_397_2521" x1="1309.5" y1="451.968" x2="1022.48" y2="552.58" gradientUnits="userSpaceOnUse">
<stop stop-color="#841AB0"/>
<stop offset="1" stop-color="#FCFAFC" stop-opacity="0"/>
</linearGradient>
<linearGradient id="paint8_linear_397_2521" x1="1616.82" y1="423.097" x2="1219.56" y2="512.592" gradientUnits="userSpaceOnUse">
<stop stop-color="#3E1652" stop-opacity="0.32"/>
<stop offset="1" stop-color="#AB40D6" stop-opacity="0.64"/>
</linearGradient>
<radialGradient id="paint9_radial_397_2521" cx="0" cy="0" r="1" gradientUnits="userSpaceOnUse" gradientTransform="translate(1093.06 423.726) rotate(90.5224) scale(493.37 1140.93)">
<stop stop-color="#3E1652" stop-opacity="0"/>
<stop offset="1" stop-color="#3E1652"/>
</radialGradient>
<linearGradient id="paint10_linear_397_2521" x1="907.182" y1="423.097" x2="1304.44" y2="512.592" gradientUnits="userSpaceOnUse">
<stop stop-color="#3E1652" stop-opacity="0.32"/>
<stop offset="1" stop-color="#AB40D6" stop-opacity="0.64"/>
</linearGradient>
<linearGradient id="paint11_linear_397_2521" x1="1113.5" y1="454.968" x2="1400.52" y2="555.58" gradientUnits="userSpaceOnUse">
<stop stop-color="#841AB0"/>
<stop offset="1" stop-color="#FCFAFC" stop-opacity="0"/>
</linearGradient>
<linearGradient id="paint12_linear_397_2521" x1="1153" y1="265.129" x2="1602.8" y2="419.902" gradientUnits="userSpaceOnUse">
<stop stop-color="#841AB0"/>
<stop offset="1" stop-color="#FCFAFC" stop-opacity="0"/>
</linearGradient>
<linearGradient id="paint13_linear_397_2521" x1="990.5" y1="454.968" x2="1277.52" y2="555.58" gradientUnits="userSpaceOnUse">
<stop stop-color="#0490D6" stop-opacity="0.64"/>
<stop offset="1" stop-color="#FCFAFC" stop-opacity="0"/>
</linearGradient>
<linearGradient id="paint14_linear_397_2521" x1="1546.5" y1="451.968" x2="1259.48" y2="552.58" gradientUnits="userSpaceOnUse">
<stop stop-color="#0490D6" stop-opacity="0.64"/>
<stop offset="1" stop-color="#FCFAFC" stop-opacity="0"/>
</linearGradient>
<linearGradient id="paint15_linear_397_2521" x1="1526" y1="541.525" x2="1370.49" y2="797.46" gradientUnits="userSpaceOnUse">
<stop stop-color="#0490D6" stop-opacity="0.64"/>
<stop offset="1" stop-color="#FCFAFC" stop-opacity="0"/>
</linearGradient>
<linearGradient id="paint16_linear_397_2521" x1="1250.79" y1="405.4" x2="1250.79" y2="675" gradientUnits="userSpaceOnUse">
<stop stop-color="#FCFAFC" stop-opacity="0"/>
<stop offset="0.456354" stop-color="#FCFAFC"/>
<stop offset="1" stop-color="#FCFAFC" stop-opacity="0"/>
</linearGradient>
<linearGradient id="paint17_linear_397_2521" x1="1253.5" y1="609.809" x2="1253.42" y2="416.907" gradientUnits="userSpaceOnUse">
<stop stop-color="#FCFAFC" stop-opacity="0"/>
<stop offset="0.456354" stop-color="#FCFAFC"/>
<stop offset="1" stop-color="#FCFAFC" stop-opacity="0"/>
</linearGradient>
<linearGradient id="paint18_linear_397_2521" x1="1475.35" y1="667.53" x2="1431.11" y2="413.593" gradientUnits="userSpaceOnUse">
<stop stop-color="#FCFAFC" stop-opacity="0"/>
<stop offset="0.456354" stop-color="#FCFAFC"/>
<stop offset="1" stop-color="#FCFAFC" stop-opacity="0"/>
</linearGradient>
<linearGradient id="paint19_linear_397_2521" x1="840.285" y1="663.505" x2="858.083" y2="401.996" gradientUnits="userSpaceOnUse">
<stop stop-color="#FCFAFC" stop-opacity="0"/>
<stop offset="0.456354" stop-color="#FCFAFC"/>
<stop offset="1" stop-color="#FCFAFC" stop-opacity="0"/>
</linearGradient>
<linearGradient id="paint20_linear_397_2521" x1="1775.95" y1="658.497" x2="1771.16" y2="471.207" gradientUnits="userSpaceOnUse">
<stop stop-color="#FCFAFC" stop-opacity="0"/>
<stop offset="0.456354" stop-color="#FCFAFC"/>
<stop offset="1" stop-color="#FCFAFC" stop-opacity="0"/>
</linearGradient>
<linearGradient id="paint21_linear_397_2521" x1="1037.96" y1="687.193" x2="1033.05" y2="456.806" gradientUnits="userSpaceOnUse">
<stop stop-color="#FCFAFC" stop-opacity="0"/>
<stop offset="0.456354" stop-color="#FCFAFC"/>
<stop offset="1" stop-color="#FCFAFC" stop-opacity="0"/>
</linearGradient>
</defs>
</svg>
