<svg width="2552" height="876" viewBox="0 0 2552 876" className="SVGAboutUp desktop-none" fill="none" xmlns="http://www.w3.org/2000/svg">
<g id="SVGAboutUpMobile">
<mask id="mask0_401_2630" style={{maskType : "alpha"}} maskUnits="userSpaceOnUse" x="0" y="0" width="2552" height="876">
<path id="Rectangle 1010" d="M0 0H2552V876H0V0Z" fill="url(#paint0_linear_401_2630)"/>
</mask>
<g mask="url(#mask0_401_2630)">
<g id="SVGAbout">
<path id="Polygon3" d="M1288.5 492L2381.86 151.5H195.143L1288.5 492Z" fill="url(#paint1_radial_401_2630)"/>
<path id="Polygon4" d="M1288 467L2257.95 164H318.052L1288 467Z" fill="url(#paint2_radial_401_2630)"/>
<path id="Polygon5" d="M1289.5 412L1994.88 191.5H584.122L1289.5 412Z" fill="url(#paint3_radial_401_2630)"/>
<path id="Polygon6" d="M1290 365L1771.51 215.75H808.49L1290 365Z" fill="url(#paint4_radial_401_2630)"/>
<path id="Polygon7" d="M1288 307L1435.22 124H1140.78L1288 307Z" fill="url(#paint5_linear_401_2630)"/>
<path id="Polygon8" d="M1288.5 365L1576.45 182H1000.55L1288.5 365Z" fill="url(#paint6_linear_401_2630)"/>
<path id="Polygon9" d="M1242.5 365L1530.45 182H954.547L1242.5 365Z" fill="url(#paint7_linear_401_2630)"/>
<path id="Polygon13" d="M1066.5 386L1354.45 203H778.547L1066.5 386Z" fill="url(#paint8_linear_401_2630)"/>
<path id="Polygon15" d="M1275.5 903L2522.14 -28.5H28.8564L1275.5 903Z" fill="url(#paint9_radial_401_2630)"/>
<path id="Polygon14" d="M1513.5 386L1225.55 203H1801.45L1513.5 386Z" fill="url(#paint10_linear_401_2630)"/>
<path id="Polygon10" d="M1438.5 362L1150.55 179H1726.45L1438.5 362Z" fill="url(#paint11_linear_401_2630)"/>
<path id="Polygon17" d="M1399 517L949.533 226H1848.47L1399 517Z" fill="url(#paint12_linear_401_2630)"/>
<path id="Polygon11" d="M1561.5 362L1273.55 179H1849.45L1561.5 362Z" fill="url(#paint13_linear_401_2630)"/>
<path id="Polygon12" d="M1005.5 365L1293.45 182H717.547L1005.5 365Z" fill="url(#paint14_linear_401_2630)"/>
<path id="Polygon16" d="M1026 311.975L1541.29 242.225H510.715L1026 311.975Z" fill="url(#paint15_linear_401_2630)"/>
<g id="Vector 50" filter="url(#filter0_f_401_2630)">
<path d="M66 201L827.003 486.6M238.683 201L893.023 486.6M417.796 201L945.949 474.6M591.397 201L1031.45 486.6M766.836 201L1108.12 486.6M945.949 201L1191.18 486.6M1118.63 201L1249.39 489.8M1297.74 201V474.6M1475.94 201L1358.71 489.8M1651.38 201L1404.85 499.4M1826.82 201L1450.29 513M2001.34 201L1502.11 513M2176.77 201C2172.37 201 1686.19 459.077 1556.06 513M2352.21 201L1609.3 525M2535 201L1677.45 513M2535 275.907C1571.57 223.389 1031.34 223.51 66 275.907M2384.5 329.299C1586.05 275.653 1011.3 276.647 207.978 329.299M2176.77 379.503C1578.93 324.217 1044.93 326.352 395.389 379.503M531.688 436.2C1004.59 375.445 1529.79 364.2 1974.19 436.2" stroke="url(#paint16_linear_401_2630)"/>
</g>
<circle id="Ellipse 175" cx="0.5" cy="0.5" r="0.5" transform="matrix(1 0 0 -1 902.308 354.975)" fill="#FCFAFC"/>
<circle id="Ellipse 176" cx="0.5" cy="0.5" r="0.5" transform="matrix(1 0 0 -1 950.308 471.975)" fill="#FCFAFC"/>
<circle id="Ellipse 177" cx="0.5" cy="0.5" r="0.5" transform="matrix(1 0 0 -1 1006.31 512.975)" fill="#FCFAFC"/>
<circle id="Ellipse 178" cx="0.5" cy="0.5" r="0.5" transform="matrix(1 0 0 -1 788.308 479.975)" fill="#FCFAFC"/>
<circle id="Ellipse 179" cx="0.5" cy="0.5" r="0.5" transform="matrix(1 0 0 -1 1222.31 360.975)" fill="#FCFAFC"/>
<circle id="Ellipse 180" cx="0.5" cy="0.5" r="0.5" transform="matrix(1 0 0 -1 1283.31 312.975)" fill="#FCFAFC"/>
<circle id="Ellipse 181" cx="0.5" cy="0.5" r="0.5" transform="matrix(1 0 0 -1 1105.31 378.975)" fill="#FCFAFC"/>
<circle id="Ellipse 244" cx="2047.71" cy="221.884" r="1.5" transform="rotate(130.982 2047.71 221.884)" fill="#FCFAFC"/>
<circle id="Ellipse 249" cx="2063.96" cy="429.369" r="1.5" transform="rotate(130.982 2063.96 429.369)" fill="#FCFAFC"/>
<circle id="Ellipse 252" cx="1983.97" cy="410.885" r="1" transform="rotate(130.982 1983.97 410.885)" fill="#FCFAFC"/>
<circle id="Ellipse 254" cx="1967.3" cy="324.869" r="1" transform="rotate(130.982 1967.3 324.869)" fill="#FCFAFC"/>
<circle id="Ellipse 255" cx="2176.19" cy="311.615" r="1" transform="rotate(130.982 2176.19 311.615)" fill="#FCFAFC"/>
<circle id="Ellipse 182" cx="0.5" cy="0.5" r="0.5" transform="matrix(1 0 0 -1 809.308 383.975)" fill="#FCFAFC"/>
<circle id="Ellipse 183" cx="0.5" cy="0.5" r="0.5" transform="matrix(1 0 0 -1 842.308 378.975)" fill="#FCFAFC"/>
<circle id="Ellipse 184" cx="0.5" cy="0.5" r="0.5" transform="matrix(1 0 0 -1 968.308 414.975)" fill="#FCFAFC"/>
<circle id="Ellipse 185" cx="0.5" cy="0.5" r="0.5" transform="matrix(1 0 0 -1 720.308 242.975)" fill="#FCFAFC"/>
<circle id="Ellipse 186" cx="0.5" cy="0.5" r="0.5" transform="matrix(1 0 0 -1 670.308 318.975)" fill="#FCFAFC"/>
<circle id="Ellipse 187" cx="0.5" cy="0.5" r="0.5" transform="matrix(1 0 0 -1 727.308 379.975)" fill="#FCFAFC"/>
<circle id="Ellipse 188" cx="1.5" cy="1.5" r="1.5" transform="matrix(0.655827 0.754911 0.754911 -0.655827 533.775 178.71)" fill="#FCFAFC"/>
<circle id="Ellipse 189" cx="1.5" cy="1.5" r="1.5" transform="matrix(0.655827 0.754911 0.754911 -0.655827 832.778 409.045)" fill="#FCFAFC"/>
<circle id="Ellipse 190" cx="1.5" cy="1.5" r="1.5" transform="matrix(-0.5583 -0.829639 -0.829639 0.5583 1353.6 287.236)" fill="#FCFAFC"/>
<circle id="Ellipse 191" cx="1.5" cy="1.5" r="1.5" transform="matrix(-0.5583 -0.829639 -0.829639 0.5583 1246.23 342.618)" fill="#FCFAFC"/>
<circle id="Ellipse 192" cx="1.5" cy="1.5" r="1.5" transform="matrix(-0.5583 -0.829639 -0.829639 0.5583 1189.6 396.393)" fill="#FCFAFC"/>
<circle id="Ellipse 193" cx="1.5" cy="1.5" r="1.5" transform="matrix(0.655827 0.754911 0.754911 -0.655827 517.528 386.195)" fill="#FCFAFC"/>
<circle id="Ellipse 194" cx="1.5" cy="1.5" r="1.5" transform="matrix(0.655827 0.754911 0.754911 -0.655827 684.368 372.395)" fill="#FCFAFC"/>
<circle id="Ellipse 195" cx="1" cy="1" r="1" transform="matrix(-0.5583 -0.829639 -0.829639 0.5583 1287.82 339.941)" fill="#FCFAFC"/>
<circle id="Ellipse 196" cx="1" cy="1" r="1" transform="matrix(0.655827 0.754911 0.754911 -0.655827 598.214 367.761)" fill="#FCFAFC"/>
<circle id="Ellipse 197" cx="1" cy="1" r="1" transform="matrix(-0.5583 -0.829639 -0.829639 0.5583 1275.56 454.264)" fill="#FCFAFC"/>
<circle id="Ellipse 198" cx="1" cy="1" r="1" transform="matrix(0.655827 0.754911 0.754911 -0.655827 614.889 281.743)" fill="#FCFAFC"/>
<circle id="Ellipse 199" cx="1" cy="1" r="1" transform="matrix(0.655827 0.754911 0.754911 -0.655827 406 268.489)" fill="#FCFAFC"/>
<circle id="Ellipse 200" cx="1" cy="1" r="1" transform="matrix(-0.5583 -0.829639 -0.829639 0.5583 1208.87 297.849)" fill="#FCFAFC"/>
<circle id="Ellipse 201" cx="1" cy="1" r="1" transform="matrix(0.655827 0.754911 0.754911 -0.655827 669.463 463.498)" fill="#FCFAFC"/>
<circle id="Ellipse 202" cx="1" cy="1" r="1" transform="matrix(0.655827 0.754911 0.754911 -0.655827 833.104 343.854)" fill="#FCFAFC"/>
<circle id="Ellipse 203" cx="1273.81" cy="270.241" r="0.5" fill="#FCFAFC"/>
<circle id="Ellipse 204" cx="1321.81" cy="153.241" r="0.5" fill="#FCFAFC"/>
<circle id="Ellipse 205" cx="1377.81" cy="112.241" r="0.5" fill="#FCFAFC"/>
<circle id="Ellipse 206" cx="1159.81" cy="145.241" r="0.5" fill="#FCFAFC"/>
<circle id="Ellipse 207" cx="1593.81" cy="264.241" r="0.5" fill="#FCFAFC"/>
<circle id="Ellipse 208" cx="1654.81" cy="312.241" r="0.5" fill="#FCFAFC"/>
<circle id="Ellipse 209" cx="1476.81" cy="246.241" r="0.5" fill="#FCFAFC"/>
<circle id="Ellipse 210" cx="1180.81" cy="241.241" r="0.5" fill="#FCFAFC"/>
<circle id="Ellipse 211" cx="1213.81" cy="246.241" r="0.5" fill="#FCFAFC"/>
<circle id="Ellipse 212" cx="1339.81" cy="210.241" r="0.5" fill="#FCFAFC"/>
<circle id="Ellipse 213" cx="1091.81" cy="382.241" r="0.5" fill="#FCFAFC"/>
<circle id="Ellipse 214" cx="1041.81" cy="306.241" r="0.5" fill="#FCFAFC"/>
<circle id="Ellipse 215" cx="1098.81" cy="245.241" r="0.5" fill="#FCFAFC"/>
<circle id="Ellipse 216" cx="906.891" cy="445.858" r="1.5" transform="rotate(-49.0176 906.891 445.858)" fill="#FCFAFC"/>
<circle id="Ellipse 217" cx="1205.89" cy="215.522" r="1.5" transform="rotate(-49.0176 1205.89 215.522)" fill="#FCFAFC"/>
<circle id="Ellipse 218" cx="1722.52" cy="337.887" r="1.5" transform="rotate(123.938 1722.52 337.887)" fill="#FCFAFC"/>
<circle id="Ellipse 219" cx="1615.15" cy="282.505" r="1.5" transform="rotate(123.938 1615.15 282.505)" fill="#FCFAFC"/>
<circle id="Ellipse 220" cx="1558.52" cy="228.73" r="1.5" transform="rotate(123.938 1558.52 228.73)" fill="#FCFAFC"/>
<circle id="Ellipse 221" cx="890.644" cy="238.372" r="1.5" transform="rotate(-49.0176 890.644 238.372)" fill="#FCFAFC"/>
<circle id="Ellipse 222" cx="1057.48" cy="252.173" r="1.5" transform="rotate(-49.0176 1057.48 252.173)" fill="#FCFAFC"/>
<circle id="Ellipse 223" cx="1657.43" cy="285.046" r="1" transform="rotate(123.938 1657.43 285.046)" fill="#FCFAFC"/>
<circle id="Ellipse 224" cx="970.625" cy="256.856" r="1" transform="rotate(-49.0176 970.625 256.856)" fill="#FCFAFC"/>
<circle id="Ellipse 225" cx="1645.17" cy="170.723" r="1" transform="rotate(123.938 1645.17 170.723)" fill="#FCFAFC"/>
<circle id="Ellipse 226" cx="987.299" cy="342.874" r="1" transform="rotate(-49.0176 987.299 342.874)" fill="#FCFAFC"/>
<circle id="Ellipse 227" cx="778.411" cy="356.127" r="1" transform="rotate(-49.0176 778.411 356.127)" fill="#FCFAFC"/>
<circle id="Ellipse 228" cx="1578.48" cy="327.139" r="1" transform="rotate(123.938 1578.48 327.139)" fill="#FCFAFC"/>
<circle id="Ellipse 229" cx="1041.87" cy="161.119" r="1" transform="rotate(-49.0176 1041.87 161.119)" fill="#FCFAFC"/>
<circle id="Ellipse 230" cx="1205.52" cy="280.763" r="1" transform="rotate(-49.0176 1205.52 280.763)" fill="#FCFAFC"/>
<circle id="Ellipse 231" cx="1680.79" cy="276.475" r="0.5" transform="rotate(180 1680.79 276.475)" fill="#FCFAFC"/>
<circle id="Ellipse 232" cx="1632.79" cy="393.475" r="0.5" transform="rotate(180 1632.79 393.475)" fill="#FCFAFC"/>
<circle id="Ellipse 233" cx="1576.79" cy="434.475" r="0.5" transform="rotate(180 1576.79 434.475)" fill="#FCFAFC"/>
<circle id="Ellipse 234" cx="1794.79" cy="401.475" r="0.5" transform="rotate(180 1794.79 401.475)" fill="#FCFAFC"/>
<circle id="Ellipse 235" cx="1360.79" cy="282.475" r="0.5" transform="rotate(180 1360.79 282.475)" fill="#FCFAFC"/>
<circle id="Ellipse 236" cx="1299.79" cy="234.475" r="0.5" transform="rotate(180 1299.79 234.475)" fill="#FCFAFC"/>
<circle id="Ellipse 237" cx="1477.79" cy="300.475" r="0.5" transform="rotate(180 1477.79 300.475)" fill="#FCFAFC"/>
<circle id="Ellipse 238" cx="1773.79" cy="305.475" r="0.5" transform="rotate(180 1773.79 305.475)" fill="#FCFAFC"/>
<circle id="Ellipse 239" cx="1740.79" cy="300.475" r="0.5" transform="rotate(180 1740.79 300.475)" fill="#FCFAFC"/>
<circle id="Ellipse 240" cx="1614.79" cy="336.475" r="0.5" transform="rotate(180 1614.79 336.475)" fill="#FCFAFC"/>
<circle id="Ellipse 241" cx="1862.79" cy="164.475" r="0.5" transform="rotate(180 1862.79 164.475)" fill="#FCFAFC"/>
<circle id="Ellipse 242" cx="1912.79" cy="240.475" r="0.5" transform="rotate(180 1912.79 240.475)" fill="#FCFAFC"/>
<circle id="Ellipse 243" cx="1855.79" cy="301.475" r="0.5" transform="rotate(180 1855.79 301.475)" fill="#FCFAFC"/>
<circle id="Ellipse 245" cx="1748.71" cy="331.194" r="1.5" transform="rotate(130.982 1748.71 331.194)" fill="#FCFAFC"/>
<circle id="Ellipse 246" cx="1232.08" cy="208.829" r="1.5" transform="rotate(-56.0617 1232.08 208.829)" fill="#FCFAFC"/>
<circle id="Ellipse 247" cx="1339.45" cy="264.211" r="1.5" transform="rotate(-56.0617 1339.45 264.211)" fill="#FCFAFC"/>
<circle id="Ellipse 248" cx="1396.08" cy="317.986" r="1.5" transform="rotate(-56.0617 1396.08 317.986)" fill="#FCFAFC"/>
<circle id="Ellipse 250" cx="1897.12" cy="294.543" r="1.5" transform="rotate(130.982 1897.12 294.543)" fill="#FCFAFC"/>
<circle id="Ellipse 251" cx="1297.17" cy="261.67" r="1" transform="rotate(-56.0617 1297.17 261.67)" fill="#FCFAFC"/>
<circle id="Ellipse 253" cx="1309.43" cy="375.992" r="1" transform="rotate(-56.0617 1309.43 375.992)" fill="#FCFAFC"/>
<circle id="Ellipse 256" cx="1376.12" cy="219.576" r="1" transform="rotate(-56.0617 1376.12 219.576)" fill="#FCFAFC"/>
<circle id="Ellipse 257" cx="1912.73" cy="385.597" r="1" transform="rotate(130.982 1912.73 385.597)" fill="#FCFAFC"/>
<circle id="Ellipse 258" cx="1749.08" cy="265.953" r="1" transform="rotate(130.982 1749.08 265.953)" fill="#FCFAFC"/>
<g id="vectorAnimation">
<path className="vectorAnimation2" d="M1298 155L1298 562" stroke="url(#paint17_linear_401_2630)" stroke-width="2"/>
<path className="vectorAnimation1" d="M924.6 182.163L1263.85 437.504" stroke="url(#paint18_linear_401_2630)" stroke-width="2"/>
<path className="vectorAnimation3" d="M2049.03 182.442L1359.81 451.264" stroke="url(#paint19_linear_401_2630)" stroke-width="2"/>
<path className="vectorAnimation4" d="M417 203L1081.35 411.223" stroke="url(#paint20_linear_401_2630)" stroke-width="2"/>
<path className="vectorAnimation5" d="M1720.84 146.009L1346 431" stroke="url(#paint21_linear_401_2630)" stroke-width="2"/>
</g>
</g>
</g>
</g>
<defs>
<filter id="filter0_f_401_2630" x="64.8242" y="199.5" width="2471.35" height="326.958" filterUnits="userSpaceOnUse" color-interpolation-filters="sRGB">
<feFlood flood-opacity="0" result="BackgroundImageFix"/>
<feBlend mode="normal" in="SourceGraphic" in2="BackgroundImageFix" result="shape"/>
<feGaussianBlur stdDeviation="0.5" result="effect1_foregroundBlur_401_2630"/>
</filter>
<linearGradient id="paint0_linear_401_2630" x1="1276" y1="0" x2="1276" y2="876" gradientUnits="userSpaceOnUse">
<stop stop-color="#050305" stop-opacity="0"/>
<stop offset="0.214611" stop-color="white"/>
<stop offset="0.405908" stop-color="white"/>
<stop offset="0.770833" stop-color="white" stop-opacity="0.72"/>
<stop offset="1" stop-color="#050305" stop-opacity="0"/>
</linearGradient>
<radialGradient id="paint1_radial_401_2630" cx="0" cy="0" r="1" gradientUnits="userSpaceOnUse" gradientTransform="translate(1288.5 265) rotate(-90) scale(227 1262.5)">
<stop stop-color="#22B9F4" stop-opacity="0.32"/>
<stop offset="1" stop-color="#0490D6"/>
</radialGradient>
<radialGradient id="paint2_radial_401_2630" cx="0" cy="0" r="1" gradientUnits="userSpaceOnUse" gradientTransform="translate(1288 265) rotate(-89.7334) scale(139.059 771.028)">
<stop stop-color="#8F3FBC"/>
<stop offset="0.598958" stop-color="#27125E"/>
</radialGradient>
<radialGradient id="paint3_radial_401_2630" cx="0" cy="0" r="1" gradientUnits="userSpaceOnUse" gradientTransform="translate(1289.5 265) rotate(-89.7336) scale(101.197 560.716)">
<stop stop-color="#C679D4"/>
<stop offset="0.598958" stop-color="#6A34A7"/>
</radialGradient>
<radialGradient id="paint4_radial_401_2630" cx="0" cy="0" r="1" gradientUnits="userSpaceOnUse" gradientTransform="translate(1290 265.5) rotate(-89.7313) scale(68.4971 382.76)">
<stop stop-color="#C977DB"/>
<stop offset="0.598958" stop-color="#7D35B2"/>
</radialGradient>
<linearGradient id="paint5_linear_401_2630" x1="1288.29" y1="380.66" x2="1272.07" y2="63.8303" gradientUnits="userSpaceOnUse">
<stop stop-color="#FCFAFC"/>
<stop offset="1" stop-color="#FCFAFC" stop-opacity="0"/>
</linearGradient>
<linearGradient id="paint6_linear_401_2630" x1="1289.06" y1="438.66" x2="1280.75" y2="121.217" gradientUnits="userSpaceOnUse">
<stop stop-color="#FCFAFC"/>
<stop offset="1" stop-color="#FCFAFC" stop-opacity="0"/>
</linearGradient>
<linearGradient id="paint7_linear_401_2630" x1="1242.5" y1="424.032" x2="1529.52" y2="323.42" gradientUnits="userSpaceOnUse">
<stop stop-color="#841AB0"/>
<stop offset="1" stop-color="#FCFAFC" stop-opacity="0"/>
</linearGradient>
<linearGradient id="paint8_linear_401_2630" x1="935.182" y1="452.903" x2="1332.44" y2="363.408" gradientUnits="userSpaceOnUse">
<stop stop-color="#3E1652" stop-opacity="0.32"/>
<stop offset="1" stop-color="#AB40D6" stop-opacity="0.64"/>
</linearGradient>
<radialGradient id="paint9_radial_401_2630" cx="0" cy="0" r="1" gradientUnits="userSpaceOnUse" gradientTransform="translate(1458.94 452.274) rotate(-89.4776) scale(493.37 1140.93)">
<stop stop-color="#3E1652" stop-opacity="0"/>
<stop offset="1" stop-color="#3E1652"/>
</radialGradient>
<linearGradient id="paint10_linear_401_2630" x1="1644.82" y1="452.903" x2="1247.56" y2="363.408" gradientUnits="userSpaceOnUse">
<stop stop-color="#3E1652" stop-opacity="0.32"/>
<stop offset="1" stop-color="#AB40D6" stop-opacity="0.64"/>
</linearGradient>
<linearGradient id="paint11_linear_401_2630" x1="1438.5" y1="421.032" x2="1151.48" y2="320.42" gradientUnits="userSpaceOnUse">
<stop stop-color="#841AB0"/>
<stop offset="1" stop-color="#FCFAFC" stop-opacity="0"/>
</linearGradient>
<linearGradient id="paint12_linear_401_2630" x1="1399" y1="610.871" x2="949.199" y2="456.098" gradientUnits="userSpaceOnUse">
<stop stop-color="#841AB0"/>
<stop offset="1" stop-color="#FCFAFC" stop-opacity="0"/>
</linearGradient>
<linearGradient id="paint13_linear_401_2630" x1="1561.5" y1="421.032" x2="1274.48" y2="320.42" gradientUnits="userSpaceOnUse">
<stop stop-color="#0490D6" stop-opacity="0.64"/>
<stop offset="1" stop-color="#FCFAFC" stop-opacity="0"/>
</linearGradient>
<linearGradient id="paint14_linear_401_2630" x1="1005.5" y1="424.032" x2="1292.52" y2="323.42" gradientUnits="userSpaceOnUse">
<stop stop-color="#0490D6" stop-opacity="0.64"/>
<stop offset="1" stop-color="#FCFAFC" stop-opacity="0"/>
</linearGradient>
<linearGradient id="paint15_linear_401_2630" x1="1026" y1="334.475" x2="1181.51" y2="78.5401" gradientUnits="userSpaceOnUse">
<stop stop-color="#0490D6" stop-opacity="0.64"/>
<stop offset="1" stop-color="#FCFAFC" stop-opacity="0"/>
</linearGradient>
<linearGradient id="paint16_linear_401_2630" x1="1301.21" y1="470.6" x2="1301.21" y2="201" gradientUnits="userSpaceOnUse">
<stop stop-color="#FCFAFC" stop-opacity="0"/>
<stop offset="0.456354" stop-color="#FCFAFC"/>
<stop offset="1" stop-color="#FCFAFC" stop-opacity="0"/>
</linearGradient>
<linearGradient id="paint17_linear_401_2630" x1="1298.5" y1="266.191" x2="1298.58" y2="459.093" gradientUnits="userSpaceOnUse">
<stop stop-color="#FCFAFC" stop-opacity="0"/>
<stop offset="0.456354" stop-color="#FCFAFC"/>
<stop offset="1" stop-color="#FCFAFC" stop-opacity="0"/>
</linearGradient>
<linearGradient id="paint18_linear_401_2630" x1="1076.65" y1="208.47" x2="1120.89" y2="462.407" gradientUnits="userSpaceOnUse">
<stop stop-color="#FCFAFC" stop-opacity="0"/>
<stop offset="0.456354" stop-color="#FCFAFC"/>
<stop offset="1" stop-color="#FCFAFC" stop-opacity="0"/>
</linearGradient>
<linearGradient id="paint19_linear_401_2630" x1="1711.71" y1="212.495" x2="1693.92" y2="474.004" gradientUnits="userSpaceOnUse">
<stop stop-color="#FCFAFC" stop-opacity="0"/>
<stop offset="0.456354" stop-color="#FCFAFC"/>
<stop offset="1" stop-color="#FCFAFC" stop-opacity="0"/>
</linearGradient>
<linearGradient id="paint20_linear_401_2630" x1="776.048" y1="217.503" x2="780.843" y2="404.793" gradientUnits="userSpaceOnUse">
<stop stop-color="#FCFAFC" stop-opacity="0"/>
<stop offset="0.456354" stop-color="#FCFAFC"/>
<stop offset="1" stop-color="#FCFAFC" stop-opacity="0"/>
</linearGradient>
<linearGradient id="paint21_linear_401_2630" x1="1514.04" y1="188.807" x2="1518.95" y2="419.194" gradientUnits="userSpaceOnUse">
<stop stop-color="#FCFAFC" stop-opacity="0"/>
<stop offset="0.456354" stop-color="#FCFAFC"/>
<stop offset="1" stop-color="#FCFAFC" stop-opacity="0"/>
</linearGradient>
</defs>
</svg>
