<svg width="1920" height="1080" viewBox="0 0 1920 1080" fill="none" className="SVGContact" xmlns="http://www.w3.org/2000/svg">
<g id="SGAContact">
<mask id="mask0_354_1788" style={{maskType : "alpha"}} maskUnits="userSpaceOnUse" x="0" y="0" width="1920" height="1080">
<rect id="Rectangle 1016" width="1920" height="1080" fill="url(#paint0_linear_354_1788)"/>
</mask>
<g mask="url(#mask0_354_1788)">
<g id="SGAContact_2">
<ellipse id="EfeitoLuz4" cx="925.9" cy="597.837" rx="264.906" ry="131.142" fill="#764385"/>
<ellipse id="EfeitoLuz3" opacity="0.64" cx="920.655" cy="516.005" rx="264.906" ry="131.142" fill="#841AB0"/>
<ellipse id="EfeitoLuz1" opacity="0.64" cx="922.917" cy="527.205" rx="746.843" ry="369.608" fill="url(#paint1_radial_354_1788)"/>
<ellipse id="EfeitoLuz2" opacity="0.64" cx="960.5" cy="539.6" rx="910.5" ry="450.6" fill="url(#paint2_radial_354_1788)"/>
<ellipse id="LuzEfeitoVariaGradiente2" opacity="0.64" cx="932.765" cy="498.441" rx="461.747" ry="228.516" fill="url(#paint3_radial_354_1788)"/>
<ellipse id="LuzEfeitoVariaGradiente1" opacity="0.64" cx="932.765" cy="498.441" rx="461.747" ry="228.516" fill="url(#paint4_radial_354_1788)"/>
<ellipse id="EfeitoLuz5" opacity="0.64" cx="920.654" cy="494.136" rx="320.51" ry="162.779" fill="url(#paint5_radial_354_1788)"/>
<ellipse id="EfeitoLuz6" opacity="0.64" cx="925.376" cy="590.493" rx="144.78" ry="43.0145" fill="#FCFAFC"/>
<ellipse id="EfeitoLuz7" opacity="0.64" cx="919.606" cy="584.172" rx="264.906" ry="78.6581" fill="url(#paint6_linear_354_1788)"/>
<ellipse id="EfeitoLuz8" opacity="0.64" cx="925.376" cy="613.32" rx="151.075" ry="44.8585" fill="url(#paint7_radial_354_1788)"/>
<g id="stars">
<circle id="Ellipse 88" cx="912.449" cy="411.837" r="0.428735" fill="#FCFAFC"/>
<circle id="Ellipse 89" cx="953.608" cy="311.513" r="0.428735" fill="#FCFAFC"/>
<circle id="Ellipse 90" cx="1001.63" cy="276.356" r="0.428735" fill="#FCFAFC"/>
<circle id="Ellipse 95" cx="814.698" cy="304.653" r="0.428735" fill="#FCFAFC"/>
<circle id="Ellipse 97" cx="1186.84" cy="406.692" r="0.428735" fill="#FCFAFC"/>
<circle id="Ellipse 99" cx="1239.15" cy="447.851" r="0.428735" fill="#FCFAFC"/>
<circle id="Ellipse 102" cx="1086.52" cy="391.258" r="0.428735" fill="#FCFAFC"/>
<circle id="Ellipse 103" cx="832.704" cy="386.971" r="0.428735" fill="#FCFAFC"/>
<circle id="Ellipse 106" cx="861.001" cy="391.258" r="0.428735" fill="#FCFAFC"/>
<circle id="Ellipse 107" cx="969.042" cy="360.389" r="0.428735" fill="#FCFAFC"/>
<circle id="Ellipse 108" cx="756.39" cy="507.874" r="0.428735" fill="#FCFAFC"/>
<circle id="Ellipse 109" cx="713.516" cy="442.706" r="0.428735" fill="#FCFAFC"/>
<circle id="Ellipse 115" cx="762.392" cy="390.4" r="0.428735" fill="#FCFAFC"/>
<circle id="Ellipse 116" cx="1012.77" cy="707.664" r="0.428735" transform="rotate(180 1012.77 707.664)" fill="#FCFAFC"/>
<circle id="Ellipse 117" cx="971.615" cy="807.988" r="0.428735" transform="rotate(180 971.615 807.988)" fill="#FCFAFC"/>
<circle id="Ellipse 118" cx="923.596" cy="843.145" r="0.428735" transform="rotate(180 923.596 843.145)" fill="#FCFAFC"/>
<circle id="Ellipse 119" cx="733.238" cy="653.644" r="0.428735" transform="rotate(180 733.238 653.644)" fill="#FCFAFC"/>
<circle id="Ellipse 120" cx="946.748" cy="758.255" r="0.428735" transform="rotate(180 946.748 758.255)" fill="#FCFAFC"/>
<circle id="Ellipse 121" cx="767.537" cy="815.705" r="0.428735" transform="rotate(180 767.537 815.705)" fill="#FCFAFC"/>
<circle id="Ellipse 122" cx="786.401" cy="786.552" r="0.428735" transform="rotate(180 786.401 786.552)" fill="#FCFAFC"/>
<circle id="Ellipse 123" cx="1110.52" cy="814.848" r="0.428735" transform="rotate(180 1110.52 814.848)" fill="#FCFAFC"/>
<circle id="Ellipse 124" cx="774.396" cy="615.915" r="0.428735" transform="rotate(180 774.396 615.915)" fill="#FCFAFC"/>
<circle id="Ellipse 125" cx="738.383" cy="712.809" r="0.428735" transform="rotate(180 738.383 712.809)" fill="#FCFAFC"/>
<circle id="Ellipse 126" cx="669.785" cy="579.901" r="0.428735" transform="rotate(180 669.785 579.901)" fill="#FCFAFC"/>
<circle id="Ellipse 128" cx="1063.36" cy="780.549" r="0.428735" transform="rotate(180 1063.36 780.549)" fill="#FCFAFC"/>
<circle id="Ellipse 130" cx="838.707" cy="728.243" r="0.428735" transform="rotate(180 838.707 728.243)" fill="#FCFAFC"/>
<circle id="Ellipse 132" cx="1206.56" cy="616.772" r="0.428735" transform="rotate(180 1206.56 616.772)" fill="#FCFAFC"/>
<circle id="Ellipse 133" cx="1106.24" cy="670.793" r="0.428735" transform="rotate(180 1106.24 670.793)" fill="#FCFAFC"/>
<circle id="Ellipse 134" cx="1064.22" cy="728.243" r="0.428735" transform="rotate(180 1064.22 728.243)" fill="#FCFAFC"/>
<circle id="Ellipse 135" cx="956.18" cy="759.112" r="0.428735" transform="rotate(180 956.18 759.112)" fill="#FCFAFC"/>
<circle id="Ellipse 139" cx="1254.58" cy="645.927" r="0.428735" transform="rotate(180 1254.58 645.927)" fill="#FCFAFC"/>
<circle id="Ellipse 140" cx="1157.69" cy="675.938" r="0.428735" transform="rotate(180 1157.69 675.938)" fill="#FCFAFC"/>
<circle id="Ellipse 141" cx="1244.29" cy="612.485" r="0.428735" transform="rotate(180 1244.29 612.485)" fill="#FCFAFC"/>
<circle id="Ellipse 143" cx="1162.83" cy="729.101" r="0.428735" transform="rotate(180 1162.83 729.101)" fill="#FCFAFC"/>
<circle id="Ellipse 14" cx="597.83" cy="562.422" r="1.2862" transform="rotate(-49.0176 597.83 562.422)" fill="#FCFAFC"/>
<circle id="Ellipse 88_2" cx="854.216" cy="364.917" r="1.2862" transform="rotate(-49.0176 854.216 364.917)" fill="#FCFAFC"/>
<circle id="Ellipse 146" cx="945.622" cy="763.453" r="1.2862" transform="rotate(123.938 945.622 763.453)" fill="#FCFAFC"/>
<circle id="Ellipse 93" cx="580.078" cy="742.367" r="1.2862" transform="rotate(-49.0176 580.078 742.367)" fill="#FCFAFC"/>
<circle id="Ellipse 148" cx="1297.21" cy="469.84" r="1.2862" transform="rotate(123.938 1297.21 469.84)" fill="#FCFAFC"/>
<circle id="Ellipse 94" cx="614.944" cy="702.234" r="1.2862" transform="rotate(-49.0176 614.944 702.234)" fill="#FCFAFC"/>
<circle id="Ellipse 149" cx="1205.14" cy="422.353" r="1.2862" transform="rotate(123.938 1205.14 422.353)" fill="#FCFAFC"/>
<circle id="Ellipse 150" cx="849.495" cy="774.215" r="1.2862" transform="rotate(123.938 849.495 774.215)" fill="#FCFAFC"/>
<circle id="Ellipse 95_2" cx="657.476" cy="753.951" r="1.2862" transform="rotate(-49.0176 657.476 753.951)" fill="#FCFAFC"/>
<circle id="Ellipse 151" cx="1156.58" cy="376.243" r="1.2862" transform="rotate(123.938 1156.58 376.243)" fill="#FCFAFC"/>
<circle id="Ellipse 30" cx="583.899" cy="384.511" r="1.2862" transform="rotate(-49.0176 583.899 384.511)" fill="#FCFAFC"/>
<circle id="Ellipse 152" cx="1211.5" cy="710.858" r="1.2862" transform="rotate(123.938 1211.5 710.858)" fill="#FCFAFC"/>
<circle id="Ellipse 91" cx="726.959" cy="396.344" r="1.2862" transform="rotate(-49.0176 726.959 396.344)" fill="#FCFAFC"/>
<circle id="Ellipse 153" cx="1068.06" cy="716.658" r="1.2862" transform="rotate(123.938 1068.06 716.658)" fill="#FCFAFC"/>
<circle id="Ellipse 29" cx="609.761" cy="810.182" r="1.2862" transform="rotate(-49.0176 609.761 810.182)" fill="#FCFAFC"/>
<circle id="Ellipse 92" cx="617.857" cy="613.896" r="1.2862" transform="rotate(-49.0176 617.857 613.896)" fill="#FCFAFC"/>
<circle id="Ellipse 97_2" cx="569.567" cy="644.639" r="1.2862" transform="rotate(-49.0176 569.567 644.639)" fill="#FCFAFC"/>
<circle id="Ellipse 16" cx="579.226" cy="695.626" r="0.85747" transform="rotate(-49.0176 579.226 695.626)" fill="#FCFAFC"/>
<circle id="Ellipse 157" cx="1241.39" cy="424.531" r="0.85747" transform="rotate(123.938 1241.39 424.531)" fill="#FCFAFC"/>
<circle id="Ellipse 158" cx="1154.59" cy="644.14" r="0.85747" transform="rotate(123.938 1154.59 644.14)" fill="#FCFAFC"/>
<circle id="Ellipse 159" cx="997.71" cy="789.721" r="0.85747" transform="rotate(123.938 997.71 789.721)" fill="#FCFAFC"/>
<circle id="Ellipse 20" cx="652.479" cy="400.359" r="0.85747" transform="rotate(-49.0176 652.479 400.359)" fill="#FCFAFC"/>
<circle id="Ellipse 19" cx="629.844" cy="545.395" r="0.85747" transform="rotate(-49.0176 629.844 545.395)" fill="#FCFAFC"/>
<circle id="Ellipse 18" cx="577.64" cy="794.203" r="0.85747" transform="rotate(-49.0176 577.64 794.203)" fill="#FCFAFC"/>
<circle id="Ellipse 162" cx="1230.88" cy="326.503" r="0.85747" transform="rotate(123.938 1230.88 326.503)" fill="#FCFAFC"/>
<circle id="Ellipse 163" cx="1114.9" cy="637.072" r="0.85747" transform="rotate(123.938 1114.9 637.072)" fill="#FCFAFC"/>
<circle id="Ellipse 27" cx="666.777" cy="474.117" r="0.85747" transform="rotate(-49.0176 666.777 474.117)" fill="#FCFAFC"/>
<circle id="Ellipse 164" cx="1118.25" cy="632.092" r="0.85747" transform="rotate(123.938 1118.25 632.092)" fill="#FCFAFC"/>
<circle id="Ellipse 99_2" cx="932.778" cy="306.52" r="0.85747" transform="rotate(-49.0176 932.778 306.52)" fill="#FCFAFC"/>
<circle id="Ellipse 166" cx="874.815" cy="831.045" r="0.85747" transform="rotate(123.938 874.815 831.045)" fill="#FCFAFC"/>
<circle id="Ellipse 100" cx="641.661" cy="306.908" r="0.85747" transform="rotate(-49.0176 641.661 306.908)" fill="#FCFAFC"/>
<circle id="Ellipse 101" cx="487.662" cy="485.481" r="0.85747" transform="rotate(-49.0176 487.662 485.481)" fill="#FCFAFC"/>
<circle id="Ellipse 168" cx="1294.62" cy="598.847" r="0.85747" transform="rotate(123.938 1294.62 598.847)" fill="#FCFAFC"/>
<circle id="Ellipse 25" cx="650.839" cy="668.106" r="0.85747" transform="rotate(-49.0176 650.839 668.106)" fill="#FCFAFC"/>
<circle id="Ellipse 169" cx="1173.7" cy="460.625" r="0.85747" transform="rotate(123.938 1173.7 460.625)" fill="#FCFAFC"/>
<circle id="Ellipse 24" cx="713.573" cy="318.268" r="0.85747" transform="rotate(-49.0176 713.573 318.268)" fill="#FCFAFC"/>
<circle id="Ellipse 170" cx="1090.92" cy="792.502" r="0.85747" transform="rotate(123.938 1090.92 792.502)" fill="#FCFAFC"/>
<circle id="Ellipse 23" cx="777.419" cy="284.001" r="0.85747" transform="rotate(-49.0176 777.419 284.001)" fill="#FCFAFC"/>
<circle id="Ellipse 171" cx="1031.76" cy="834.341" r="0.85747" transform="rotate(123.938 1031.76 834.341)" fill="#FCFAFC"/>
<circle id="Ellipse 98" cx="856.747" cy="271.136" r="0.85747" transform="rotate(-49.0176 856.747 271.136)" fill="#FCFAFC"/>
<circle id="Ellipse 172" cx="954.611" cy="856.838" r="0.85747" transform="rotate(123.938 954.611 856.838)" fill="#FCFAFC"/>
<circle id="Ellipse 17" cx="853.891" cy="420.858" r="0.85747" transform="rotate(-49.0176 853.891 420.858)" fill="#FCFAFC"/>
<circle id="Ellipse 173" cx="939.085" cy="707.894" r="0.85747" transform="rotate(123.938 939.085 707.894)" fill="#FCFAFC"/>
<circle id="Ellipse 15" cx="531.151" cy="582.301" r="1.71494" transform="rotate(-49.0176 531.151 582.301)" fill="#FCFAFC"/>
<circle id="Ellipse 174" cx="1303" cy="531.105" r="1.71494" transform="rotate(123.938 1303 531.105)" fill="#FCFAFC"/>
</g>
<path id="Vector" d="M1622 542.232L1220.18 613.052M928.523 664.456V538.56M928.523 664.456L832.527 547.478M928.523 664.456L731.811 547.478M928.523 664.456L1027.67 547.478M928.523 664.456L1133.1 538.56M928.523 664.456L1231.72 538.56M928.523 664.456L1337.68 538.56M928.523 664.456L1427.39 538.56M928.523 664.456L1550.13 535.413M928.523 664.456L627.422 538.56M928.523 664.456L520.935 538.56M928.523 664.456L431.234 538.56M928.523 664.456L330.517 538.56M928.523 664.456L948.981 660.851M928.523 664.456L913.311 661.678L904.918 660.145M239.243 538.56L712.926 625.078M1220.18 613.052C992.648 621.471 864.438 621.344 634.766 613.573C862.706 608.855 990.855 608.722 1220.18 613.573M1220.18 613.052L1148.32 625.718M1148.32 625.718C979.896 628.704 884.545 628.52 712.926 625.078M1148.32 625.718L1105.3 633.299M1148.32 625.718C978.651 622.421 883.303 622.501 712.926 625.718M712.926 625.078L753.331 632.458M753.331 632.458C892.546 635.15 969.663 635.382 1105.3 633.299M753.331 632.458L803.676 641.653M1105.3 633.299L1040.26 644.764M1073.83 636.654C959.038 639.597 894.348 639.409 778.497 636.654M803.676 641.653C901.666 642.743 956.77 642.814 1055.47 641.653M803.676 641.653L820.706 644.764M1040.26 644.764C954.506 646.196 906.449 646.13 820.706 644.764M1040.26 644.764L1012.45 649.664M820.706 644.764L837.248 647.785M837.248 647.785C910.74 648.657 951.731 648.714 1024.52 647.785M837.248 647.785L847.533 649.664M1012.45 649.664C948.943 650.373 912.803 650.349 847.533 649.664M1012.45 649.664L1002.45 651.426M847.533 649.664L857.182 651.426M857.182 651.426H1002.45M857.182 651.426L863.225 652.53M1002.45 651.426L996.192 652.53M996.192 652.53H863.225M996.192 652.53L990.495 653.534M863.225 652.53L868.722 653.534M868.722 653.534H990.495M868.722 653.534L873.855 654.471M990.495 653.534L985.176 654.471M985.176 654.471H873.855M985.176 654.471L978.536 655.642M873.855 654.471L880.263 655.642M880.263 655.642H978.536M880.263 655.642L885.497 656.598M978.536 655.642L973.111 656.598M973.111 656.598H885.497M973.111 656.598L969.294 657.271M885.497 656.598L889.181 657.271M889.181 657.271H969.294M889.181 657.271L892.584 657.892M969.294 657.271L965.767 657.892M965.767 657.892H892.584M965.767 657.892L955.8 659.649M892.584 657.892L898.623 658.995M898.623 658.995H962.62M898.623 658.995L902.201 659.649M955.8 659.649H902.201M955.8 659.649L952.986 660.145M902.201 659.649L904.918 660.145M904.918 660.145H952.986M952.986 660.145L948.981 660.851M948.981 660.851H908.065M1370.21 589.968C1031.22 606.33 837.925 606.429 488.412 589.968C833.119 584.729 1026.2 584.629 1370.21 589.968Z" stroke="url(#paint8_linear_354_1788)" stroke-width="1.04913" stroke-linecap="round" stroke-linejoin="round"/>
<path id="EfeitoLuz11" d="M930.097 596.788L937.516 619.623H961.527L942.102 633.737L949.521 656.572L930.097 642.459L910.672 656.572L918.091 633.737L898.666 619.623H922.677L930.097 596.788Z" fill="#FCFAFC"/>
<path id="EfeitoLuz9" d="M743.921 528.163L916.979 655.468L534.96 578.076L743.921 528.163Z" fill="url(#paint9_linear_354_1788)"/>
<path id="EfeitoLuz10" d="M1080.08 528.025L908.799 666.908L1291.23 591.575L1080.08 528.025Z" fill="url(#paint10_linear_354_1788)"/>
</g>
</g>
</g>
<defs>
<linearGradient id="paint0_linear_354_1788" x1="960" y1="0" x2="960" y2="1080" gradientUnits="userSpaceOnUse">
<stop offset="0.00203678" stop-color="#050305" stop-opacity="0"/>
<stop offset="0.2558" stop-color="white" stop-opacity="0.8"/>
<stop offset="0.414089" stop-color="white"/>
<stop offset="0.632534" stop-color="white"/>
<stop offset="0.761434" stop-color="white" stop-opacity="0.8"/>
<stop offset="1" stop-color="#050305" stop-opacity="0"/>
</linearGradient>
<radialGradient id="paint1_radial_354_1788" cx="0" cy="0" r="1" gradientUnits="userSpaceOnUse" gradientTransform="translate(922.917 527.205) rotate(90) scale(369.608 746.843)">
<stop offset="0.133478" stop-color="#841AB0" stop-opacity="0"/>
<stop offset="1" stop-color="#0490D6" stop-opacity="0.32"/>
</radialGradient>
<radialGradient id="paint2_radial_354_1788" cx="0" cy="0" r="1" gradientUnits="userSpaceOnUse" gradientTransform="translate(960.5 539.6) rotate(90) scale(450.6 910.5)">
<stop stop-color="#841AB0" stop-opacity="0"/>
<stop offset="0.677083" stop-color="#24205A" stop-opacity="0.64"/>
<stop offset="1" stop-color="#130F14" stop-opacity="0"/>
</radialGradient>
<radialGradient id="paint3_radial_354_1788" cx="0" cy="0" r="1" gradientUnits="userSpaceOnUse" gradientTransform="translate(932.765 498.441) rotate(90) scale(228.516 461.747)">
<stop offset="0.628005" stop-color="#841AB0" stop-opacity="0.32"/>
<stop offset="1" stop-color="#0490D6" stop-opacity="0.64"/>
</radialGradient>
<radialGradient id="paint4_radial_354_1788" cx="0" cy="0" r="1" gradientUnits="userSpaceOnUse" gradientTransform="translate(932.765 498.441) rotate(90) scale(228.516 461.747)">
<stop offset="0.133478" stop-color="#3858CF" stop-opacity="0.32"/>
<stop offset="1" stop-color="#4A2DBA"/>
</radialGradient>
<radialGradient id="paint5_radial_354_1788" cx="0" cy="0" r="1" gradientUnits="userSpaceOnUse" gradientTransform="translate(920.654 494.136) rotate(90.1619) scale(162.779 320.511)">
<stop offset="0.0344443" stop-color="#841AB0"/>
<stop offset="0.651042" stop-color="#841AB0" stop-opacity="0"/>
</radialGradient>
<linearGradient id="paint6_linear_354_1788" x1="919.606" y1="505.514" x2="919.606" y2="662.83" gradientUnits="userSpaceOnUse">
<stop stop-color="#FCFAFC"/>
<stop offset="1" stop-color="#FCFAFC" stop-opacity="0"/>
</linearGradient>
<radialGradient id="paint7_radial_354_1788" cx="0" cy="0" r="1" gradientUnits="userSpaceOnUse" gradientTransform="translate(925.376 613.32) rotate(90) scale(44.8585 151.075)">
<stop stop-color="#FCFAFC" stop-opacity="0"/>
<stop offset="1" stop-color="#ECDFF0"/>
</radialGradient>
<linearGradient id="paint8_linear_354_1788" x1="930.621" y1="534.889" x2="930.621" y2="680.718" gradientUnits="userSpaceOnUse">
<stop offset="0.0791455" stop-color="#F5EEF7" stop-opacity="0"/>
<stop offset="0.322917" stop-color="#FCFAFC"/>
<stop offset="0.677083" stop-color="#FAF6FA" stop-opacity="0.8"/>
<stop offset="0.838542" stop-color="#F5EEF7" stop-opacity="0"/>
</linearGradient>
<linearGradient id="paint9_linear_354_1788" x1="602.799" y1="569.982" x2="912.061" y2="670.26" gradientUnits="userSpaceOnUse">
<stop stop-color="#3349C5"/>
<stop offset="1" stop-color="#3349C5" stop-opacity="0"/>
</linearGradient>
<linearGradient id="paint10_linear_354_1788" x1="1205.21" y1="530.72" x2="955.893" y2="710.651" gradientUnits="userSpaceOnUse">
<stop stop-color="#A283EF"/>
<stop offset="1" stop-color="#A283EF" stop-opacity="0"/>
</linearGradient>
</defs>
</svg>
