<svg width="1576" height="1576" viewBox="0 0 1576 1576" className="SVGCv" fill="none" xmlns="http://www.w3.org/2000/svg">
<g id="SVGCv">
<g id="circle-shadow-3" filter="url(#filter0_di_309_1999)">
<circle id="Ellipse 260" cx="787.517" cy="787.517" r="600" transform="rotate(-66.8599 787.517 787.517)" fill="#06020A"/>
</g>
<g id="circle-shadow-2" filter="url(#filter1_di_309_1999)">
<circle id="Ellipse 260_2" cx="787.264" cy="787.717" r="500" transform="rotate(-66.8599 787.264 787.717)" fill="#06020A"/>
</g>
<g id="circle-purple" filter="url(#filter2_di_309_1999)">
<ellipse id="Ellipse 259" cx="788.248" cy="766.9" rx="381.982" ry="378.526" fill="url(#paint0_linear_309_1999)"/>
<ellipse id="Ellipse 260_3" cx="788.011" cy="791.992" rx="400" ry="396.382" fill="#06020A"/>
</g>
<g id="circle-blue" filter="url(#filter3_di_309_1999)">
<ellipse id="Ellipse 259_2" cx="788.177" cy="771.895" rx="286.486" ry="283.895" fill="url(#paint1_linear_309_1999)"/>
<ellipse id="Ellipse 260_4" cx="788" cy="790.714" rx="300" ry="297.286" fill="#06020A"/>
</g>
<g id="circle-white" filter="url(#filter4_di_309_1999)">
<ellipse id="Ellipse 259_3" cx="787.192" cy="787" rx="190.745" ry="200" fill="url(#paint2_linear_309_1999)"/>
<ellipse id="Ellipse 260_5" cx="787" cy="787" rx="200" ry="196.19" fill="#06020A"/>
</g>
<g id="starContainer">
<g id="star-3">
<circle id="Ellipse 175" cx="573.808" cy="499.5" r="0.5" fill="#FCFAFC"/>
<circle id="Ellipse 176" cx="621.808" cy="382.5" r="0.5" fill="#FCFAFC"/>
<circle id="Ellipse 177" cx="677.808" cy="341.5" r="0.5" fill="#FCFAFC"/>
<circle id="Ellipse 178" cx="459.808" cy="374.5" r="0.5" fill="#FCFAFC"/>
<circle id="Ellipse 179" cx="893.808" cy="493.5" r="0.5" fill="#FCFAFC"/>
<circle id="Ellipse 180" cx="954.808" cy="541.5" r="0.5" fill="#FCFAFC"/>
<circle id="Ellipse 181" cx="776.808" cy="475.5" r="0.5" fill="#FCFAFC"/>
<circle id="Ellipse 182" cx="480.808" cy="470.5" r="0.5" fill="#FCFAFC"/>
<circle id="Ellipse 183" cx="513.808" cy="475.5" r="0.5" fill="#FCFAFC"/>
<circle id="Ellipse 184" cx="639.808" cy="439.5" r="0.5" fill="#FCFAFC"/>
<circle id="Ellipse 185" cx="391.808" cy="611.5" r="0.5" fill="#FCFAFC"/>
<circle id="Ellipse 186" cx="341.808" cy="535.5" r="0.5" fill="#FCFAFC"/>
<circle id="Ellipse 187" cx="398.808" cy="474.5" r="0.5" fill="#FCFAFC"/>
<circle id="Ellipse 188" cx="690.808" cy="844.5" r="0.5" transform="rotate(180 690.808 844.5)" fill="#FCFAFC"/>
<circle id="Ellipse 189" cx="642.808" cy="961.5" r="0.5" transform="rotate(180 642.808 961.5)" fill="#FCFAFC"/>
<circle id="Ellipse 190" cx="586.808" cy="1002.5" r="0.5" transform="rotate(180 586.808 1002.5)" fill="#FCFAFC"/>
<circle id="Ellipse 191" cx="364.808" cy="781.5" r="0.5" transform="rotate(180 364.808 781.5)" fill="#FCFAFC"/>
<circle id="Ellipse 192" cx="613.808" cy="903.5" r="0.5" transform="rotate(180 613.808 903.5)" fill="#FCFAFC"/>
<circle id="Ellipse 193" cx="404.808" cy="970.5" r="0.5" transform="rotate(180 404.808 970.5)" fill="#FCFAFC"/>
<circle id="Ellipse 194" cx="426.808" cy="936.5" r="0.5" transform="rotate(180 426.808 936.5)" fill="#FCFAFC"/>
<circle id="Ellipse 195" cx="804.808" cy="969.5" r="0.5" transform="rotate(180 804.808 969.5)" fill="#FCFAFC"/>
<circle id="Ellipse 196" cx="412.808" cy="737.5" r="0.5" transform="rotate(180 412.808 737.5)" fill="#FCFAFC"/>
<circle id="Ellipse 197" cx="370.808" cy="850.5" r="0.5" transform="rotate(180 370.808 850.5)" fill="#FCFAFC"/>
<circle id="Ellipse 198" cx="290.808" cy="695.5" r="0.5" transform="rotate(180 290.808 695.5)" fill="#FCFAFC"/>
<circle id="Ellipse 199" cx="749.808" cy="929.5" r="0.5" transform="rotate(180 749.808 929.5)" fill="#FCFAFC"/>
<circle id="Ellipse 200" cx="487.808" cy="868.5" r="0.5" transform="rotate(180 487.808 868.5)" fill="#FCFAFC"/>
<circle id="Ellipse 201" cx="916.808" cy="738.5" r="0.5" transform="rotate(180 916.808 738.5)" fill="#FCFAFC"/>
<circle id="Ellipse 202" cx="799.808" cy="801.5" r="0.5" transform="rotate(180 799.808 801.5)" fill="#FCFAFC"/>
<circle id="Ellipse 203" cx="750.808" cy="868.5" r="0.5" transform="rotate(180 750.808 868.5)" fill="#FCFAFC"/>
<circle id="Ellipse 204" cx="624.808" cy="904.5" r="0.5" transform="rotate(180 624.808 904.5)" fill="#FCFAFC"/>
<circle id="Ellipse 205" cx="972.808" cy="772.5" r="0.5" transform="rotate(180 972.808 772.5)" fill="#FCFAFC"/>
<circle id="Ellipse 206" cx="859.808" cy="807.5" r="0.5" transform="rotate(180 859.808 807.5)" fill="#FCFAFC"/>
<circle id="Ellipse 207" cx="960.808" cy="733.5" r="0.5" transform="rotate(180 960.808 733.5)" fill="#FCFAFC"/>
<circle id="Ellipse 208" cx="865.808" cy="869.5" r="0.5" transform="rotate(180 865.808 869.5)" fill="#FCFAFC"/>
<circle id="Ellipse 209" cx="206.891" cy="675.116" r="1.5" transform="rotate(-49.0176 206.891 675.116)" fill="#FCFAFC"/>
<circle id="Ellipse 210" cx="505.894" cy="444.781" r="1.5" transform="rotate(-49.0176 505.894 444.781)" fill="#FCFAFC"/>
<circle id="Ellipse 211" cx="612.494" cy="909.563" r="1.5" transform="rotate(123.938 612.494 909.563)" fill="#FCFAFC"/>
<circle id="Ellipse 212" cx="186.188" cy="884.971" r="1.5" transform="rotate(-49.0176 186.188 884.971)" fill="#FCFAFC"/>
<circle id="Ellipse 213" cx="1022.52" cy="567.145" r="1.5" transform="rotate(123.938 1022.52 567.145)" fill="#FCFAFC"/>
<circle id="Ellipse 214" cx="226.85" cy="838.168" r="1.5" transform="rotate(-49.0176 226.85 838.168)" fill="#FCFAFC"/>
<circle id="Ellipse 215" cx="915.146" cy="511.763" r="1.5" transform="rotate(123.938 915.146 511.763)" fill="#FCFAFC"/>
<circle id="Ellipse 216" cx="500.39" cy="922.112" r="1.5" transform="rotate(123.938 500.39 922.112)" fill="#FCFAFC"/>
<circle id="Ellipse 217" cx="858.522" cy="457.989" r="1.5" transform="rotate(123.938 858.522 457.989)" fill="#FCFAFC"/>
<circle id="Ellipse 218" cx="190.644" cy="467.631" r="1.5" transform="rotate(-49.0176 190.644 467.631)" fill="#FCFAFC"/>
<circle id="Ellipse 219" cx="922.563" cy="848.224" r="1.5" transform="rotate(123.938 922.563 848.224)" fill="#FCFAFC"/>
<circle id="Ellipse 220" cx="357.484" cy="481.431" r="1.5" transform="rotate(-49.0176 357.484 481.431)" fill="#FCFAFC"/>
<circle id="Ellipse 221" cx="755.29" cy="854.989" r="1.5" transform="rotate(123.938 755.29 854.989)" fill="#FCFAFC"/>
<circle id="Ellipse 222" cx="220.807" cy="964.058" r="1.5" transform="rotate(-49.0176 220.807 964.058)" fill="#FCFAFC"/>
<circle id="Ellipse 223" cx="230.247" cy="735.145" r="1.5" transform="rotate(-49.0176 230.247 735.145)" fill="#FCFAFC"/>
<circle id="Ellipse 224" cx="185.195" cy="830.46" r="1" transform="rotate(-49.0176 185.195 830.46)" fill="#FCFAFC"/>
<circle id="Ellipse 225" cx="957.43" cy="514.305" r="1" transform="rotate(123.938 957.43 514.305)" fill="#FCFAFC"/>
<circle id="Ellipse 226" cx="673.24" cy="940.196" r="1" transform="rotate(123.938 673.24 940.196)" fill="#FCFAFC"/>
<circle id="Ellipse 227" cx="270.625" cy="486.115" r="1" transform="rotate(-49.0176 270.625 486.115)" fill="#FCFAFC"/>
<circle id="Ellipse 228" cx="183.346" cy="945.423" r="1" transform="rotate(-49.0176 183.346 945.423)" fill="#FCFAFC"/>
<circle id="Ellipse 229" cx="945.168" cy="399.982" r="1" transform="rotate(123.938 945.168 399.982)" fill="#FCFAFC"/>
<circle id="Ellipse 230" cx="809.915" cy="762.174" r="1" transform="rotate(123.938 809.915 762.174)" fill="#FCFAFC"/>
<circle id="Ellipse 231" cx="287.299" cy="572.131" r="1" transform="rotate(-49.0176 287.299 572.131)" fill="#FCFAFC"/>
<circle id="Ellipse 232" cx="813.823" cy="756.366" r="1" transform="rotate(123.938 813.823 756.366)" fill="#FCFAFC"/>
<circle id="Ellipse 233" cx="78.4107" cy="585.385" r="1" transform="rotate(-49.0176 78.4107 585.385)" fill="#FCFAFC"/>
<circle id="Ellipse 234" cx="1019.51" cy="717.596" r="1" transform="rotate(123.938 1019.51 717.596)" fill="#FCFAFC"/>
<circle id="Ellipse 235" cx="268.712" cy="798.367" r="1" transform="rotate(-49.0176 268.712 798.367)" fill="#FCFAFC"/>
<circle id="Ellipse 236" cx="878.48" cy="556.397" r="1" transform="rotate(123.938 878.48 556.397)" fill="#FCFAFC"/>
<circle id="Ellipse 237" cx="341.874" cy="390.377" r="1" transform="rotate(-49.0176 341.874 390.377)" fill="#FCFAFC"/>
<circle id="Ellipse 238" cx="781.948" cy="943.441" r="1" transform="rotate(123.938 781.948 943.441)" fill="#FCFAFC"/>
<circle id="Ellipse 239" cx="622.978" cy="1018.47" r="1" transform="rotate(123.938 622.978 1018.47)" fill="#FCFAFC"/>
<circle id="Ellipse 240" cx="505.515" cy="510.022" r="1" transform="rotate(-49.0176 505.515 510.022)" fill="#FCFAFC"/>
</g>
<g id="star-1">
<circle id="Ellipse 175_2" cx="1047.81" cy="713.5" r="0.5" fill="#FCFAFC"/>
<circle id="Ellipse 176_2" cx="1095.81" cy="596.5" r="0.5" fill="#FCFAFC"/>
<circle id="Ellipse 177_2" cx="1151.81" cy="555.5" r="0.5" fill="#FCFAFC"/>
<circle id="Ellipse 178_2" cx="933.808" cy="588.5" r="0.5" fill="#FCFAFC"/>
<circle id="Ellipse 179_2" cx="1367.81" cy="707.5" r="0.5" fill="#FCFAFC"/>
<circle id="Ellipse 180_2" cx="1428.81" cy="755.5" r="0.5" fill="#FCFAFC"/>
<circle id="Ellipse 181_2" cx="1250.81" cy="689.5" r="0.5" fill="#FCFAFC"/>
<circle id="Ellipse 182_2" cx="954.808" cy="684.5" r="0.5" fill="#FCFAFC"/>
<circle id="Ellipse 183_2" cx="987.808" cy="689.5" r="0.5" fill="#FCFAFC"/>
<circle id="Ellipse 184_2" cx="1113.81" cy="653.5" r="0.5" fill="#FCFAFC"/>
<circle id="Ellipse 185_2" cx="865.808" cy="825.5" r="0.5" fill="#FCFAFC"/>
<circle id="Ellipse 186_2" cx="815.808" cy="749.5" r="0.5" fill="#FCFAFC"/>
<circle id="Ellipse 187_2" cx="872.808" cy="688.5" r="0.5" fill="#FCFAFC"/>
<circle id="Ellipse 188_2" cx="1164.81" cy="1058.5" r="0.5" transform="rotate(180 1164.81 1058.5)" fill="#FCFAFC"/>
<circle id="Ellipse 189_2" cx="1116.81" cy="1175.5" r="0.5" transform="rotate(180 1116.81 1175.5)" fill="#FCFAFC"/>
<circle id="Ellipse 190_2" cx="1060.81" cy="1216.5" r="0.5" transform="rotate(180 1060.81 1216.5)" fill="#FCFAFC"/>
<circle id="Ellipse 191_2" cx="838.808" cy="995.5" r="0.5" transform="rotate(180 838.808 995.5)" fill="#FCFAFC"/>
<circle id="Ellipse 192_2" cx="1087.81" cy="1117.5" r="0.5" transform="rotate(180 1087.81 1117.5)" fill="#FCFAFC"/>
<circle id="Ellipse 193_2" cx="878.808" cy="1184.5" r="0.5" transform="rotate(180 878.808 1184.5)" fill="#FCFAFC"/>
<circle id="Ellipse 194_2" cx="900.808" cy="1150.5" r="0.5" transform="rotate(180 900.808 1150.5)" fill="#FCFAFC"/>
<circle id="Ellipse 195_2" cx="1278.81" cy="1183.5" r="0.5" transform="rotate(180 1278.81 1183.5)" fill="#FCFAFC"/>
<circle id="Ellipse 196_2" cx="886.808" cy="951.5" r="0.5" transform="rotate(180 886.808 951.5)" fill="#FCFAFC"/>
<circle id="Ellipse 197_2" cx="844.808" cy="1064.5" r="0.5" transform="rotate(180 844.808 1064.5)" fill="#FCFAFC"/>
<circle id="Ellipse 198_2" cx="764.808" cy="909.5" r="0.5" transform="rotate(180 764.808 909.5)" fill="#FCFAFC"/>
<circle id="Ellipse 199_2" cx="1223.81" cy="1143.5" r="0.5" transform="rotate(180 1223.81 1143.5)" fill="#FCFAFC"/>
<circle id="Ellipse 200_2" cx="961.808" cy="1082.5" r="0.5" transform="rotate(180 961.808 1082.5)" fill="#FCFAFC"/>
<circle id="Ellipse 201_2" cx="1390.81" cy="952.5" r="0.5" transform="rotate(180 1390.81 952.5)" fill="#FCFAFC"/>
<circle id="Ellipse 202_2" cx="1273.81" cy="1015.5" r="0.5" transform="rotate(180 1273.81 1015.5)" fill="#FCFAFC"/>
<circle id="Ellipse 203_2" cx="1224.81" cy="1082.5" r="0.5" transform="rotate(180 1224.81 1082.5)" fill="#FCFAFC"/>
<circle id="Ellipse 204_2" cx="1098.81" cy="1118.5" r="0.5" transform="rotate(180 1098.81 1118.5)" fill="#FCFAFC"/>
<circle id="Ellipse 205_2" cx="1446.81" cy="986.5" r="0.5" transform="rotate(180 1446.81 986.5)" fill="#FCFAFC"/>
<circle id="Ellipse 206_2" cx="1333.81" cy="1021.5" r="0.5" transform="rotate(180 1333.81 1021.5)" fill="#FCFAFC"/>
<circle id="Ellipse 207_2" cx="1434.81" cy="947.5" r="0.5" transform="rotate(180 1434.81 947.5)" fill="#FCFAFC"/>
<circle id="Ellipse 208_2" cx="1339.81" cy="1083.5" r="0.5" transform="rotate(180 1339.81 1083.5)" fill="#FCFAFC"/>
<circle id="Ellipse 209_2" cx="680.891" cy="889.116" r="1.5" transform="rotate(-49.0176 680.891 889.116)" fill="#FCFAFC"/>
<circle id="Ellipse 210_2" cx="979.894" cy="658.781" r="1.5" transform="rotate(-49.0176 979.894 658.781)" fill="#FCFAFC"/>
<circle id="Ellipse 211_2" cx="1086.49" cy="1123.56" r="1.5" transform="rotate(123.938 1086.49 1123.56)" fill="#FCFAFC"/>
<circle id="Ellipse 212_2" cx="660.188" cy="1098.97" r="1.5" transform="rotate(-49.0176 660.188 1098.97)" fill="#FCFAFC"/>
<circle id="Ellipse 213_2" cx="1496.52" cy="781.145" r="1.5" transform="rotate(123.938 1496.52 781.145)" fill="#FCFAFC"/>
<circle id="Ellipse 214_2" cx="700.849" cy="1052.17" r="1.5" transform="rotate(-49.0176 700.849 1052.17)" fill="#FCFAFC"/>
<circle id="Ellipse 215_2" cx="1389.15" cy="725.763" r="1.5" transform="rotate(123.938 1389.15 725.763)" fill="#FCFAFC"/>
<circle id="Ellipse 216_2" cx="974.39" cy="1136.11" r="1.5" transform="rotate(123.938 974.39 1136.11)" fill="#FCFAFC"/>
<circle id="Ellipse 217_2" cx="1332.52" cy="671.989" r="1.5" transform="rotate(123.938 1332.52 671.989)" fill="#FCFAFC"/>
<circle id="Ellipse 218_2" cx="664.644" cy="681.631" r="1.5" transform="rotate(-49.0176 664.644 681.631)" fill="#FCFAFC"/>
<circle id="Ellipse 219_2" cx="1396.56" cy="1062.22" r="1.5" transform="rotate(123.938 1396.56 1062.22)" fill="#FCFAFC"/>
<circle id="Ellipse 220_2" cx="831.484" cy="695.431" r="1.5" transform="rotate(-49.0176 831.484 695.431)" fill="#FCFAFC"/>
<circle id="Ellipse 221_2" cx="1229.29" cy="1068.99" r="1.5" transform="rotate(123.938 1229.29 1068.99)" fill="#FCFAFC"/>
<circle id="Ellipse 222_2" cx="694.807" cy="1178.06" r="1.5" transform="rotate(-49.0176 694.807 1178.06)" fill="#FCFAFC"/>
<circle id="Ellipse 223_2" cx="704.247" cy="949.145" r="1.5" transform="rotate(-49.0176 704.247 949.145)" fill="#FCFAFC"/>
<circle id="Ellipse 224_2" cx="659.195" cy="1044.46" r="1" transform="rotate(-49.0176 659.195 1044.46)" fill="#FCFAFC"/>
<circle id="Ellipse 225_2" cx="1431.43" cy="728.305" r="1" transform="rotate(123.938 1431.43 728.305)" fill="#FCFAFC"/>
<circle id="Ellipse 226_2" cx="1147.24" cy="1154.2" r="1" transform="rotate(123.938 1147.24 1154.2)" fill="#FCFAFC"/>
<circle id="Ellipse 227_2" cx="744.625" cy="700.115" r="1" transform="rotate(-49.0176 744.625 700.115)" fill="#FCFAFC"/>
<circle id="Ellipse 228_2" cx="657.346" cy="1159.42" r="1" transform="rotate(-49.0176 657.346 1159.42)" fill="#FCFAFC"/>
<circle id="Ellipse 229_2" cx="1419.17" cy="613.982" r="1" transform="rotate(123.938 1419.17 613.982)" fill="#FCFAFC"/>
<circle id="Ellipse 230_2" cx="1283.91" cy="976.174" r="1" transform="rotate(123.938 1283.91 976.174)" fill="#FCFAFC"/>
<circle id="Ellipse 231_2" cx="761.299" cy="786.131" r="1" transform="rotate(-49.0176 761.299 786.131)" fill="#FCFAFC"/>
<circle id="Ellipse 232_2" cx="1287.82" cy="970.366" r="1" transform="rotate(123.938 1287.82 970.366)" fill="#FCFAFC"/>
<circle id="Ellipse 233_2" cx="552.411" cy="799.385" r="1" transform="rotate(-49.0176 552.411 799.385)" fill="#FCFAFC"/>
<circle id="Ellipse 234_2" cx="1493.51" cy="931.596" r="1" transform="rotate(123.938 1493.51 931.596)" fill="#FCFAFC"/>
<circle id="Ellipse 235_2" cx="742.712" cy="1012.37" r="1" transform="rotate(-49.0176 742.712 1012.37)" fill="#FCFAFC"/>
<circle id="Ellipse 236_2" cx="1352.48" cy="770.397" r="1" transform="rotate(123.938 1352.48 770.397)" fill="#FCFAFC"/>
<circle id="Ellipse 237_2" cx="815.874" cy="604.378" r="1" transform="rotate(-49.0176 815.874 604.378)" fill="#FCFAFC"/>
<circle id="Ellipse 238_2" cx="1255.95" cy="1157.44" r="1" transform="rotate(123.938 1255.95 1157.44)" fill="#FCFAFC"/>
<circle id="Ellipse 239_2" cx="1096.98" cy="1232.47" r="1" transform="rotate(123.938 1096.98 1232.47)" fill="#FCFAFC"/>
<circle id="Ellipse 240_2" cx="979.515" cy="724.022" r="1" transform="rotate(-49.0176 979.515 724.022)" fill="#FCFAFC"/>
</g>
<g id="star-2">
<circle id="Ellipse 175_3" cx="772.808" cy="583.5" r="0.5" fill="#FCFAFC"/>
<circle id="Ellipse 176_3" cx="820.808" cy="466.5" r="0.5" fill="#FCFAFC"/>
<circle id="Ellipse 177_3" cx="876.808" cy="425.5" r="0.5" fill="#FCFAFC"/>
<circle id="Ellipse 178_3" cx="658.808" cy="458.5" r="0.5" fill="#FCFAFC"/>
<circle id="Ellipse 179_3" cx="1092.81" cy="577.5" r="0.5" fill="#FCFAFC"/>
<circle id="Ellipse 180_3" cx="1153.81" cy="625.5" r="0.5" fill="#FCFAFC"/>
<circle id="Ellipse 181_3" cx="975.808" cy="559.5" r="0.5" fill="#FCFAFC"/>
<circle id="Ellipse 182_3" cx="679.808" cy="554.5" r="0.5" fill="#FCFAFC"/>
<circle id="Ellipse 183_3" cx="712.808" cy="559.5" r="0.5" fill="#FCFAFC"/>
<circle id="Ellipse 184_3" cx="838.808" cy="523.5" r="0.5" fill="#FCFAFC"/>
<circle id="Ellipse 185_3" cx="590.808" cy="695.5" r="0.5" fill="#FCFAFC"/>
<circle id="Ellipse 186_3" cx="540.808" cy="619.5" r="0.5" fill="#FCFAFC"/>
<circle id="Ellipse 187_3" cx="597.808" cy="558.5" r="0.5" fill="#FCFAFC"/>
<circle id="Ellipse 188_3" cx="889.808" cy="928.5" r="0.5" transform="rotate(180 889.808 928.5)" fill="#FCFAFC"/>
<circle id="Ellipse 189_3" cx="841.808" cy="1045.5" r="0.5" transform="rotate(180 841.808 1045.5)" fill="#FCFAFC"/>
<circle id="Ellipse 190_3" cx="785.808" cy="1086.5" r="0.5" transform="rotate(180 785.808 1086.5)" fill="#FCFAFC"/>
<circle id="Ellipse 191_3" cx="563.808" cy="865.5" r="0.5" transform="rotate(180 563.808 865.5)" fill="#FCFAFC"/>
<circle id="Ellipse 192_3" cx="812.808" cy="987.5" r="0.5" transform="rotate(180 812.808 987.5)" fill="#FCFAFC"/>
<circle id="Ellipse 193_3" cx="603.808" cy="1054.5" r="0.5" transform="rotate(180 603.808 1054.5)" fill="#FCFAFC"/>
<circle id="Ellipse 194_3" cx="625.808" cy="1020.5" r="0.5" transform="rotate(180 625.808 1020.5)" fill="#FCFAFC"/>
<circle id="Ellipse 195_3" cx="1003.81" cy="1053.5" r="0.5" transform="rotate(180 1003.81 1053.5)" fill="#FCFAFC"/>
<circle id="Ellipse 196_3" cx="611.808" cy="821.5" r="0.5" transform="rotate(180 611.808 821.5)" fill="#FCFAFC"/>
<circle id="Ellipse 197_3" cx="569.808" cy="934.5" r="0.5" transform="rotate(180 569.808 934.5)" fill="#FCFAFC"/>
<circle id="Ellipse 198_3" cx="489.808" cy="779.5" r="0.5" transform="rotate(180 489.808 779.5)" fill="#FCFAFC"/>
<circle id="Ellipse 199_3" cx="948.808" cy="1013.5" r="0.5" transform="rotate(180 948.808 1013.5)" fill="#FCFAFC"/>
<circle id="Ellipse 200_3" cx="686.808" cy="952.5" r="0.5" transform="rotate(180 686.808 952.5)" fill="#FCFAFC"/>
<circle id="Ellipse 201_3" cx="1115.81" cy="822.5" r="0.5" transform="rotate(180 1115.81 822.5)" fill="#FCFAFC"/>
<circle id="Ellipse 202_3" cx="998.808" cy="885.5" r="0.5" transform="rotate(180 998.808 885.5)" fill="#FCFAFC"/>
<circle id="Ellipse 203_3" cx="949.808" cy="952.5" r="0.5" transform="rotate(180 949.808 952.5)" fill="#FCFAFC"/>
<circle id="Ellipse 204_3" cx="823.808" cy="988.5" r="0.5" transform="rotate(180 823.808 988.5)" fill="#FCFAFC"/>
<circle id="Ellipse 205_3" cx="1171.81" cy="856.5" r="0.5" transform="rotate(180 1171.81 856.5)" fill="#FCFAFC"/>
<circle id="Ellipse 206_3" cx="1058.81" cy="891.5" r="0.5" transform="rotate(180 1058.81 891.5)" fill="#FCFAFC"/>
<circle id="Ellipse 207_3" cx="1159.81" cy="817.5" r="0.5" transform="rotate(180 1159.81 817.5)" fill="#FCFAFC"/>
<circle id="Ellipse 208_3" cx="1064.81" cy="953.5" r="0.5" transform="rotate(180 1064.81 953.5)" fill="#FCFAFC"/>
<circle id="Ellipse 209_3" cx="405.892" cy="759.116" r="1.5" transform="rotate(-49.0176 405.892 759.116)" fill="#FCFAFC"/>
<circle id="Ellipse 210_3" cx="704.894" cy="528.781" r="1.5" transform="rotate(-49.0176 704.894 528.781)" fill="#FCFAFC"/>
<circle id="Ellipse 211_3" cx="811.494" cy="993.563" r="1.5" transform="rotate(123.938 811.494 993.563)" fill="#FCFAFC"/>
<circle id="Ellipse 212_3" cx="385.188" cy="968.971" r="1.5" transform="rotate(-49.0176 385.188 968.971)" fill="#FCFAFC"/>
<circle id="Ellipse 213_3" cx="1221.52" cy="651.145" r="1.5" transform="rotate(123.938 1221.52 651.145)" fill="#FCFAFC"/>
<circle id="Ellipse 214_3" cx="425.85" cy="922.168" r="1.5" transform="rotate(-49.0176 425.85 922.168)" fill="#FCFAFC"/>
<circle id="Ellipse 215_3" cx="1114.15" cy="595.763" r="1.5" transform="rotate(123.938 1114.15 595.763)" fill="#FCFAFC"/>
<circle id="Ellipse 216_3" cx="699.39" cy="1006.11" r="1.5" transform="rotate(123.938 699.39 1006.11)" fill="#FCFAFC"/>
<circle id="Ellipse 217_3" cx="1057.52" cy="541.989" r="1.5" transform="rotate(123.938 1057.52 541.989)" fill="#FCFAFC"/>
<circle id="Ellipse 218_3" cx="389.644" cy="551.631" r="1.5" transform="rotate(-49.0176 389.644 551.631)" fill="#FCFAFC"/>
<circle id="Ellipse 219_3" cx="1121.56" cy="932.224" r="1.5" transform="rotate(123.938 1121.56 932.224)" fill="#FCFAFC"/>
<circle id="Ellipse 220_3" cx="556.484" cy="565.431" r="1.5" transform="rotate(-49.0176 556.484 565.431)" fill="#FCFAFC"/>
<circle id="Ellipse 221_3" cx="954.29" cy="938.989" r="1.5" transform="rotate(123.938 954.29 938.989)" fill="#FCFAFC"/>
<circle id="Ellipse 222_3" cx="419.807" cy="1048.06" r="1.5" transform="rotate(-49.0176 419.807 1048.06)" fill="#FCFAFC"/>
<circle id="Ellipse 223_3" cx="429.247" cy="819.145" r="1.5" transform="rotate(-49.0176 429.247 819.145)" fill="#FCFAFC"/>
<circle id="Ellipse 224_3" cx="384.195" cy="914.46" r="1" transform="rotate(-49.0176 384.195 914.46)" fill="#FCFAFC"/>
<circle id="Ellipse 225_3" cx="1156.43" cy="598.305" r="1" transform="rotate(123.938 1156.43 598.305)" fill="#FCFAFC"/>
<circle id="Ellipse 226_3" cx="872.24" cy="1024.2" r="1" transform="rotate(123.938 872.24 1024.2)" fill="#FCFAFC"/>
<circle id="Ellipse 227_3" cx="469.625" cy="570.115" r="1" transform="rotate(-49.0176 469.625 570.115)" fill="#FCFAFC"/>
<circle id="Ellipse 228_3" cx="382.346" cy="1029.42" r="1" transform="rotate(-49.0176 382.346 1029.42)" fill="#FCFAFC"/>
<circle id="Ellipse 229_3" cx="1144.17" cy="483.982" r="1" transform="rotate(123.938 1144.17 483.982)" fill="#FCFAFC"/>
<circle id="Ellipse 230_3" cx="1008.91" cy="846.174" r="1" transform="rotate(123.938 1008.91 846.174)" fill="#FCFAFC"/>
<circle id="Ellipse 231_3" cx="486.299" cy="656.131" r="1" transform="rotate(-49.0176 486.299 656.131)" fill="#FCFAFC"/>
<circle id="Ellipse 232_3" cx="1012.82" cy="840.366" r="1" transform="rotate(123.938 1012.82 840.366)" fill="#FCFAFC"/>
<circle id="Ellipse 233_3" cx="277.411" cy="669.385" r="1" transform="rotate(-49.0176 277.411 669.385)" fill="#FCFAFC"/>
<circle id="Ellipse 234_3" cx="1218.51" cy="801.596" r="1" transform="rotate(123.938 1218.51 801.596)" fill="#FCFAFC"/>
<circle id="Ellipse 235_3" cx="467.712" cy="882.367" r="1" transform="rotate(-49.0176 467.712 882.367)" fill="#FCFAFC"/>
<circle id="Ellipse 236_3" cx="1077.48" cy="640.397" r="1" transform="rotate(123.938 1077.48 640.397)" fill="#FCFAFC"/>
<circle id="Ellipse 237_3" cx="540.874" cy="474.377" r="1" transform="rotate(-49.0176 540.874 474.377)" fill="#FCFAFC"/>
<circle id="Ellipse 238_3" cx="980.948" cy="1027.44" r="1" transform="rotate(123.938 980.948 1027.44)" fill="#FCFAFC"/>
<circle id="Ellipse 239_3" cx="821.978" cy="1102.47" r="1" transform="rotate(123.938 821.978 1102.47)" fill="#FCFAFC"/>
<circle id="Ellipse 240_3" cx="704.515" cy="594.022" r="1" transform="rotate(-49.0176 704.515 594.022)" fill="#FCFAFC"/>
</g>
</g>
<g id="circle-2" filter="url(#filter5_f_309_1999)">
<circle id="Ellipse 263" cx="783" cy="788" r="449.5" stroke="#F5EEF7" stroke-opacity="0.48"/>
<g id="CoffStack-circle">
<circle cx="692.5" cy="347.5" r="10.5" fill="#06020A"/>
<circle cx="692.5" cy="347.5" r="10" stroke="#F5EEF7" stroke-opacity="0.48"/>
</g>
<g id="Ads-circle">
<circle cx="1232.5" cy="785.5" r="10.5" fill="#06020A"/>
<circle cx="1232.5" cy="785.5" r="10" stroke="#F5EEF7" stroke-opacity="0.48"/>
</g>
<g id="Tiger-circle">
<circle cx="490.5" cy="1128.5" r="10.5" fill="#06020A"/>
<circle cx="490.5" cy="1128.5" r="10" stroke="#F5EEF7" stroke-opacity="0.48"/>
</g>
</g>
<g id="circle-3" filter="url(#filter6_f_309_1999)">
<path id="Ellipse 263_2" d="M1021.42 1276.66C745.585 1408.92 415.825 1294.74 284.879 1021.64C153.932 748.545 271.378 419.933 547.215 287.674C823.052 155.414 1152.81 269.597 1283.76 542.695C1414.7 815.793 1297.26 1144.4 1021.42 1276.66Z" stroke="#F5EEF7" stroke-opacity="0.48"/>
<g id="Front-circle">
<ellipse cx="1225.93" cy="448" rx="12.8077" ry="12.9356" transform="rotate(64.383 1225.93 448)" fill="#06020A"/>
<path d="M1231.25 459.098C1225.05 462.069 1217.65 459.501 1214.71 453.377C1211.78 447.252 1214.41 439.873 1220.61 436.902C1226.8 433.931 1234.2 436.498 1237.14 442.623C1240.08 448.748 1237.45 456.126 1231.25 459.098Z" stroke="#F5EEF7" stroke-opacity="0.48"/>
</g>
<g id="Ellipse 265">
<ellipse cx="1024.15" cy="1275.23" rx="12.8077" ry="12.9356" transform="rotate(64.383 1024.15 1275.23)" fill="#06020A"/>
<path d="M1029.47 1286.33C1023.28 1289.3 1015.87 1286.74 1012.94 1280.61C1010 1274.49 1012.63 1267.11 1018.83 1264.14C1025.03 1261.16 1032.43 1263.73 1035.36 1269.86C1038.3 1275.98 1035.67 1283.36 1029.47 1286.33Z" stroke="#F5EEF7" stroke-opacity="0.48"/>
</g>
<g id="Mecatronic-circle">
<ellipse cx="251.811" cy="641.82" rx="12.8077" ry="12.9356" transform="rotate(64.383 251.811 641.82)" fill="#06020A"/>
<path d="M257.132 652.918C250.935 655.889 243.534 653.321 240.598 647.196C237.661 641.071 240.292 633.693 246.49 630.722C252.687 627.75 260.087 630.318 263.024 636.443C265.961 642.568 263.329 649.946 257.132 652.918Z" stroke="#F5EEF7" stroke-opacity="0.48"/>
</g>
</g>
<g id="circle-1" filter="url(#filter7_f_309_1999)">
<path id="Ellipse 263_3" d="M1043.36 992.597C928.04 1136.67 718.925 1160.89 576.289 1046.72C433.654 932.552 411.497 723.209 526.816 579.139C642.134 435.069 851.249 410.842 993.884 525.013C1136.52 639.183 1158.68 848.527 1043.36 992.597Z" stroke="#F5EEF7" stroke-opacity="0.48"/>
<g id="Obc-circle">
<ellipse cx="937.763" cy="488.499" rx="7.73077" ry="7.80799" transform="rotate(38.675 937.763 488.499)" fill="#06020A"/>
<path d="M943.408 493.018C940.883 496.173 936.31 496.697 933.196 494.205C930.082 491.712 929.593 487.136 932.118 483.981C934.643 480.826 939.216 480.301 942.33 482.794C945.444 485.287 945.933 489.863 943.408 493.018Z" stroke="#F5EEF7" stroke-opacity="0.48"/>
</g>
<g id="Language-circle">
<ellipse cx="1044.62" cy="991.228" rx="7.73077" ry="7.80799" transform="rotate(38.675 1044.62 991.228)" fill="#06020A"/>
<path d="M1050.27 995.747C1047.74 998.901 1043.17 999.426 1040.06 996.934C1036.94 994.441 1036.45 989.864 1038.98 986.71C1041.5 983.555 1046.08 983.03 1049.19 985.523C1052.3 988.015 1052.79 992.592 1050.27 995.747Z" stroke="#F5EEF7" stroke-opacity="0.48"/>
</g>
<g id="Ellipse 266">
<ellipse cx="458.731" cy="848.967" rx="7.73077" ry="7.80799" transform="rotate(38.675 458.731 848.967)" fill="#06020A"/>
<path d="M464.376 853.486C461.851 856.64 457.278 857.165 454.164 854.672C451.05 852.18 450.561 847.603 453.086 844.448C455.611 841.294 460.184 840.769 463.298 843.262C466.412 845.754 466.901 850.331 464.376 853.486Z" stroke="#F5EEF7" stroke-opacity="0.48"/>
</g>
</g>
<g id="Courses">
<g id="FrontPush">
<text id="FrontPush 2.0" fill="white" xmlSpace="preserve" style={{whiteSpace : "pre"}} font-family="Oxanium" font-size="32" font-weight="300" letter-spacing="0em"><tspan x="1257" y="459.28">FrontPush 2.0</tspan></text>
<g id="text">
<g id="Rectangle 28" filter="url(#filter8_b_309_1999)">
<rect x="1257" y="494" width="110" height="109" rx="16" fill="#06020A" fill-opacity="0.16"/>
</g>
<text id="React.js Sass Motion Design GSAP UX Design UI Design Figma" fill="white" xmlSpace="preserve" style={{whiteSpace : "pre"}} font-family="Outfit" font-size="16" font-weight="300" letter-spacing="0em"><tspan x="1281" y="509.42">React.js&#10;</tspan><tspan x="1281" y="528.42">Sass&#10;</tspan><tspan x="1281" y="547.42">Motion </tspan><tspan x="1281" y="566.42">Design&#10;</tspan><tspan x="1281" y="585.42">GSAP&#10;</tspan><tspan x="1281" y="604.42">UX Design&#10;</tspan><tspan x="1281" y="623.42">UI Design&#10;</tspan><tspan x="1281" y="642.42">Figma</tspan></text>
</g>
<text id="Completo" fill="#28BB49" fill-opacity="0.64" xmlSpace="preserve" style={{whiteSpace : "pre"}} font-family="Outfit" font-size="12" letter-spacing="0em"><tspan x="1260" y="483.94">Completo</tspan></text>
</g>
<g id="OneBitCode">
<text id="OneBitCode - FullStack" fill="white" xmlSpace="preserve" style={{whiteSpace : "pre"}} font-family="Oxanium" font-size="32" font-weight="300" letter-spacing="0em"><tspan x="748" y="473.28">OneBitCode - FullStack</tspan></text>
<g id="text_2">
<g id="Rectangle 28_2" filter="url(#filter9_b_309_1999)">
<rect x="748" y="508" width="110" height="124" rx="16" fill="#06020A" fill-opacity="0.16"/>
</g>
<text id="JavaScript React.js Sass TypeScript Next.Js Git e GitHub NodeJS MongoDB" fill="#ECDFF0" xmlSpace="preserve" style={{whiteSpace : "pre"}} font-family="Outfit" font-size="16" font-weight="300" letter-spacing="0em"><tspan x="772" y="523.42">JavaScript&#10;</tspan><tspan x="772" y="542.42">React.js&#10;</tspan><tspan x="772" y="561.42">Sass&#10;</tspan><tspan x="772" y="580.42">TypeScript&#10;</tspan><tspan x="772" y="599.42">Next.Js&#10;</tspan><tspan x="772" y="618.42">Git e GitHub&#10;</tspan><tspan x="772" y="637.42">NodeJS&#10;</tspan><tspan x="772" y="656.42">MongoDB</tspan></text>
</g>
<text id="Completo_2" fill="#28BB49" fill-opacity="0.64" xmlSpace="preserve" style={{whiteSpace : "pre"}} font-family="Outfit" font-size="12" letter-spacing="0em"><tspan x="751" y="497.94">Completo</tspan></text>
</g>
<g id="CoffStack">
<text id="CoffStack_2" fill="#ECDFF0" xmlSpace="preserve" style={{whiteSpace : "pre"}} font-family="Oxanium" font-size="32" font-weight="300" letter-spacing="0em"><tspan x="530" y="358.28">CoffStack</tspan></text>
<g id="text_3">
<g id="Rectangle 28_3" filter="url(#filter10_b_309_1999)">
<rect x="530" y="393" width="110" height="21" rx="10.5" fill="#06020A" fill-opacity="0.16"/>
</g>
<text id="React Native" fill="white" xmlSpace="preserve" style={{whiteSpace : "pre"}} font-family="Outfit" font-size="14" font-weight="300" letter-spacing="0em"><tspan x="551" y="405.68">React Native</tspan></text>
</g>
<text id="Incompleto" fill="#D9B043" fill-opacity="0.64" xmlSpace="preserve" style={{whiteSpace : "pre"}} font-family="Outfit" font-size="12" letter-spacing="0em"><tspan x="533" y="382.94">Incompleto</tspan></text>
</g>
<g id="Mectronics">
<text id="Eng. Mecatr&#195;&#180;nica - UnB" fill="white" xmlSpace="preserve" style={{whiteSpace : "pre"}} font-family="Oxanium" font-size="32" font-weight="300" letter-spacing="0em"><tspan x="287" y="653.28">Eng. Mecatr&#xf4;nica - UnB</tspan></text>
<g id="Group 24">
<g id="Rectangle 28_4" filter="url(#filter11_b_309_1999)">
<rect x="287" y="688" width="309" height="109" rx="16" fill="#06020A" fill-opacity="0.16"/>
</g>
<text id="text_4" fill="white" xmlSpace="preserve" style={{whiteSpace : "pre"}} font-family="Outfit" font-size="16" font-weight="300" letter-spacing="0em"><tspan x="311" y="703.42">Linguagem C&#10;</tspan><tspan x="311" y="722.42">Estrutura de Dados&#10;</tspan><tspan x="311" y="741.42">Eletr&#xf4;nica&#10;</tspan><tspan x="311" y="760.42">Circuitos L&#xf3;gicos&#10;</tspan><tspan x="311" y="779.42">Organiza&#xe7;&#xe3;o e Arquitetura de Computadores&#10;</tspan><tspan x="311" y="798.42">Assembly&#10;</tspan><tspan x="311" y="817.42">Empresa Junior ( Mecajun )</tspan></text>
</g>
<text id="Incompleto_2" fill="#D9B043" fill-opacity="0.64" xmlSpace="preserve" style={{whiteSpace : "pre"}} font-family="Outfit" font-size="12" letter-spacing="0em"><tspan x="290" y="677.94">Incompleto</tspan></text>
</g>
<g id="Ads">
<text id="An&#195;&#161;lise e Desenvolvimento de Sistemas - Unicesumar" fill="white" xmlSpace="preserve" style={{whiteSpace : "pre"}} font-family="Oxanium" font-size="32" font-weight="300" letter-spacing="0em"><tspan x="830" y="755.28">An&#xe1;lise e Desenvolvimento&#10;</tspan><tspan x="830" y="793.28">de Sistemas - Unicesumar</tspan></text>
<g id="text_5">
<g id="Rectangle 28_5" filter="url(#filter12_b_309_1999)">
<rect x="830" y="828" width="178" height="81" rx="16" fill="#06020A" fill-opacity="0.16"/>
</g>
<text id="L&#195;&#179;gica de Programa&#195;&#167;&#195;&#163;o Banco de dados Estrutura de Dados Java Design de Intera&#195;&#167;&#195;&#163;o" fill="white" xmlSpace="preserve" style={{whiteSpace : "pre"}} font-family="Outfit" font-size="16" font-weight="300" letter-spacing="0em"><tspan x="854" y="843.42">L&#xf3;gica de Programa&#xe7;&#xe3;o&#10;</tspan><tspan x="854" y="862.42">Banco de dados&#10;</tspan><tspan x="854" y="881.42">Estrutura de Dados&#10;</tspan><tspan x="854" y="900.42">Java&#10;</tspan><tspan x="854" y="919.42">Design de Intera&#xe7;&#xe3;o</tspan></text>
</g>
<text id="Completo_3" fill="#28BB49" fill-opacity="0.64" xmlSpace="preserve" style={{whiteSpace : "pre"}} font-family="Outfit" font-size="12" letter-spacing="0em"><tspan x="833" y="817.94">Completo</tspan></text>
</g>
<g id="TigerCodes">
<text id="TigerCodes_2" fill="white" xmlSpace="preserve" style={{whiteSpace : "pre"}} font-family="Oxanium" font-size="32" font-weight="300" letter-spacing="0em"><tspan x="520" y="1139.28">TigerCodes</tspan></text>
<g id="text_6">
<g id="Rectangle 28_6" filter="url(#filter13_b_309_1999)">
<rect x="520" y="1174" width="128" height="81" rx="16" fill="#06020A" fill-opacity="0.16"/>
</g>
<text id="HTML CSS JavaScript Design (UX e UI) Figma" fill="white" xmlSpace="preserve" style={{whiteSpace : "pre"}} font-family="Outfit" font-size="16" font-weight="300" letter-spacing="0em"><tspan x="544" y="1189.42">HTML&#10;</tspan><tspan x="544" y="1208.42">CSS&#10;</tspan><tspan x="544" y="1227.42">JavaScript&#10;</tspan><tspan x="544" y="1246.42">Design (UX e UI)&#10;</tspan><tspan x="544" y="1265.42">Figma</tspan></text>
</g>
<text id="Completo_4" fill="#28BB49" fill-opacity="0.64" xmlSpace="preserve" style={{whiteSpace : "pre"}} font-family="Outfit" font-size="12" letter-spacing="0em"><tspan x="523" y="1163.94">Completo</tspan></text>
</g>
<g id="Languages">
<text id="Ingl&#195;&#170;s e Espanhol" fill="white" xmlSpace="preserve" style={{whiteSpace : "pre"}} font-family="Oxanium" font-size="32" font-weight="300" letter-spacing="0em"><tspan x="761" y="1001.28">Ingl&#xea;s e Espanhol</tspan></text>
<text id="Intermedi&#195;&#161;rio" fill="#28BB49" fill-opacity="0.64" xmlSpace="preserve" style={{whiteSpace : "pre"}} font-family="Outfit" font-size="12" letter-spacing="0em"><tspan x="764" y="1025.94">Intermedi&#xe1;rio</tspan></text>
</g>
</g>
</g>
<defs>
<filter id="filter0_di_309_1999" x="124.517" y="124.517" width="1326" height="1326" filterUnits="userSpaceOnUse" color-interpolation-filters="sRGB">
<feFlood flood-opacity="0" result="BackgroundImageFix"/>
<feColorMatrix in="SourceAlpha" type="matrix" values="0 0 0 0 0 0 0 0 0 0 0 0 0 0 0 0 0 0 127 0" result="hardAlpha"/>
<feOffset/>
<feGaussianBlur stdDeviation="31.4226"/>
<feComposite in2="hardAlpha" operator="out"/>
<feColorMatrix type="matrix" values="0 0 0 0 0.0196078 0 0 0 0 0.0117647 0 0 0 0 0.0196078 0 0 0 1 0"/>
<feBlend mode="normal" in2="BackgroundImageFix" result="effect1_dropShadow_309_1999"/>
<feBlend mode="normal" in="SourceGraphic" in2="effect1_dropShadow_309_1999" result="shape"/>
<feColorMatrix in="SourceAlpha" type="matrix" values="0 0 0 0 0 0 0 0 0 0 0 0 0 0 0 0 0 0 127 0" result="hardAlpha"/>
<feOffset/>
<feGaussianBlur stdDeviation="31.4226"/>
<feComposite in2="hardAlpha" operator="arithmetic" k2="-1" k3="1"/>
<feColorMatrix type="matrix" values="0 0 0 0 0.988235 0 0 0 0 0.980392 0 0 0 0 0.988235 0 0 0 0.04 0"/>
<feBlend mode="normal" in2="shape" result="effect2_innerShadow_309_1999"/>
</filter>
<filter id="filter1_di_309_1999" x="224.29" y="224.743" width="1125.95" height="1125.95" filterUnits="userSpaceOnUse" color-interpolation-filters="sRGB">
<feFlood flood-opacity="0" result="BackgroundImageFix"/>
<feColorMatrix in="SourceAlpha" type="matrix" values="0 0 0 0 0 0 0 0 0 0 0 0 0 0 0 0 0 0 127 0" result="hardAlpha"/>
<feOffset/>
<feGaussianBlur stdDeviation="31.4226"/>
<feComposite in2="hardAlpha" operator="out"/>
<feColorMatrix type="matrix" values="0 0 0 0 0.0196078 0 0 0 0 0.0117647 0 0 0 0 0.0196078 0 0 0 1 0"/>
<feBlend mode="normal" in2="BackgroundImageFix" result="effect1_dropShadow_309_1999"/>
<feBlend mode="normal" in="SourceGraphic" in2="effect1_dropShadow_309_1999" result="shape"/>
<feColorMatrix in="SourceAlpha" type="matrix" values="0 0 0 0 0 0 0 0 0 0 0 0 0 0 0 0 0 0 127 0" result="hardAlpha"/>
<feOffset/>
<feGaussianBlur stdDeviation="31.4226"/>
<feComposite in2="hardAlpha" operator="arithmetic" k2="-1" k3="1"/>
<feColorMatrix type="matrix" values="0 0 0 0 0.988235 0 0 0 0 0.980392 0 0 0 0 0.988235 0 0 0 0.04 0"/>
<feBlend mode="normal" in2="shape" result="effect2_innerShadow_309_1999"/>
</filter>
<filter id="filter2_di_309_1999" x="325.166" y="325.529" width="925.691" height="925.691" filterUnits="userSpaceOnUse" color-interpolation-filters="sRGB">
<feFlood flood-opacity="0" result="BackgroundImageFix"/>
<feColorMatrix in="SourceAlpha" type="matrix" values="0 0 0 0 0 0 0 0 0 0 0 0 0 0 0 0 0 0 127 0" result="hardAlpha"/>
<feOffset/>
<feGaussianBlur stdDeviation="31.4226"/>
<feComposite in2="hardAlpha" operator="out"/>
<feColorMatrix type="matrix" values="0 0 0 0 0.0196078 0 0 0 0 0.0117647 0 0 0 0 0.0196078 0 0 0 1 0"/>
<feBlend mode="normal" in2="BackgroundImageFix" result="effect1_dropShadow_309_1999"/>
<feBlend mode="normal" in="SourceGraphic" in2="effect1_dropShadow_309_1999" result="shape"/>
<feColorMatrix in="SourceAlpha" type="matrix" values="0 0 0 0 0 0 0 0 0 0 0 0 0 0 0 0 0 0 127 0" result="hardAlpha"/>
<feOffset/>
<feGaussianBlur stdDeviation="31.4226"/>
<feComposite in2="hardAlpha" operator="arithmetic" k2="-1" k3="1"/>
<feColorMatrix type="matrix" values="0 0 0 0 0.988235 0 0 0 0 0.980392 0 0 0 0 0.988235 0 0 0 0.04 0"/>
<feBlend mode="normal" in2="shape" result="effect2_innerShadow_309_1999"/>
</filter>
<filter id="filter3_di_309_1999" x="434.103" y="434.103" width="707.794" height="707.794" filterUnits="userSpaceOnUse" color-interpolation-filters="sRGB">
<feFlood flood-opacity="0" result="BackgroundImageFix"/>
<feColorMatrix in="SourceAlpha" type="matrix" values="0 0 0 0 0 0 0 0 0 0 0 0 0 0 0 0 0 0 127 0" result="hardAlpha"/>
<feOffset/>
<feGaussianBlur stdDeviation="26.9485"/>
<feComposite in2="hardAlpha" operator="out"/>
<feColorMatrix type="matrix" values="0 0 0 0 0.0196078 0 0 0 0 0.0117647 0 0 0 0 0.0196078 0 0 0 1 0"/>
<feBlend mode="normal" in2="BackgroundImageFix" result="effect1_dropShadow_309_1999"/>
<feBlend mode="normal" in="SourceGraphic" in2="effect1_dropShadow_309_1999" result="shape"/>
<feColorMatrix in="SourceAlpha" type="matrix" values="0 0 0 0 0 0 0 0 0 0 0 0 0 0 0 0 0 0 127 0" result="hardAlpha"/>
<feOffset/>
<feGaussianBlur stdDeviation="26.9485"/>
<feComposite in2="hardAlpha" operator="arithmetic" k2="-1" k3="1"/>
<feColorMatrix type="matrix" values="0 0 0 0 0.988235 0 0 0 0 0.980392 0 0 0 0 0.988235 0 0 0 0.04 0"/>
<feBlend mode="normal" in2="shape" result="effect2_innerShadow_309_1999"/>
</filter>
<filter id="filter4_di_309_1999" x="533.103" y="533.103" width="507.794" height="507.794" filterUnits="userSpaceOnUse" color-interpolation-filters="sRGB">
<feFlood flood-opacity="0" result="BackgroundImageFix"/>
<feColorMatrix in="SourceAlpha" type="matrix" values="0 0 0 0 0 0 0 0 0 0 0 0 0 0 0 0 0 0 127 0" result="hardAlpha"/>
<feOffset/>
<feGaussianBlur stdDeviation="26.9485"/>
<feComposite in2="hardAlpha" operator="out"/>
<feColorMatrix type="matrix" values="0 0 0 0 0.0196078 0 0 0 0 0.0117647 0 0 0 0 0.0196078 0 0 0 1 0"/>
<feBlend mode="normal" in2="BackgroundImageFix" result="effect1_dropShadow_309_1999"/>
<feBlend mode="normal" in="SourceGraphic" in2="effect1_dropShadow_309_1999" result="shape"/>
<feColorMatrix in="SourceAlpha" type="matrix" values="0 0 0 0 0 0 0 0 0 0 0 0 0 0 0 0 0 0 127 0" result="hardAlpha"/>
<feOffset/>
<feGaussianBlur stdDeviation="26.9485"/>
<feComposite in2="hardAlpha" operator="arithmetic" k2="-1" k3="1"/>
<feColorMatrix type="matrix" values="0 0 0 0 0.988235 0 0 0 0 0.980392 0 0 0 0 0.988235 0 0 0 0.04 0"/>
<feBlend mode="normal" in2="shape" result="effect2_innerShadow_309_1999"/>
</filter>
<filter id="filter5_f_309_1999" x="332" y="336" width="912" height="903" filterUnits="userSpaceOnUse" color-interpolation-filters="sRGB">
<feFlood flood-opacity="0" result="BackgroundImageFix"/>
<feBlend mode="normal" in="SourceGraphic" in2="BackgroundImageFix" result="shape"/>
<feGaussianBlur stdDeviation="0.5" result="effect1_foregroundBlur_309_1999"/>
</filter>
<filter id="filter6_f_309_1999" x="229.825" y="231.113" width="1108.99" height="1102.11" filterUnits="userSpaceOnUse" color-interpolation-filters="sRGB">
<feFlood flood-opacity="0" result="BackgroundImageFix"/>
<feBlend mode="normal" in="SourceGraphic" in2="BackgroundImageFix" result="shape"/>
<feGaussianBlur stdDeviation="0.5" result="effect1_foregroundBlur_309_1999"/>
</filter>
<filter id="filter7_f_309_1999" x="449.97" y="451.515" width="668.743" height="668.706" filterUnits="userSpaceOnUse" color-interpolation-filters="sRGB">
<feFlood flood-opacity="0" result="BackgroundImageFix"/>
<feBlend mode="normal" in="SourceGraphic" in2="BackgroundImageFix" result="shape"/>
<feGaussianBlur stdDeviation="0.5" result="effect1_foregroundBlur_309_1999"/>
</filter>
<filter id="filter8_b_309_1999" x="1253" y="490" width="118" height="117" filterUnits="userSpaceOnUse" color-interpolation-filters="sRGB">
<feFlood flood-opacity="0" result="BackgroundImageFix"/>
<feGaussianBlur in="BackgroundImageFix" stdDeviation="2"/>
<feComposite in2="SourceAlpha" operator="in" result="effect1_backgroundBlur_309_1999"/>
<feBlend mode="normal" in="SourceGraphic" in2="effect1_backgroundBlur_309_1999" result="shape"/>
</filter>
<filter id="filter9_b_309_1999" x="744" y="504" width="118" height="132" filterUnits="userSpaceOnUse" color-interpolation-filters="sRGB">
<feFlood flood-opacity="0" result="BackgroundImageFix"/>
<feGaussianBlur in="BackgroundImageFix" stdDeviation="2"/>
<feComposite in2="SourceAlpha" operator="in" result="effect1_backgroundBlur_309_1999"/>
<feBlend mode="normal" in="SourceGraphic" in2="effect1_backgroundBlur_309_1999" result="shape"/>
</filter>
<filter id="filter10_b_309_1999" x="526" y="389" width="118" height="29" filterUnits="userSpaceOnUse" color-interpolation-filters="sRGB">
<feFlood flood-opacity="0" result="BackgroundImageFix"/>
<feGaussianBlur in="BackgroundImageFix" stdDeviation="2"/>
<feComposite in2="SourceAlpha" operator="in" result="effect1_backgroundBlur_309_1999"/>
<feBlend mode="normal" in="SourceGraphic" in2="effect1_backgroundBlur_309_1999" result="shape"/>
</filter>
<filter id="filter11_b_309_1999" x="283" y="684" width="317" height="117" filterUnits="userSpaceOnUse" color-interpolation-filters="sRGB">
<feFlood flood-opacity="0" result="BackgroundImageFix"/>
<feGaussianBlur in="BackgroundImageFix" stdDeviation="2"/>
<feComposite in2="SourceAlpha" operator="in" result="effect1_backgroundBlur_309_1999"/>
<feBlend mode="normal" in="SourceGraphic" in2="effect1_backgroundBlur_309_1999" result="shape"/>
</filter>
<filter id="filter12_b_309_1999" x="826" y="824" width="186" height="89" filterUnits="userSpaceOnUse" color-interpolation-filters="sRGB">
<feFlood flood-opacity="0" result="BackgroundImageFix"/>
<feGaussianBlur in="BackgroundImageFix" stdDeviation="2"/>
<feComposite in2="SourceAlpha" operator="in" result="effect1_backgroundBlur_309_1999"/>
<feBlend mode="normal" in="SourceGraphic" in2="effect1_backgroundBlur_309_1999" result="shape"/>
</filter>
<filter id="filter13_b_309_1999" x="516" y="1170" width="136" height="89" filterUnits="userSpaceOnUse" color-interpolation-filters="sRGB">
<feFlood flood-opacity="0" result="BackgroundImageFix"/>
<feGaussianBlur in="BackgroundImageFix" stdDeviation="2"/>
<feComposite in2="SourceAlpha" operator="in" result="effect1_backgroundBlur_309_1999"/>
<feBlend mode="normal" in="SourceGraphic" in2="effect1_backgroundBlur_309_1999" result="shape"/>
</filter>
<linearGradient id="paint0_linear_309_1999" x1="389.837" y1="751.976" x2="1189.4" y2="749.674" gradientUnits="userSpaceOnUse">
<stop offset="0.270008" stop-color="#3E1652" stop-opacity="0"/>
<stop offset="0.498726" stop-color="#3E1652"/>
<stop offset="0.732649" stop-color="#841AB0" stop-opacity="0"/>
</linearGradient>
<linearGradient id="paint1_linear_309_1999" x1="489.369" y1="760.702" x2="1089.04" y2="758.975" gradientUnits="userSpaceOnUse">
<stop offset="0.270008" stop-color="#047EC9" stop-opacity="0"/>
<stop offset="0.498726" stop-color="#047EC9"/>
<stop offset="0.732649" stop-color="#047EC9" stop-opacity="0"/>
</linearGradient>
<linearGradient id="paint2_linear_309_1999" x1="597.699" y1="741.281" x2="984.335" y2="791.481" gradientUnits="userSpaceOnUse">
<stop offset="0.207671" stop-color="#F5EEF7" stop-opacity="0"/>
<stop offset="0.517267" stop-color="#F5EEF7"/>
<stop offset="0.803802" stop-color="#F5EEF7" stop-opacity="0"/>
</linearGradient>
</defs>
</svg>
