<svg width="2497" height="900" viewBox="0 0 2497 900" fill="none" xmlns="http://www.w3.org/2000/svg">
<g id="SVGTechsDef">
<mask id="mask0_292_1790" style="mask-type:alpha" maskUnits="userSpaceOnUse" x="0" y="0" width="2511" height="900">
<ellipse id="Sombra6" cx="1255.02" cy="449.599" rx="1255.02" ry="449.599" fill="url(#paint0_radial_292_1790)"/>
</mask>
<g mask="url(#mask0_292_1790)">
<g id="SVGTechsBackground">
<ellipse id="Sombra4" cx="1244" cy="565.518" rx="394.197" ry="141.262" fill="#764385"/>
<ellipse id="Sombra3" opacity="0.64" cx="1236.2" cy="477.37" rx="394.197" ry="141.262" fill="#841AB0"/>
<ellipse id="Sombra6_2" opacity="0.64" cx="1255.02" cy="449.599" rx="895.854" ry="320.932" fill="url(#paint1_radial_292_1790)"/>
<ellipse id="LuzEfeito2" opacity="0.64" cx="1254.93" cy="449.944" rx="597.062" ry="213.892" fill="url(#paint2_radial_292_1790)"/>
<ellipse id="LuzEfeito1" opacity="0.64" cx="1254.93" cy="449.944" rx="640.298" ry="229.381" fill="url(#paint3_radial_292_1790)"/>
<ellipse id="Sombra5" opacity="0.64" cx="1235.42" cy="475.675" rx="594.808" ry="218.674" fill="url(#paint4_radial_292_1790)"/>
<ellipse id="Sombra2" opacity="0.64" cx="1252.59" cy="584.73" rx="215.442" ry="46.3341" fill="#FCFAFC"/>
<ellipse id="Sombra1" opacity="0.64" cx="1238.54" cy="495.452" rx="457.425" ry="98.3187" fill="url(#paint5_linear_292_1790)"/>
<ellipse id="LuzEfeitoGira" opacity="0.64" cx="1226.05" cy="538.762" rx="343.459" ry="73.8229" fill="url(#paint6_radial_292_1790)"/>
<g id="Vector " filter="url(#filter0_f_292_1790)">
<path d="M807.048 299.582L919.453 349.306L989.706 399.596L1052.93 461.751L1112.26 541.988L1145.82 610.359M927.259 288.281L996.731 334.05L1052.93 391.685L1096.65 454.971L1141.92 535.208L1171.58 612.055M1040.44 274.155L1079.47 322.749L1115.38 381.514L1146.6 448.755L1175.49 530.122L1197.34 613.75M1223.88 613.75L1212.95 526.732L1198.9 445.365L1184.07 377.559L1166.9 319.359L1149.73 266.244M1249.64 615.445V526.051L1251.2 444.235L1252.76 376.429L1255.11 317.664L1258.23 263.419M1277.74 613.75L1287.89 526.732L1303.5 445.365L1321.46 379.254L1343.31 320.489L1365.95 265.679M1301.16 613.75L1323.8 531.252L1353.46 450.45L1387.03 384.34L1427.62 327.835L1481.48 272.46M1326.92 612.055L1356.58 536.903L1400.3 457.231L1449.47 392.815L1504.89 338.006L1571.24 282.631M1351.9 610.925L1384.68 544.814L1442.45 466.837L1504.89 404.116L1577.49 352.697L1675.84 299.017M1375.32 608.664L1410.44 552.724L1479.92 477.008L1554.85 417.678L1640.72 369.648L1762.49 317.664M1831.18 338.006C1829.93 338.006 1704.2 386.976 1693.02 389.99L1595.44 433.499L1508.8 490.004L1430.74 562.33L1400.3 605.839M1422.93 602.449L1446.35 572.501L1529.87 504.13L1625.1 451.58L1733.61 413.157L1907.68 369.648M1440.89 600.754L1459.62 581.542L1543.14 518.821L1645.4 470.227L1762.49 436.324L1952.17 399.596M1979.49 444.235L1772.64 462.316L1655.55 490.004L1547.83 535.773L1467.43 588.888L1457.28 597.928L1513.48 600.754L1586.08 630.701L1489.28 586.627M1979.49 483.788L1769.51 488.309L1650.86 510.346L1543.14 549.334L1476.79 593.408L1489.28 586.627M1943.59 518.821C1942.34 518.821 1777.06 515.619 1750.78 514.866L1636.81 530.687L1529.87 564.59L1489.28 586.627M1489.28 586.627L1572.02 566.286L1661.01 564.59L1796.05 586.627M1489.28 586.627L1527.53 583.237L1593.1 584.932C1618.6 590.771 1691.77 612.846 1693.02 613.75M1489.28 586.627L1607.93 549.334L1713.31 540.293L1890.5 552.724M1463.52 639.177L1424.49 613.75L1390.93 606.969M1348 650.478L1326.92 620.53L1309.75 613.75M1225.44 651.608L1228.57 622.791L1231.69 615.445M1155.97 612.055L1131.77 619.4L1104.45 647.088M990.486 636.352L1039.66 612.055L1085.72 605.839M885.888 621.66L955.36 599.623L1020.93 596.233M792.998 601.884L879.643 582.107H961.605M711.816 578.717L819.538 563.46L915.55 567.416M641.563 550.464L766.457 539.728L877.301 550.464L1006.1 587.757L985.803 574.877M594.728 519.386L732.892 515.996L852.322 531.252L985.803 574.877M562.724 484.353L711.816 488.309L837.491 511.476L949.115 551.594L985.803 574.877M557.26 451.015L709.475 460.621L832.808 490.004L942.871 536.903L1034.2 596.233M574.433 415.982L721.964 435.194L841.394 469.097L945.212 518.821L1034.2 579.847L1052.93 599.623M1073.23 602.449C1071.98 601.093 1055.02 581.542 1046.69 571.936L961.605 503L864.031 450.45L753.187 409.767L611.12 382.079M668.884 351.567L795.339 386.035L899.158 431.239L983.461 488.309L1063.86 561.2L1096.65 605.839M1122.41 609.229L1085.72 551.594L1017.03 475.313L941.309 415.417L853.103 365.128L753.187 322.749" stroke="url(#paint7_radial_292_1790)" stroke-width="2.40198"/>
</g>
<path id="VectorAnimation" d="M1249.63 613.775C1250.19 479.167 1251.28 403.355 1258.04 266.027M1277.25 613.775L1288.06 527.273L1321.69 379.045L1367.33 266.027M1301.87 613.775L1324.69 531.185L1353.52 451.203L1387.15 384.696L1428.58 328.187L1480.82 274.721M1327.7 611.601L1357.12 537.27L1400.36 458.158L1450.8 392.086L1506.04 338.185L1570.3 285.153M1351.12 609.863L1385.34 545.095L1442.39 468.155L1506.04 404.692L1579.3 353.399L1673.58 301.671M1376.94 607.689L1409.96 554.223L1480.22 477.284L1555.88 417.732L1641.76 370.351L1760.65 319.059M1401.56 605.081L1431.58 562.482L1509.05 490.759L1595.52 434.685L1692.8 391.216L1829.11 339.923M1423.78 601.604L1445.99 574.219L1529.46 505.104L1624.94 452.507L1734.83 413.385L1905.97 370.786M1442.39 600.734L1461.01 581.174L1543.27 519.448L1646.56 470.329L1765.46 436.423L1950.41 400.779M1224.41 613.775C1212.59 520.598 1204.4 468.476 1183.58 376.002L1149.95 269.505M1170.97 611.601L1142.14 535.966L1096.51 455.55L1053.27 392.955L996.823 335.142L929.567 290.804M1145.15 609.863L1112.12 542.487L1052.07 462.07L989.016 399.475L919.959 350.356L810.069 301.671M1121.13 608.124L1085.7 551.615L1017.24 475.98L941.577 415.993L852.704 366.439L756.024 324.71M1096.51 605.081L1063.48 562.047L983.612 489.89L900.143 432.946L795.657 386.869L671.354 353.399M1071.28 601.604L1046.66 572.914L961.994 504.234L865.314 452.072L753.022 410.777L613.707 383.392M1052.07 598.996C1050.15 598.3 1039.66 586.535 1034.65 580.739L943.979 519.448L842.496 469.894L723.597 436.423L577.677 417.297M1031.65 595.518C1029.73 594.475 972.403 556.831 943.979 538.14L833.488 491.628L709.786 461.201L559.662 452.072M1003.43 587.259C1001.99 586.848 987.215 577.525 980.009 572.914M980.009 572.914L852.103 532.489L733.806 516.84L597.493 520.318M980.009 572.914L949.384 552.919L838.292 512.928L712.788 489.02L565.067 485.108M912.153 564.221H820.277L715.791 579M961.994 580.739L880.927 582.912L795.056 602.473M1019.64 597.257L956.59 600.3L887.533 621.599M1083.89 606.82L1039.46 613.34L992.619 636.378M1153.55 613.775L1132.53 620.295L1106.11 646.811M1230.42 617.687L1228.01 623.773L1225.61 650.723M1311.48 615.514L1326.49 621.599L1346.91 649.854M1393.15 608.559L1424.98 615.079L1462.21 639.421M1196.79 613.34L1175.77 531.185L1145.15 446.856L1112.12 376.002L1077.89 321.667L1042.46 277.764M980.009 579L880.927 549.442L771.637 538.14L656.342 549.442M1461.01 597.257L1549.88 533.793L1657.97 488.586L1777.47 461.201L1979.23 442.509M1480.22 589.433L1543.27 548.572L1654.37 508.581L1773.26 486.412L1979.23 482.065M1495.23 586.39L1584.71 627.685M1498.84 583.347L1529.46 581.174L1595.52 583.347L1693.4 611.601M1506.64 579L1574.5 565.09L1663.97 562.482L1796.08 583.347M1516.85 571.176C1518.29 571.176 1527.86 565.38 1532.46 562.482L1640.55 529.011L1752.25 513.363L1943.8 517.275M1549.88 566.829C1551.8 565.438 1591.11 554.078 1610.53 548.572L1716.22 539.444L1889.76 551.615" stroke="url(#paint8_radial_292_1790)" stroke-width="4.80396"/>
<g id="Ellipse 5" filter="url(#filter1_f_292_1790)">
<path d="M1658.35 499.973C1658.35 516.437 1646.89 532.155 1626.08 546.477C1605.29 560.796 1575.18 573.696 1537.97 584.533C1463.54 606.206 1360.71 619.613 1247.13 619.613C1133.54 619.613 1030.71 606.206 956.285 584.533C919.071 573.696 888.966 560.796 868.168 546.477C847.366 532.155 835.906 516.437 835.906 499.973C835.906 483.508 847.366 467.79 868.168 453.468C888.966 439.15 919.071 426.249 956.285 415.412C1030.71 393.739 1133.54 380.332 1247.13 380.332C1360.71 380.332 1463.54 393.739 1537.97 415.412C1575.18 426.249 1605.29 439.15 1626.08 453.468C1646.89 467.79 1658.35 483.508 1658.35 499.973Z" stroke="url(#paint9_linear_292_1790)" stroke-width="0.300248"/>
</g>
<g id="Ellipse 4" filter="url(#filter2_f_292_1790)">
<path d="M1550.63 537.831C1550.63 550.162 1542.2 561.94 1526.89 572.679C1511.58 583.415 1489.42 593.089 1462.02 601.216C1407.23 617.469 1331.53 627.524 1247.91 627.524C1164.28 627.524 1088.58 617.469 1033.79 601.216C1006.39 593.089 984.234 583.415 968.926 572.679C953.615 561.94 945.189 550.162 945.189 537.831C945.189 525.5 953.615 513.721 968.926 502.983C984.234 492.247 1006.39 482.573 1033.79 474.446C1088.58 458.193 1164.28 448.138 1247.91 448.138C1331.53 448.138 1407.23 458.193 1462.02 474.446C1489.42 482.573 1511.58 492.247 1526.89 502.983C1542.2 513.721 1550.63 525.5 1550.63 537.831Z" stroke="url(#paint10_linear_292_1790)" stroke-width="0.300248"/>
</g>
<path id="Ellipse 3" d="M1483.49 624.848C1483.49 637.98 1476.97 650.504 1465.14 661.911C1453.31 673.318 1436.18 683.597 1415 692.233C1372.64 709.505 1314.12 720.192 1249.47 720.192C1184.82 720.192 1126.29 709.505 1083.94 692.233C1062.76 683.597 1045.63 673.318 1033.8 661.911C1021.97 650.504 1015.44 637.98 1015.44 624.848C1015.44 611.717 1021.97 599.193 1033.8 587.786C1045.63 576.379 1062.76 566.099 1083.94 557.463C1126.29 540.191 1184.82 529.505 1249.47 529.505C1314.12 529.505 1372.64 540.191 1415 557.463C1436.18 566.099 1453.31 576.379 1465.14 587.786C1476.97 599.193 1483.49 611.717 1483.49 624.848Z" stroke="url(#paint11_linear_292_1790)" stroke-width="0.300248"/>
<g id="Ellipse 2" filter="url(#filter3_f_292_1790)">
<path d="M1777 474.545C1777 495.612 1762.13 515.715 1735.16 534.026C1708.21 552.333 1669.18 568.826 1620.95 582.679C1524.49 610.385 1391.22 627.524 1244 627.524C1096.79 627.524 963.52 610.385 867.057 582.679C818.825 568.826 779.804 552.333 752.844 534.026C725.879 515.715 711.012 495.612 711.012 474.545C711.012 453.478 725.879 433.376 752.844 415.065C779.804 396.757 818.825 380.265 867.057 366.411C963.52 338.705 1096.79 321.567 1244 321.567C1391.22 321.567 1524.49 338.705 1620.95 366.411C1669.18 380.265 1708.21 396.757 1735.16 415.065C1762.13 433.376 1777 453.478 1777 474.545Z" stroke="url(#paint12_linear_292_1790)" stroke-width="0.300248"/>
</g>
<g id="Ellipse 1" filter="url(#filter4_f_292_1790)">
<path d="M1984.63 462.114C1984.63 488.951 1964.72 514.553 1928.63 537.868C1892.55 561.179 1840.32 582.177 1775.78 599.814C1646.68 635.087 1468.33 656.906 1271.32 656.906C1074.32 656.906 895.967 635.087 766.873 599.814C702.325 582.177 650.099 561.179 614.015 537.868C577.923 514.553 558.016 488.951 558.016 462.114C558.016 435.278 577.923 409.675 614.015 386.36C650.099 363.049 702.325 342.051 766.873 324.414C895.967 289.141 1074.32 267.322 1271.32 267.322C1468.33 267.322 1646.68 289.141 1775.78 324.414C1840.32 342.051 1892.55 363.049 1928.63 386.36C1964.72 409.675 1984.63 435.278 1984.63 462.114Z" stroke="url(#paint13_linear_292_1790)" stroke-width="0.300248"/>
</g>
</g>
</g>
</g>
<defs>
<filter id="filter0_f_292_1790" x="556.464" y="262.629" width="1423.85" height="389.829" filterUnits="userSpaceOnUse" color-interpolation-filters="sRGB">
<feFlood flood-opacity="0" result="BackgroundImageFix"/>
<feBlend mode="normal" in="SourceGraphic" in2="BackgroundImageFix" result="shape"/>
<feGaussianBlur stdDeviation="0.360297" result="effect1_foregroundBlur_292_1790"/>
</filter>
<filter id="filter1_f_292_1790" x="835.035" y="379.461" width="824.181" height="241.022" filterUnits="userSpaceOnUse" color-interpolation-filters="sRGB">
<feFlood flood-opacity="0" result="BackgroundImageFix"/>
<feBlend mode="normal" in="SourceGraphic" in2="BackgroundImageFix" result="shape"/>
<feGaussianBlur stdDeviation="0.360297" result="effect1_foregroundBlur_292_1790"/>
</filter>
<filter id="filter2_f_292_1790" x="944.318" y="447.267" width="607.178" height="181.127" filterUnits="userSpaceOnUse" color-interpolation-filters="sRGB">
<feFlood flood-opacity="0" result="BackgroundImageFix"/>
<feBlend mode="normal" in="SourceGraphic" in2="BackgroundImageFix" result="shape"/>
<feGaussianBlur stdDeviation="0.360297" result="effect1_foregroundBlur_292_1790"/>
</filter>
<filter id="filter3_f_292_1790" x="710.142" y="320.696" width="1067.73" height="307.698" filterUnits="userSpaceOnUse" color-interpolation-filters="sRGB">
<feFlood flood-opacity="0" result="BackgroundImageFix"/>
<feBlend mode="normal" in="SourceGraphic" in2="BackgroundImageFix" result="shape"/>
<feGaussianBlur stdDeviation="0.360297" result="effect1_foregroundBlur_292_1790"/>
</filter>
<filter id="filter4_f_292_1790" x="557.146" y="266.451" width="1428.36" height="391.325" filterUnits="userSpaceOnUse" color-interpolation-filters="sRGB">
<feFlood flood-opacity="0" result="BackgroundImageFix"/>
<feBlend mode="normal" in="SourceGraphic" in2="BackgroundImageFix" result="shape"/>
<feGaussianBlur stdDeviation="0.360297" result="effect1_foregroundBlur_292_1790"/>
</filter>
<radialGradient id="paint0_radial_292_1790" cx="0" cy="0" r="1" gradientUnits="userSpaceOnUse" gradientTransform="translate(1255.02 449.599) rotate(90) scale(449.599 1255.02)">
<stop offset="0.765625" stop-color="white"/>
<stop offset="0.901042" stop-color="white" stop-opacity="0.64"/>
<stop offset="1" stop-color="#06020A" stop-opacity="0"/>
</radialGradient>
<radialGradient id="paint1_radial_292_1790" cx="0" cy="0" r="1" gradientUnits="userSpaceOnUse" gradientTransform="translate(1255.02 449.599) rotate(90) scale(320.932 895.854)">
<stop offset="0.133478" stop-color="#841AB0" stop-opacity="0"/>
<stop offset="1" stop-color="#0490D6" stop-opacity="0.32"/>
</radialGradient>
<radialGradient id="paint2_radial_292_1790" cx="0" cy="0" r="1" gradientUnits="userSpaceOnUse" gradientTransform="translate(1254.93 449.944) rotate(90) scale(213.892 597.062)">
<stop offset="0.628005" stop-color="#841AB0" stop-opacity="0.32"/>
<stop offset="1" stop-color="#0490D6" stop-opacity="0.64"/>
</radialGradient>
<radialGradient id="paint3_radial_292_1790" cx="0" cy="0" r="1" gradientUnits="userSpaceOnUse" gradientTransform="translate(1254.93 449.944) rotate(90) scale(229.381 640.298)">
<stop offset="0.133478" stop-color="#841AB0" stop-opacity="0.32"/>
<stop offset="1" stop-color="#0490D6" stop-opacity="0.64"/>
</radialGradient>
<radialGradient id="paint4_radial_292_1790" cx="0" cy="0" r="1" gradientUnits="userSpaceOnUse" gradientTransform="translate(1235.42 475.675) rotate(90.2236) scale(218.676 594.809)">
<stop stop-color="#841AB0" stop-opacity="0"/>
<stop offset="1" stop-color="#841AB0"/>
</radialGradient>
<linearGradient id="paint5_linear_292_1790" x1="1238.54" y1="397.133" x2="1238.54" y2="593.771" gradientUnits="userSpaceOnUse">
<stop stop-color="#FCFAFC"/>
<stop offset="1" stop-color="#FCFAFC" stop-opacity="0"/>
</linearGradient>
<radialGradient id="paint6_radial_292_1790" cx="0" cy="0" r="1" gradientUnits="userSpaceOnUse" gradientTransform="translate(1226.05 538.762) rotate(90) scale(73.8229 343.459)">
<stop stop-color="#FCFAFC" stop-opacity="0"/>
<stop offset="1" stop-color="#ECDFF0"/>
</radialGradient>
<radialGradient id="paint7_radial_292_1790" cx="0" cy="0" r="1" gradientUnits="userSpaceOnUse" gradientTransform="translate(1210.22 457.514) rotate(-89.8851) scale(194.66 654.863)">
<stop stop-color="#F5EEF7"/>
<stop offset="1" stop-color="#F5EEF7" stop-opacity="0"/>
</radialGradient>
<radialGradient id="paint8_radial_292_1790" cx="0" cy="0" r="1" gradientUnits="userSpaceOnUse" gradientTransform="translate(1210.3 458.375) rotate(-89.8845) scale(192.908 652.532)">
<stop offset="0.8125" stop-color="white"/>
<stop offset="1" stop-color="#F5EEF7" stop-opacity="0"/>
</radialGradient>
<linearGradient id="paint9_linear_292_1790" x1="1247.13" y1="380.182" x2="1247.13" y2="619.763" gradientUnits="userSpaceOnUse">
<stop stop-color="#F5EEF7"/>
<stop offset="1" stop-color="#F5EEF7" stop-opacity="0.32"/>
</linearGradient>
<linearGradient id="paint10_linear_292_1790" x1="1247.91" y1="447.988" x2="1247.91" y2="632.759" gradientUnits="userSpaceOnUse">
<stop stop-color="#F5EEF7"/>
<stop offset="1" stop-color="#F5EEF7" stop-opacity="0"/>
</linearGradient>
<linearGradient id="paint11_linear_292_1790" x1="1249.47" y1="529.355" x2="1249.47" y2="725.747" gradientUnits="userSpaceOnUse">
<stop stop-color="#F5EEF7"/>
<stop offset="0.371978" stop-color="#F5EEF7" stop-opacity="0"/>
</linearGradient>
<linearGradient id="paint12_linear_292_1790" x1="1244" y1="321.417" x2="1244" y2="627.674" gradientUnits="userSpaceOnUse">
<stop stop-color="#F5EEF7"/>
<stop offset="1" stop-color="#F5EEF7" stop-opacity="0.32"/>
</linearGradient>
<linearGradient id="paint13_linear_292_1790" x1="1271.32" y1="267.172" x2="1271.32" y2="657.056" gradientUnits="userSpaceOnUse">
<stop offset="0.487492" stop-opacity="0"/>
<stop offset="0.99764" stop-color="#F5EEF7"/>
</linearGradient>
</defs>
</svg>
